<?xml version="1.0" encoding="UTF-8"?>
<svg id="Layer_2" data-name="Layer 2" xmlns="http://www.w3.org/2000/svg" viewBox="0 0 26.3 23.41">
  <defs>
    <style>
      .cls-1 {
        fill: #192754;
        stroke-width: 0px;
      }
    </style>
  </defs>
  <g id="Layer_1-2" data-name="Layer 1">
    <g>
      <path class="cls-1" d="M3.04,23.41c-1.21-.2-2.13-.67-2.68-1.49-.25-.37-.34-.77-.35-1.17-.01-.59,0-1.19,0-1.78,0-.39.17-.53.72-.53.68,0,1.37-.01,2.05,0,.29,0,.38-.07.38-.28-.02-.6,0-1.2,0-1.8,0-.28.18-.44.48-.45.31,0,.51.16.51.45,0,.59,0,1.17,0,1.76,0,.31,0,.32.44.32,4.8,0,9.6,0,14.41,0,1.02,0,1.08.04,1.08.77,0,.52,0,1.04,0,1.55,0,1.07,1.04,1.9,2.51,1.94,1.45.04,2.59-.73,2.7-1.78,0-.1,0-.2,0-.3,0-6.4,0-12.81,0-19.21,0-.09,0-.18,0-.29-.19.02-.28.11-.4.16-.46.24-.92.48-1.39.72-.41.21-.53.21-.93,0-.69-.36-1.39-.71-2.08-1.08-.18-.09-.29-.09-.47,0-.69.37-1.4.73-2.1,1.1-.36.19-.49.19-.85,0-.71-.37-1.42-.73-2.13-1.11-.17-.09-.28-.08-.44,0-.69.37-1.38.73-2.07,1.08-.41.21-.53.21-.93,0-.68-.35-1.36-.7-2.02-1.06-.2-.11-.35-.11-.56,0-.68.36-1.36.72-2.05,1.07-.37.19-.51.19-.88,0-.52-.27-1.04-.54-1.57-.81-.07-.03-.13-.11-.21-.08-.11.03-.04.12-.05.19,0,.05,0,.11,0,.16,0,4.41,0,10.44,0,14.85,0,.38-.15.55-.49.56-.35,0-.51-.17-.51-.57,0-4.71,0-11.05,0-15.76,0-.05,0-.09,0-.14,0-.16.05-.3.27-.38.21-.07.41-.04.59.06.69.36,1.39.71,2.07,1.08.25.14.42.13.66,0,.64-.35,1.29-.68,1.94-1.02.42-.22.56-.22.99,0,.68.35,1.36.7,2.02,1.06.19.1.32.1.5,0,.69-.37,1.38-.72,2.07-1.08.36-.18.52-.19.88,0,.68.35,1.36.69,2.02,1.06.24.13.4.12.63,0,.63-.35,1.28-.67,1.92-1,.48-.25.57-.25,1.06,0,.6.31,1.19.63,1.8.93.5.25.35.27.88,0,.63-.32,1.25-.65,1.87-.97.21-.11.41-.19.67-.09.25.09.3.26.3.45,0,.05,0,.09,0,.14,0,6.67,0,13.34,0,20.01,0,1.08-.59,1.93-1.91,2.48-.35.15-.74.21-1.12.29H3.04ZM20.15,22.7c-.93-.68-1.17-1.48-1.12-2.35.01-.28,0-.56,0-.85q0-.33-.45-.33c-4.7,0-9.39,0-14.09,0-1.03,0-2.06,0-3.1,0-.28,0-.37.06-.36.26.02.47,0,.94,0,1.42,0,.39.17.75.49,1.07.57.57,1.37.79,2.3.79,5.34,0,10.68,0,16.02,0,.07,0,.14,0,.3-.01Z"/>
      <path class="cls-1" d="M11.93,4.44c1.74,0,3.48,0,5.21,0,.11,0,.21,0,.32,0,.29.02.5.16.5.34,0,.2-.15.33-.42.37-.13.02-.27.03-.41.03-3.48,0-6.95,0-10.43,0-.15,0-.3,0-.44-.04-.24-.05-.37-.18-.36-.36.01-.19.17-.31.43-.34.11-.01.23,0,.35,0,1.75,0,3.5,0,5.24,0Z"/>
      <path class="cls-1" d="M11.92,7.79c1.76,0,3.52,0,5.27,0,.12,0,.23,0,.35.01.26.04.41.16.41.35,0,.18-.14.31-.38.34-.16.03-.33.03-.5.03-3.43,0-6.86,0-10.3,0-.16,0-.32,0-.47-.03-.26-.04-.4-.17-.39-.36.01-.2.17-.32.45-.35.1,0,.21,0,.32,0,1.75,0,3.5,0,5.24,0Z"/>
      <path class="cls-1" d="M11.95,11.18c1.76,0,3.52,0,5.27,0,.11,0,.21,0,.31,0,.26.04.41.16.41.35,0,.19-.15.32-.41.35-.09.01-.19,0-.28,0-3.56,0-7.12,0-10.67,0-.08,0-.17,0-.25,0-.26-.03-.44-.18-.43-.36.02-.19.16-.31.43-.34.1-.01.21,0,.32,0,1.77,0,3.54,0,5.31,0Z"/>
      <path class="cls-1" d="M11.93,15.13c-1.76,0-3.52,0-5.27,0-.12,0-.23,0-.35-.01-.26-.04-.41-.17-.4-.36,0-.19.16-.31.42-.34.09-.01.19,0,.28,0,3.55,0,7.09,0,10.64,0,.09,0,.19,0,.28,0,.27.03.41.16.42.35,0,.19-.14.32-.41.35-.11.02-.23,0-.35,0-1.76,0-3.52,0-5.27,0Z"/>
      <path class="cls-1" d="M21.81,4.44c.38,0,.76,0,1.13,0,.33,0,.55.14.57.34.02.19-.19.38-.51.39-.81.03-1.62.04-2.42,0-.31-.01-.5-.18-.49-.37.01-.2.23-.35.55-.35.39,0,.78,0,1.17,0Z"/>
      <path class="cls-1" d="M21.82,7.79c.38,0,.76,0,1.13,0,.33,0,.55.14.56.34.01.2-.19.36-.52.38-.8.04-1.6.04-2.39,0-.33-.02-.53-.18-.52-.38.02-.21.24-.34.59-.35.38,0,.76,0,1.13,0Z"/>
      <path class="cls-1" d="M21.8,15.13c-.39,0-.78,0-1.17,0-.32,0-.54-.15-.55-.35,0-.21.22-.36.56-.36.77,0,1.53,0,2.3,0,.34,0,.57.15.57.36,0,.21-.23.35-.58.35-.38,0-.76,0-1.13,0Z"/>
      <path class="cls-1" d="M21.79,11.18c.39,0,.78,0,1.16,0,.34,0,.57.16.56.37,0,.2-.23.34-.55.35-.78,0-1.55,0-2.33,0-.32,0-.54-.15-.54-.35,0-.2.22-.35.54-.36.39,0,.78,0,1.16,0Z"/>
    </g>
  </g>
</svg>