<?xml version="1.0" encoding="UTF-8"?>
<svg id="Layer_2" data-name="Layer 2" xmlns="http://www.w3.org/2000/svg" viewBox="0 0 26.85 25.22">
  <defs>
    <style>
      .cls-1 {
        fill: #fff;
        stroke-width: 0px;
      }
    </style>
  </defs>
  <g id="Layer_1-2" data-name="Layer 1">
    <g>
      <path class="cls-1" d="M0,10.25c.17-.4.46-.62.92-.6.46.03.65.39.91.76.08-.32.13-.58.2-.83C3.18,5.29,5.84,2.35,9.98.76,11.64.12,13.37-.1,15.13.04c3.12.24,5.81,1.46,8.03,3.68,2.07,2.07,3.27,4.57,3.61,7.47.6,5.17-2.06,10.15-6.67,12.58-2.17,1.15-4.49,1.6-6.91,1.41-3.63-.29-6.57-1.92-8.78-4.82-.12-.15-.22-.32-.23-.52-.03-.41.17-.76.53-.9.37-.15.78-.04,1.03.3.56.75,1.19,1.44,1.94,2.01,1.71,1.33,3.63,2.08,5.8,2.2,3.01.17,5.67-.7,7.94-2.68,1.97-1.72,3.18-3.9,3.56-6.5.54-3.7-.56-6.89-3.22-9.51-1.72-1.7-3.82-2.71-6.23-2.93-4.69-.44-8.26,1.42-10.73,5.41-.61.99-.97,2.08-1.21,3.22-.01.06-.03.12.03.21.11-.11.22-.22.33-.32.38-.36.93-.38,1.27-.04.34.34.33.89-.04,1.27-.66.67-1.33,1.34-2,2-.47.46-1.06.4-1.43-.14-.59-.89-1.21-1.75-1.76-2.67v-.52Z"/>
      <path class="cls-1" d="M12.97,9.27c0-1.27,0-2.53,0-3.8,0-.44.31-.78.72-.84.45-.06.82.17.96.59.04.13.03.26.03.39,0,2.22,0,4.45,0,6.67,0,.22.07.35.24.48,1.45,1.09,2.9,2.19,4.34,3.28.28.21.44.47.41.82-.06.68-.8,1.02-1.37.62-.53-.37-1.04-.77-1.55-1.16-1.12-.84-2.23-1.68-3.35-2.51-.3-.22-.44-.49-.43-.87,0-1.23,0-2.46,0-3.69Z"/>
    </g>
  </g>
</svg>