<?xml version="1.0" encoding="UTF-8"?>
<svg id="Layer_2" data-name="Layer 2" xmlns="http://www.w3.org/2000/svg" viewBox="0 0 26.85 26.65">
  <defs>
    <style>
      .cls-1 {
        fill: #fff;
        stroke-width: 0px;
      }
    </style>
  </defs>
  <g id="Layer_1-2" data-name="Layer 1">
    <g>
      <path class="cls-1" d="M0,1.29C.22.66.63.21,1.3.04c.38-.09.75-.01,1.12.04,2.87.43,5.74.87,8.61,1.31,1.03.16,2.07.31,3.1.47.97.15,1.55.83,1.55,1.8,0,1.99,0,3.98,0,5.97,0,.26.09.34.33.39,3.11.61,6.21,1.24,9.32,1.84,1,.2,1.54.92,1.53,1.87-.02,3.68-.02,7.35,0,11.03,0,.94-.47,1.63-1.34,1.88H1.31c-.68-.19-1.12-.63-1.31-1.31V1.29ZM1.16,13.33c0,3.8,0,7.6,0,11.39,0,.66.11.77.78.77.72,0,1.43,0,2.15,0,.35,0,.35,0,.35-.35,0-1.5,0-3,0-4.51,0-1.13.71-1.85,1.85-1.85,1.03,0,2.06,0,3.09,0,.25,0,.49.04.72.12.7.27,1.11.89,1.12,1.7,0,1.51,0,3.02,0,4.53,0,.35,0,.35.35.35.85,0,1.69,0,2.54,0q.39,0,.39-.39c0-4.78,0-9.55,0-14.33,0-2.36,0-4.71,0-7.07,0-.44-.14-.61-.56-.68-1.47-.23-2.95-.45-4.42-.67-1.92-.29-3.84-.58-5.77-.87-.66-.1-1.33-.21-1.99-.28-.39-.04-.58.16-.6.55,0,.1,0,.21,0,.31,0,3.75,0,7.51,0,11.26ZM15.68,18.29c0,2.3,0,4.59,0,6.89,0,.21.03.32.28.32,3.04,0,6.07,0,9.11,0,.42,0,.6-.17.6-.58,0-3.75,0-7.51,0-11.26,0-.38-.13-.54-.51-.61-3.06-.61-6.12-1.21-9.18-1.82-.23-.05-.3,0-.3.25,0,2.28,0,4.56,0,6.83ZM5.62,22.89c0,.78,0,1.55,0,2.33,0,.2.07.28.27.27,1.3,0,2.6,0,3.9,0,.19,0,.26-.07.26-.26,0-1.54,0-3.07,0-4.61,0-.44-.22-.66-.67-.66-1.04,0-2.08,0-3.11,0-.44,0-.64.21-.64.65,0,.76,0,1.52,0,2.28Z"/>
      <path class="cls-1" d="M10.61,6.55c-.37,0-.73,0-1.1,0-.33,0-.58-.23-.6-.54-.02-.29.18-.55.5-.61.13-.02.26-.02.39-.02.58,0,1.15,0,1.73,0,.12,0,.25.01.36.04.28.07.46.33.43.61-.03.28-.26.52-.56.52-.38.01-.77,0-1.15,0,0,0,0,0,0,0Z"/>
      <path class="cls-1" d="M10.61,9.9c-.37,0-.73,0-1.1,0-.33,0-.58-.23-.6-.54-.02-.29.18-.55.5-.61.09-.02.19-.02.29-.02.61,0,1.22,0,1.83,0,.1,0,.21,0,.31.03.31.07.51.33.48.62-.03.29-.27.52-.58.53-.37,0-.75,0-1.12,0Z"/>
      <path class="cls-1" d="M10.59,13.25c-.36,0-.72,0-1.07,0-.33,0-.58-.23-.6-.54-.02-.29.18-.55.5-.61.08-.02.17-.02.26-.02.63,0,1.26,0,1.88,0,.1,0,.19,0,.29.03.31.07.51.33.48.62-.03.29-.27.52-.58.53-.38,0-.77,0-1.15,0Z"/>
      <path class="cls-1" d="M10.61,16.61c-.37,0-.73,0-1.1,0-.33,0-.57-.23-.6-.54-.02-.29.19-.55.5-.61.09-.02.19-.02.29-.02.61,0,1.22,0,1.83,0,.1,0,.21,0,.31.03.31.07.51.33.48.62-.03.29-.27.52-.59.52-.37,0-.75,0-1.12,0Z"/>
      <path class="cls-1" d="M5.03,6.55c-.37,0-.73,0-1.1,0-.34,0-.56-.2-.59-.5-.03-.34.15-.59.5-.65.14-.03.29-.02.44-.02.58,0,1.17,0,1.75,0,.44,0,.68.23.69.59,0,.33-.21.57-.54.58-.38.01-.77,0-1.15,0,0,0,0,0,0,0Z"/>
      <path class="cls-1" d="M5.01,9.9c-.35,0-.7,0-1.05,0-.37,0-.6-.2-.63-.52-.02-.35.18-.6.55-.63.35-.03.71-.02,1.07-.02.37,0,.75,0,1.12,0,.38.01.61.22.64.53.03.36-.19.63-.56.64-.38,0-.77,0-1.15,0,0,0,0,0,0,0Z"/>
      <path class="cls-1" d="M5.05,13.25c-.37,0-.75,0-1.12,0-.34,0-.56-.21-.59-.51-.03-.33.15-.57.49-.64.07-.01.14-.02.21-.02.66,0,1.32,0,1.99,0,.11,0,.23.02.33.06.27.09.41.35.37.65-.04.26-.24.46-.52.47-.38.01-.77,0-1.15,0h0Z"/>
      <path class="cls-1" d="M5.02,16.61c-.37,0-.73,0-1.1,0-.34,0-.56-.2-.59-.51-.03-.33.15-.57.48-.64.07-.01.14-.02.21-.02.67,0,1.34,0,2.01,0,.1,0,.21.02.31.05.27.09.41.35.37.65-.04.26-.24.46-.52.47-.39.01-.78,0-1.18,0h0Z"/>
      <path class="cls-1" d="M20.67,16.61c-.37,0-.73,0-1.1,0-.33,0-.58-.23-.6-.54-.02-.29.18-.55.5-.61.13-.02.26-.02.39-.02.58,0,1.15,0,1.73,0,.12,0,.25.01.36.04.28.07.46.33.43.61-.03.28-.26.52-.56.52-.38.01-.77,0-1.15,0h0Z"/>
      <path class="cls-1" d="M20.64,19.96c-.36,0-.72,0-1.07,0-.33,0-.57-.23-.6-.54-.02-.29.19-.55.5-.61.09-.02.19-.02.29-.02.61,0,1.22,0,1.83,0,.1,0,.21,0,.31.03.31.07.51.33.48.62-.03.29-.27.52-.59.52-.38,0-.77,0-1.15,0Z"/>
      <path class="cls-1" d="M20.67,23.31c-.36,0-.72,0-1.07,0-.36,0-.6-.22-.63-.54-.02-.31.21-.57.55-.62.09-.01.19-.01.29-.01.59,0,1.19,0,1.78,0,.1,0,.21,0,.31.03.31.07.51.33.48.62-.03.29-.27.52-.58.52-.37,0-.75,0-1.12,0Z"/>
    </g>
  </g>
</svg>