<?xml version="1.0" encoding="UTF-8"?>
<svg id="Layer_2" data-name="Layer 2" xmlns="http://www.w3.org/2000/svg" viewBox="0 0 26.8 26.8">
  <defs>
    <style>
      .cls-1 {
        fill: #192754;
        stroke-width: 0px;
      }
    </style>
  </defs>
  <g id="Layer_1-2" data-name="Layer 1">
    <g>
      <path class="cls-1" d="M0,12.36c.09-.67.17-1.34.33-2.01.51-2.17,1.5-4.1,2.98-5.77C5.34,2.28,7.86.8,10.88.25c4.19-.76,7.97.23,11.23,2.97,2.64,2.22,4.17,5.09,4.59,8.51.49,4.07-.66,7.66-3.41,10.7-2.1,2.33-4.75,3.69-7.84,4.2-.45.07-.91.11-1.37.16h-1.31c-.27-.03-.53-.06-.8-.08-2.04-.21-3.92-.88-5.65-1.96-.17-.1-.3-.12-.48-.04-1.66.7-3.33,1.39-4.99,2.09-.24,0-.49,0-.73,0-.09,0-.11-.02-.11-.11,0-.26,0-.52,0-.78.03-.06.07-.12.09-.19.66-1.57,1.31-3.15,1.98-4.72.09-.21.07-.36-.05-.55-.73-1.13-1.25-2.36-1.61-3.67-.2-.75-.3-1.52-.41-2.28v-2.14ZM1.99,24.82c.13,0,.25-.08.36-.13,1.03-.44,2.08-.86,3.1-1.34.51-.24.92-.18,1.39.12,2.43,1.58,5.09,2.24,7.99,1.9,2.57-.3,4.84-1.32,6.73-3.09,3.08-2.89,4.34-6.48,3.78-10.67-.35-2.61-1.49-4.88-3.38-6.72C18.85,1.86,15.13.76,10.89,1.61c-3.4.68-6,2.59-7.81,5.54-1.52,2.47-2.03,5.16-1.61,8.03.26,1.8.92,3.44,1.95,4.94.22.31.25.61.1.96-.5,1.15-.98,2.31-1.46,3.47-.04.08-.1.16-.07.28Z"/>
      <path class="cls-1" d="M12.71,15.34c0-.41,0-.82,0-1.23,0-.62.23-.88.85-.92.61-.04,1.13-.26,1.6-.64,1.23-1,1.31-2.93.17-4.03-.78-.74-1.7-.99-2.72-.67-1.01.31-1.64,1.01-1.88,2.05-.04.19-.05.38-.08.57-.06.39-.34.62-.69.61-.36-.02-.65-.31-.64-.69,0-.84.26-1.61.75-2.3,1.02-1.43,2.8-2.05,4.51-1.59,1.65.44,2.85,1.89,3.01,3.63.18,2-1.22,3.89-3.22,4.32-.22.05-.29.13-.28.34.01.64,0,1.29,0,1.93,0,.32-.14.56-.44.68-.24.1-.48.06-.68-.12-.19-.17-.24-.4-.25-.64,0-.44,0-.87,0-1.31Z"/>
      <path class="cls-1" d="M13.35,19.04c.41,0,.74.33.73.73,0,.41-.32.72-.74.72-.41,0-.74-.33-.74-.73,0-.39.34-.72.75-.72Z"/>
    </g>
  </g>
</svg>