<?xml version="1.0" encoding="UTF-8"?>
<svg id="Layer_2" data-name="Layer 2" xmlns="http://www.w3.org/2000/svg" viewBox="0 0 26.91 17.44">
  <defs>
    <style>
      .cls-1 {
        fill: #192754;
        stroke-width: 0px;
      }
    </style>
  </defs>
  <g id="Layer_1-2" data-name="Layer 1">
    <path class="cls-1" d="M0,8.02c.17-.35.42-.57.83-.6.17,0,.17-.15.21-.26.63-1.76,1.27-3.52,1.89-5.29.29-.82.79-1.41,1.61-1.72.23-.09.47-.14.72-.14.7,0,3.18,0,3.88,0,.32,0,.49.16.49.42,0,.25-.18.4-.48.4-.61,0-3.01,0-3.62,0-.87,0-1.47.41-1.76,1.23-.61,1.7-1.22,3.41-1.83,5.12-.06.18-.05.26.17.25.33-.01.67,0,1,0,5.47,0,13.41,0,18.89,0,.12,0,.25,0,.37.01.2.04.33.17.35.37.01.21-.1.37-.31.44-.14.05-.28.03-.42.03-6.07,0-14.6,0-20.67,0-.1,0-.19,0-.29,0-.14,0-.2.06-.2.21,0,.74-.08.62.57.62,8.06,0,16.13,0,24.19,0,.1,0,.19,0,.29,0,.17,0,.24-.06.23-.23-.01-.7.08-.6-.57-.6-1.22,0-2.43,0-3.65,0-.41,0-.64-.15-.64-.42,0-.29.2-.44.65-.44.97,0,1.94,0,2.92,0,.22,0,.25-.05.18-.26-.61-1.7-1.21-3.39-1.82-5.09-.3-.83-.89-1.24-1.78-1.24-3.96,0-7.91,0-11.87,0-.44,0-.63-.13-.63-.41,0-.29.18-.41.63-.41,3.96,0,7.91.02,11.87-.01,1.23,0,2.23.74,2.61,1.85.61,1.77,1.26,3.53,1.88,5.29.07.19.15.27.36.3.42.05.7.4.71.82,0,.28,0,.56,0,.84,0,.45-.28.79-.73.85-.19.03-.27.11-.33.27-.63,1.77-1.26,3.53-1.88,5.29-.34.97-.97,1.6-1.99,1.83-.17.04-.35.03-.52.03-4.52,0-10.99,0-15.51,0-.06,0-.12,0-.18,0-.23-.02-.37-.15-.38-.39-.02-.22.14-.41.37-.43.22-.02,2.39,0,2.61,0q.4,0,.4-.41c0-.55,0-1.1,0-1.65.01-.69.4-1.17,1.03-1.31.75-.17,1.49.41,1.51,1.17.01.64.01,1.28,0,1.92,0,.22.07.29.28.28.67-.02.57.08.58-.56,0-.48,0-.96,0-1.44,0-.81.55-1.41,1.28-1.4.73,0,1.27.6,1.27,1.41,0,.58,0,1.16,0,1.73,0,.19.06.27.25.26.73-.02.6.09.61-.59,0-.48.02-.96,0-1.44-.04-.72.48-1.35,1.24-1.38.73-.02,1.29.56,1.3,1.35.01.57.01,1.14,0,1.71,0,.26.06.35.33.35.99-.02,1.98,0,2.97,0,.79,0,1.41-.41,1.68-1.15.63-1.73,1.25-3.48,1.87-5.21.07-.19,0-.23-.17-.22-.53,0-1.07,0-1.6,0-2.16,0-4.32,0-6.49,0-.22,0-.34.06-.39.28-.06.24-.14.47-.22.7-.17.49-.47.71-.98.71-1.12,0-2.24,0-3.36,0-.48,0-.79-.22-.95-.67-.09-.25-.17-.5-.24-.75-.05-.21-.17-.27-.37-.27-2.68,0-5.36,0-8.04,0-.02,0-.04,0-.05,0-.23-.03-.24.07-.17.26.61,1.69,1.21,3.38,1.81,5.07.3.85.89,1.26,1.79,1.26.15,0,.3-.01.45.01.22.03.34.18.34.4,0,.21-.1.35-.31.4-1.17.29-2.51-.41-2.97-1.55-.14-.34-.25-.69-.38-1.04-.54-1.52-1.08-3.03-1.62-4.55-.06-.16-.12-.26-.32-.28-.36-.03-.57-.27-.72-.58v-1.37ZM13.45,9.97h-1.5c-.58,0-.57,0-.42.55.07.23.19.32.43.31.88-.01,1.77,0,2.65,0,.74,0,.6.1.84-.64.06-.19,0-.23-.17-.23-.61,0-1.22,0-1.84,0ZM9.63,15.39c0,.32,0,.65,0,.97,0,.13.05.22.18.19.22-.04.49.14.67-.11,0-.01,0-.03,0-.05,0-.65,0-1.29,0-1.94,0-.28-.2-.45-.45-.44-.24.01-.39.17-.39.46,0,.31,0,.61,0,.92ZM17.27,15.41s0,0,0,0c0-.32.01-.65,0-.97-.02-.34-.33-.53-.61-.38-.19.1-.25.28-.25.49,0,.47,0,.94,0,1.41.01.69-.14.59.64.6.18,0,.23-.08.22-.24,0-.31,0-.61,0-.92ZM13.03,15.37h0c0,.2,0,.4,0,.6.01.66-.11.58.61.58.16,0,.22-.06.22-.22,0-.63,0-1.26,0-1.89,0-.28-.16-.44-.41-.44-.25,0-.4.16-.41.44,0,.31,0,.61,0,.92Z"/>
  </g>
</svg>