<?xml version="1.0" encoding="UTF-8"?>
<svg id="Layer_2" data-name="Layer 2" xmlns="http://www.w3.org/2000/svg" viewBox="0 0 18.7 24.85">
  <defs>
    <style>
      .cls-1 {
        fill: #fff;
        stroke-width: 0px;
      }
    </style>
  </defs>
  <g id="Layer_1-2" data-name="Layer 1">
    <g>
      <path class="cls-1" d="M8.16,24.85c-.67-.13-1.31-.35-1.88-.73-.77-.51-1.33-1.2-1.75-2.01-1.46-2.81-2.92-5.62-4.38-8.43-.24-.45-.2-.57.19-.91.47-.4.95-.78,1.58-.9,1.02-.19,1.88.11,2.58.87.19.2.36.43.55.65.06-.11.03-.21.03-.3,0-3.02,0-6.04,0-9.07,0-.82.32-1.49,1.04-1.91,1.31-.78,2.99.19,3.01,1.74.02,1.52,0,3.04,0,4.56,0,.09,0,.17,0,.29.33-.16.62-.3.96-.32.79-.04,1.4.25,1.84.9.1.15.16.17.31.06,1.02-.76,2.34-.46,2.95.66.1.18.15.23.35.1,1.22-.79,2.84-.04,3.08,1.42.03.16.04.32.04.48,0,2.61.03,5.22,0,7.83-.02,1.83-.8,3.3-2.34,4.33-.55.37-1.18.56-1.83.68h-6.35ZM8.25,8.5c0-1.44,0-2.88,0-4.32,0-.13,0-.26,0-.39-.04-.5-.44-.96-.9-1.05-.52-.1-.99.16-1.23.65-.11.23-.12.46-.12.71,0,3.41,0,6.82,0,10.23,0,.09,0,.18,0,.27-.01.23-.09.41-.33.48-.22.07-.39-.03-.53-.21-.38-.47-.77-.94-1.15-1.4-.78-.95-1.87-1.04-2.81-.24-.14.12-.14.2-.06.34.45.86.9,1.72,1.34,2.58.99,1.9,1.96,3.81,2.97,5.69.73,1.37,1.88,2.12,3.47,2.12,1.71,0,3.43,0,5.14,0,1.08,0,1.96-.48,2.67-1.27.75-.84,1.09-1.84,1.09-2.96.01-1.86,0-3.72,0-5.58,0-.74,0-1.49,0-2.23,0-.66-.44-1.19-1-1.24-.74-.07-1.28.41-1.3,1.16,0,.36,0,.71-.02,1.07-.02.27-.23.45-.47.43-.24-.02-.4-.21-.41-.49,0-.54,0-1.08,0-1.62,0-.17-.01-.34-.05-.51-.1-.42-.34-.74-.75-.88-.39-.13-.76-.05-1.06.23-.26.25-.39.57-.39.93,0,.65,0,1.31,0,1.96,0,.28-.2.48-.45.47-.24,0-.42-.19-.44-.46,0-.07,0-.15,0-.22,0-.76,0-1.52,0-2.28,0-.72-.49-1.23-1.16-1.23-.66,0-1.13.49-1.14,1.22,0,.54,0,1.08,0,1.62,0,.38,0,.76,0,1.14,0,.27-.16.44-.4.46-.24.02-.42-.13-.47-.39-.02-.1-.02-.21-.02-.31,0-1.5,0-3.01,0-4.51Z"/>
      <path class="cls-1" d="M6.65,0c2.5,0,4.15,1.6,4.21,3.65,0,.29-.17.51-.42.52-.25.01-.43-.16-.46-.46-.09-1.26-.68-2.18-1.87-2.65-1.8-.71-3.8.62-3.87,2.55,0,.22-.05.42-.28.52-.31.13-.62-.09-.61-.46,0-.7.2-1.36.59-1.94C4.69.59,5.76.02,6.65,0Z"/>
    </g>
  </g>
</svg>