<?xml version="1.0" encoding="UTF-8"?>
<svg id="Layer_2" data-name="Layer 2" xmlns="http://www.w3.org/2000/svg" viewBox="0 0 27.1 31.31">
  <defs>
    <style>
      .cls-1 {
        fill: #f2f2f2;
        stroke-width: 0px;
      }
    </style>
  </defs>
  <g id="Layer_1-2" data-name="Layer 1">
    <g>
      <path class="cls-1" d="M.02,12.87c0-3.69,0-7.38,0-11.07,0-.65.21-1.2.78-1.56C1.04.08,1.31,0,1.61,0c5.58,0,11.16,0,16.73,0,.87,0,1.55.69,1.57,1.57,0,.21.01.42,0,.63-.02.24.06.35.32.33.33-.02.65,0,.98,0,.87.02,1.52.6,1.62,1.47.02.2.03.4.03.6,0,4.41,0,8.82,0,13.22,0,.32.09.47.39.62,2.25,1.14,3.55,2.96,3.82,5.48.36,3.4-2,6.67-5.51,7.27-2.69.46-4.92-.44-6.62-2.58-.16-.2-.32-.29-.58-.29-3.17,0-6.35,0-9.52,0-1.24,0-1.84-.58-1.89-1.82-.03-.72-.03-.76-.77-.71C.65,25.89-.02,25.05,0,23.62c.05-3.58.02-7.17.02-10.76ZM3.9,15.4c0,3.71,0,7.42,0,11.13,0,.59.23.83.82.83,3.04,0,6.07,0,9.11,0,.28,0,.32-.07.22-.32-.47-1.18-.59-2.4-.38-3.66.6-3.64,4.23-6.19,7.85-5.5q.38.07.38-.33c0-4.39,0-8.77,0-13.16,0-.7-.2-.9-.91-.9-5.39,0-10.77,0-16.16,0-.73,0-.92.19-.92.91,0,3.66,0,7.32,0,10.97ZM19.87,21.78c0-.91,0-1.81,0-2.72,0-.25-.09-.31-.32-.28-3.26.44-5.55,3.59-4.93,6.8.77,4.02,5.23,6.03,8.73,3.92,1.5-.91,2.38-2.26,2.71-3.98.1-.5.09-.5-.43-.5-1.71,0-3.42,0-5.12,0-.47,0-.63-.16-.63-.62,0-.87,0-1.75,0-2.62ZM.99,12.9c0,3.64,0,7.28,0,10.91,0,.13,0,.25,0,.38.03.36.27.6.64.62.31.01.61-.01.92.01.31.02.43-.1.39-.4-.01-.09,0-.19,0-.28,0-6.5,0-12.99,0-19.49,0-.29,0-.59.07-.88.16-.75.83-1.23,1.7-1.23,4.53,0,9.07,0,13.6,0,.76,0,.67.11.67-.67,0-.7-.24-.93-.93-.93-5.38,0-10.76,0-16.13,0-.7,0-.92.22-.92.93,0,3.68,0,7.36,0,11.04ZM23.45,24.06c.74,0,1.47,0,2.21,0q.48,0,.41-.47s0-.04-.01-.06c-.48-2.5-2.41-4.36-4.92-4.74-.25-.04-.34.03-.34.29,0,1.55,0,3.1,0,4.64,0,.27.09.35.35.34.77-.01,1.54,0,2.31,0Z"/>
      <path class="cls-1" d="M18.29,7.74c-.02-.66.33-1.19.92-1.4.58-.2,1.21,0,1.58.49.35.48.35,1.13,0,1.62-.37.5-1,.7-1.6.47-.21-.08-.35-.05-.51.09-.28.24-.57.46-.87.69-.31.24-.58.47-.74.87-.19.49-.62.73-1.15.74-.54.02-.98-.2-1.23-.68-.13-.24-.29-.33-.54-.36-.33-.05-.66-.11-.99-.2-.18-.04-.26.01-.37.15-.44.61-1.04.78-1.72.49-.17-.07-.29-.06-.43.04-.6.42-1.21.84-1.82,1.26-.14.09-.18.19-.18.36.04.8-.53,1.44-1.32,1.49-.69.05-1.36-.53-1.42-1.21-.07-.82.42-1.44,1.24-1.54.25-.03.49.01.7.13.19.1.32.06.49-.05.56-.4,1.12-.78,1.69-1.16.18-.12.25-.24.25-.46-.02-.71.38-1.27,1-1.43.64-.17,1.26.1,1.6.72.09.17.2.24.39.27.36.06.73.13,1.08.21.17.04.27,0,.37-.15.55-.75,1.42-.85,2.1-.22.15.13.24.12.37,0,.32-.27.65-.54.99-.78.18-.13.13-.29.12-.45ZM16.27,9.95c0-.24-.17-.42-.41-.41-.23,0-.43.2-.43.42,0,.22.21.42.42.42.22,0,.41-.2.41-.43ZM7.22,12.91c.22.02.44-.16.44-.39,0-.25-.12-.4-.36-.44-.22-.04-.44.15-.47.37-.03.22.16.44.38.46ZM11.65,9.05c-.26,0-.43.2-.41.44.02.25.16.38.41.38.25,0,.41-.18.39-.43-.02-.26-.18-.37-.39-.39ZM20.07,7.65c0-.24-.14-.4-.38-.41-.25-.01-.43.15-.43.4,0,.25.12.39.38.41.25.01.42-.14.43-.39Z"/>
      <path class="cls-1" d="M11.79,17.09c1.59,0,3.18,0,4.78,0,.11,0,.21,0,.32.01.25.04.4.21.41.45.01.24-.12.4-.36.46-.13.03-.27.04-.41.04-3.17,0-6.35,0-9.52,0-.13,0-.25,0-.38-.04-.25-.06-.37-.24-.36-.49.02-.26.17-.4.42-.43.1-.01.21,0,.32,0,1.59,0,3.18,0,4.78,0Z"/>
      <path class="cls-1" d="M16.44,12.46c1.39,0,2.78,0,4.17,0,.26,0,.46.07.54.34.08.27-.09.54-.38.58-.1.02-.21.01-.32.01-2.7,0-5.4,0-8.09,0-.05,0-.11,0-.16,0-.33-.01-.55-.21-.55-.48,0-.26.22-.45.55-.45,1.41,0,2.82,0,4.24,0Z"/>
      <path class="cls-1" d="M10.09,20.86c-1.04,0-2.09,0-3.13,0-.11,0-.21,0-.31-.01-.23-.05-.37-.21-.37-.45,0-.24.13-.4.36-.45.09-.02.19-.02.28-.02,2.13,0,4.26,0,6.39,0,.06,0,.13,0,.19,0,.28.02.46.2.46.46,0,.26-.18.45-.46.46-.22.01-.44,0-.66,0-.92,0-1.83,0-2.75,0Z"/>
      <path class="cls-1" d="M9.41,26.04c-.94,0-1.88,0-2.81,0-.12,0-.23,0-.35-.02-.25-.05-.39-.22-.39-.47,0-.24.14-.4.37-.45.11-.03.23-.03.34-.03,1.89,0,3.77,0,5.66,0,.12,0,.23,0,.35.03.24.06.4.21.39.47,0,.27-.17.42-.43.47-.1.02-.21.01-.32.01-.94,0-1.88,0-2.81,0Z"/>
      <path class="cls-1" d="M9.37,23.7c-.94,0-1.87,0-2.81,0-.12,0-.23,0-.34-.03-.22-.06-.35-.21-.36-.43,0-.22.11-.38.32-.46.15-.06.31-.05.47-.05,1.81,0,3.62,0,5.43,0,.12,0,.23,0,.35.02.27.04.44.2.45.48,0,.26-.21.45-.5.47-.16,0-.32,0-.47,0-.84,0-1.68,0-2.53,0Z"/>
      <path class="cls-1" d="M14,14.62c.58,0,1.16,0,1.74,0,.37,0,.59.18.61.46.01.29-.22.5-.6.5-1.16,0-2.32,0-3.48,0-.39,0-.62-.21-.61-.5.01-.29.24-.46.64-.47.57,0,1.14,0,1.71,0Z"/>
      <path class="cls-1" d="M8.63,5.87c-.53,0-1.05,0-1.58,0-.35,0-.55-.18-.55-.47,0-.29.2-.46.55-.46,1.04,0,2.08,0,3.13,0,.35,0,.55.18.55.47,0,.29-.19.45-.55.46-.52,0-1.03,0-1.55,0Z"/>
      <path class="cls-1" d="M7.7,8.07c-.23,0-.46.01-.69,0-.31-.02-.52-.22-.51-.49,0-.26.2-.46.5-.47.46-.02.93-.02,1.39,0,.29,0,.5.22.5.47,0,.25-.2.45-.49.48-.11.01-.23,0-.35,0-.12,0-.23,0-.35,0,0,0,0,0,0,0Z"/>
    </g>
  </g>
</svg>