<?xml version="1.0" encoding="UTF-8"?>
<svg id="Layer_2" data-name="Layer 2" xmlns="http://www.w3.org/2000/svg" viewBox="0 0 25.68 25.68">
  <defs>
    <style>
      .cls-1 {
        fill: #192754;
        stroke-width: 0px;
      }
    </style>
  </defs>
  <g id="Layer_1-2" data-name="Layer 1">
    <path class="cls-1" d="M11.22,0c.67.09,1.34.18,1.98.39,3.89,1.26,6.36,3.87,7.23,7.87.65,2.98-.01,5.73-1.8,8.2-.12.16-.08.25.04.37,2.19,2.18,4.37,4.37,6.56,6.55.37.37.52.8.4,1.3-.24.99-1.45,1.33-2.18.62-.64-.62-1.27-1.26-1.9-1.89-1.57-1.57-3.14-3.14-4.71-4.71-.15-.15-.24-.17-.41-.04-1.53,1.12-3.23,1.78-5.13,1.96C5.94,21.14,1.01,17.39.13,12.09c-.04-.27-.09-.54-.13-.81,0-.63,0-1.27,0-1.9.03-.23.05-.46.1-.69C.93,4.5,3.35,1.72,7.41.39c.65-.21,1.33-.3,2.01-.39h1.8ZM19.38,10.32c.05-4.97-4.08-9.06-9.06-9.06-4.72,0-9.08,3.79-9.07,9.07,0,5.29,4.35,9.07,9.08,9.06,5,0,9.11-4.11,9.06-9.07Z"/>
  </g>
</svg>