<?xml version="1.0" encoding="UTF-8"?>
<svg id="Layer_2" data-name="Layer 2" xmlns="http://www.w3.org/2000/svg" viewBox="0 0 33.03 36.11">
  <defs>
    <style>
      .cls-1 {
        fill: #c9c9c9;
        stroke-width: 0px;
      }
    </style>
  </defs>
  <g id="Layer_1-2" data-name="Layer 1">
    <g>
      <path class="cls-1" d="M9.89,0h.92c1.03.44,1.36.94,1.36,2.05,0,.22.02.45,0,.67-.03.32.09.44.42.43,1.03-.02,2.07,0,3.1,0,1.57,0,3.15,0,4.72,0,.44,0,.45-.01.45-.46,0-.21,0-.42,0-.63,0-1.11.34-1.62,1.36-2.05h.92c.7.26,1.18.71,1.33,1.47.07.4.03.8.03,1.2,0,.48,0,.49.5.49,1.73,0,3.45-.01,5.18,0,1.58.02,2.85,1.29,2.85,2.86,0,9.09,0,18.18,0,27.26,0,1.55-1.28,2.83-2.83,2.83-9.12,0-18.25,0-27.37,0-1.55,0-2.83-1.28-2.83-2.83C0,24.18,0,15.1,0,6.01c0-1.37.99-2.54,2.33-2.79.76-.14,1.52-.05,2.28-.06,1.17-.01,2.35,0,3.52,0,.25,0,.41-.05.39-.35-.01-.23,0-.47,0-.7-.05-1.03.39-1.74,1.36-2.1ZM16.55,11.77c-4.98,0-9.96,0-14.94,0-.57,0-.58,0-.58.56,0,6.86,0,13.72,0,20.57,0,1.41.74,2.16,2.15,2.16,4.94,0,9.89,0,14.83,0,.27,0,.51-.06.75-.17,3.78-1.73,6.63-4.42,8.45-8.18.31-.63.56-.69,1.15-.29.97.66,2.02.83,3.15.49.35-.1.48-.26.48-.64-.01-4.64,0-9.28,0-13.92q0-.6-.61-.6c-4.94,0-9.89,0-14.83,0ZM16.48,10.69c4.94,0,9.89,0,14.83,0,.12,0,.24,0,.35,0,.24.01.33-.1.33-.34,0-1.42.02-2.84-.01-4.26-.02-1.02-.75-1.82-1.68-1.84-1.82-.03-3.64-.01-5.46-.02-.26,0-.35.13-.34.37,0,.35.01.71,0,1.06-.05.97-.87,1.75-1.82,1.75-.98,0-1.79-.8-1.81-1.79,0-.31,0-.61,0-.92,0-.44-.02-.47-.45-.47-.46,0-.92,0-1.37,0-2.13,0-4.25,0-6.38,0-.46,0-.48.02-.49.47,0,.29,0,.59,0,.88-.02,1.02-.82,1.82-1.81,1.83-.98,0-1.8-.81-1.82-1.82,0-.29,0-.59,0-.88,0-.45-.02-.47-.48-.48-1.67,0-3.34.03-5-.01-1.2-.03-2.03.87-2.01,2.04.02,1.29,0,2.58,0,3.87q0,.55.54.55c4.97,0,9.93,0,14.9,0ZM31.93,28.88c-1.07,1.4-2.31,2.62-3.73,3.66-1.42,1.04-2.96,1.85-4.59,2.5,2.11.03,4.21.03,6.31.03,1.31,0,2.07-.78,2.07-2.09,0-1.26,0-2.51,0-3.77,0-.1.04-.21-.06-.33ZM31.14,28.14c-.32,0-.53,0-.73,0-.71.02-1.38-.13-2-.46-.31-.16-.43-.1-.59.19-.97,1.86-2.26,3.48-3.82,4.88-.65.59-1.35,1.11-2.05,1.64,3.71-1.07,6.77-3.1,9.19-6.25ZM9.62,3.69c0,.61,0,1.22,0,1.83,0,.51.28.8.73.8.45,0,.73-.29.73-.8.01-1.22,0-2.44,0-3.65,0-.5-.29-.82-.72-.83-.44-.01-.74.32-.75.83,0,.61,0,1.22,0,1.83ZM23.41,3.66c0-.6,0-1.2,0-1.8,0-.51-.31-.85-.75-.84-.42,0-.71.33-.72.84,0,1.21,0,2.42,0,3.63,0,.54.29.83.75.82.44,0,.71-.31.72-.82,0-.61,0-1.22,0-1.83Z"/>
      <path class="cls-1" d="M8.65,30.76c0,.5,0,1.01,0,1.51-.01.72-.43,1.14-1.14,1.15-1.03,0-2.06,0-3.1,0-.66,0-1.09-.36-1.12-1.02-.06-1.11-.06-2.23,0-3.34.03-.61.4-.98,1.02-1,1.1-.04,2.2-.04,3.31,0,.67.02,1.02.47,1.03,1.15,0,.52,0,1.03,0,1.55ZM4.35,30.73c0,.42,0,.84,0,1.26,0,.24.09.34.33.34.84,0,1.69,0,2.53,0,.23,0,.35-.09.35-.33,0-.85,0-1.71,0-2.56,0-.22-.1-.32-.32-.32-.85,0-1.71,0-2.56,0-.24,0-.33.11-.33.34,0,.42,0,.84,0,1.26Z"/>
      <path class="cls-1" d="M12.96,33.42c-.5,0-1.01,0-1.51,0-.68-.01-1.12-.41-1.13-1.09-.02-1.07-.02-2.13,0-3.2.01-.62.39-1.03,1-1.07,1.12-.06,2.25-.07,3.38,0,.62.04.99.48.99,1.11.01,1.03.01,2.06,0,3.1,0,.72-.43,1.14-1.15,1.15-.53,0-1.06,0-1.58,0ZM11.39,30.76c0,.41,0,.82,0,1.23,0,.23.09.35.33.35.85,0,1.69,0,2.54,0,.23,0,.34-.1.34-.34,0-.85,0-1.69,0-2.54,0-.23-.09-.34-.33-.34-.85,0-1.69,0-2.54,0-.27,0-.35.12-.34.37,0,.42,0,.85,0,1.27Z"/>
      <path class="cls-1" d="M13.01,26.38c-.53,0-1.06,0-1.58,0-.66-.01-1.1-.41-1.12-1.06-.02-1.08-.02-2.16,0-3.24.01-.62.4-1.01,1.02-1.04,1.11-.06,2.23-.06,3.34,0,.63.04,1,.45,1.01,1.09.02,1.06.02,2.11,0,3.17-.01.67-.45,1.08-1.12,1.09-.52,0-1.03,0-1.55,0ZM13,22.08c-.42,0-.84,0-1.27,0-.24,0-.34.09-.34.33,0,.84,0,1.69,0,2.53,0,.25.11.36.36.36.83,0,1.66,0,2.5,0,.25,0,.36-.11.36-.36,0-.84,0-1.69,0-2.53,0-.24-.1-.34-.34-.33-.42,0-.84,0-1.27,0Z"/>
      <path class="cls-1" d="M20.01,26.38c-.5,0-1.01,0-1.51,0-.72,0-1.14-.42-1.15-1.14-.01-1.03-.01-2.07,0-3.1,0-.65.38-1.07,1.03-1.11,1.1-.06,2.21-.06,3.31,0,.64.03,1.01.43,1.03,1.07.02,1.06.02,2.11,0,3.17-.02.7-.45,1.09-1.16,1.1-.52,0-1.03,0-1.55,0ZM20.04,22.08c-.42,0-.84,0-1.27,0-.24,0-.34.09-.34.33,0,.84,0,1.69,0,2.53,0,.25.11.36.36.36.83,0,1.66,0,2.5,0,.25,0,.36-.1.36-.36,0-.84,0-1.69,0-2.53,0-.24-.1-.34-.34-.33-.42,0-.84,0-1.27,0Z"/>
      <path class="cls-1" d="M5.96,26.38c-.52,0-1.03,0-1.55,0-.66,0-1.1-.36-1.12-1.02-.04-1.1-.04-2.21,0-3.31.02-.63.4-.99,1.04-1.02,1.1-.05,2.21-.06,3.31,0,.63.04,1,.45,1.01,1.09.01,1.05.01,2.09,0,3.14,0,.69-.44,1.11-1.14,1.11-.52,0-1.03,0-1.55,0ZM5.95,22.08c-.42,0-.84,0-1.27,0-.24,0-.34.09-.34.33,0,.84,0,1.69,0,2.53,0,.26.11.36.36.36.83,0,1.66,0,2.5,0,.25,0,.36-.11.36-.36,0-.83,0-1.66,0-2.5,0-.28-.12-.37-.38-.37-.41.01-.82,0-1.23,0Z"/>
      <path class="cls-1" d="M13.01,14c.53,0,1.06,0,1.59,0,.63,0,1.07.39,1.09,1.01.03,1.1.03,2.21,0,3.31-.02.62-.46,1.01-1.08,1.01-1.06,0-2.11,0-3.17,0-.65,0-1.09-.39-1.1-1.03-.03-1.09-.03-2.18,0-3.28.02-.65.46-1.02,1.1-1.03.53,0,1.06,0,1.59,0ZM12.96,18.29c.43,0,.87,0,1.3,0,.24,0,.34-.1.34-.34,0-.87,0-1.74,0-2.61,0-.22-.1-.32-.32-.32-.86,0-1.71,0-2.57,0-.22,0-.32.1-.32.32,0,.87,0,1.74,0,2.61,0,.24.1.34.34.34.41,0,.82,0,1.23,0Z"/>
      <path class="cls-1" d="M20.01,19.33c-.52,0-1.03,0-1.55,0-.65,0-1.09-.39-1.11-1.03-.03-1.09-.02-2.18,0-3.28.01-.64.46-1.03,1.1-1.03,1.05,0,2.09,0,3.14,0,.67,0,1.11.38,1.13,1.04.03,1.08.03,2.16,0,3.24-.02.67-.45,1.04-1.12,1.05-.02,0-.05,0-.07,0-.5,0-1.01,0-1.51,0ZM18.43,16.65c0,.42,0,.85,0,1.27,0,.27.09.38.37.38.82-.01,1.64-.01,2.47,0,.27,0,.38-.09.38-.37,0-.85,0-1.69,0-2.54,0-.25-.09-.36-.35-.36-.83,0-1.67.01-2.5,0-.28,0-.37.12-.36.38.01.41,0,.82,0,1.23Z"/>
      <path class="cls-1" d="M5.95,19.33c-.49,0-.99,0-1.48,0-.77,0-1.17-.39-1.2-1.16-.02-.52,0-1.03,0-1.55,0-.48,0-.96,0-1.44.02-.8.42-1.18,1.21-1.18,1.01,0,2.02,0,3.03,0,.72,0,1.13.41,1.14,1.14,0,1.02,0,2.04,0,3.06,0,.72-.42,1.13-1.15,1.13-.52,0-1.03,0-1.55,0ZM4.35,16.64c0,.45,0,.89,0,1.34,0,.22.08.32.31.32.86,0,1.71,0,2.57,0,.24,0,.34-.1.34-.34,0-.86,0-1.71,0-2.57,0-.25-.09-.36-.35-.36-.84,0-1.69,0-2.53,0-.24,0-.34.1-.33.34,0,.42,0,.84,0,1.27Z"/>
      <path class="cls-1" d="M27.06,14c.53,0,1.06,0,1.58,0,.62,0,1.04.32,1.08.92.09,1.16.09,2.32,0,3.48-.05.61-.46.93-1.08.93-1.06,0-2.11,0-3.17,0-.66,0-1.08-.42-1.09-1.08-.01-1.06-.01-2.11,0-3.17,0-.66.43-1.07,1.08-1.09.02,0,.05,0,.07,0,.5,0,1.01,0,1.51,0ZM28.68,16.7c0-.42-.01-.84,0-1.27,0-.28-.08-.4-.38-.4-.82.01-1.64.01-2.46,0-.27,0-.38.1-.38.37,0,.84,0,1.69,0,2.53,0,.25.09.36.35.36.84,0,1.69,0,2.53,0,.24,0,.34-.1.33-.34,0-.42,0-.84,0-1.27Z"/>
    </g>
  </g>
</svg>