<svg id="Layer_1" data-name="Layer 1" xmlns="http://www.w3.org/2000/svg" viewBox="0 0 17.67 18.08"><defs><style>.cls-1{fill:#e21c24;}</style></defs><title>icon</title><path class="cls-1" d="M13.47,5.5a.88.88,0,0,1-1.14-.09l-.24.2c-.34.28-.58.24-.8-.14L11,5c-.43.13-.83.37-1.23,0a2.07,2.07,0,0,0-.52,1,13.64,13.64,0,0,1-.74,2.43,9,9,0,0,1-3,4,12.14,12.14,0,0,1-2.66,1.36,3.33,3.33,0,0,0-.5.25.24.24,0,0,0-.11.19c0,.06.1.13.17.15a4.68,4.68,0,0,0,.75.11,10.91,10.91,0,0,0,4.16-.59,9.11,9.11,0,0,0,6.34-7,2,2,0,0,0-.17-1.34"/><path class="cls-1" d="M10.35,4.92a2.52,2.52,0,0,0,.47-.13c.26-.09.36-.07.5.18l.23.43c.08.14.18.16.31,0l.3-.25c.13-.11.24-.14.38,0a.57.57,0,0,0,.82,0c.09-.09.1-.17,0-.26l-.52-.4a.78.78,0,0,1-.27-.73c0-.5.09-1,.13-1.49h0c0-.12,0-.25,0-.37a7.39,7.39,0,0,0-.14-.82c0-.18-.14-.2-.3-.1a1.31,1.31,0,0,0-.53.61.57.57,0,0,0,.05.59A1.48,1.48,0,0,1,12,3.2c0,.69-.21.86-.88,1a7,7,0,0,0-.87.23.28.28,0,0,0-.19.34c0,.17.18.18.31.16"/></svg>