<svg id="Layer_1" data-name="Layer 1" xmlns="http://www.w3.org/2000/svg" viewBox="0 0 37.09 19.39"><defs><style>.cls-1{fill:#e21c24;}</style></defs><title>icon</title><path class="cls-1" d="M14.55,6.19a.88.88,0,0,1-1.15-.1c-.09.08-.16.15-.24.21-.33.28-.58.24-.8-.14L12.1,5.7c-.42.12-.83.37-1.23-.06a2.22,2.22,0,0,0-.51,1,14.84,14.84,0,0,1-.75,2.43,9,9,0,0,1-3,4A12.14,12.14,0,0,1,3.9,14.41a2.6,2.6,0,0,0-.5.25.24.24,0,0,0-.1.19c0,.06.09.13.16.15a4.85,4.85,0,0,0,.75.11,11.08,11.08,0,0,0,4.16-.59,9.11,9.11,0,0,0,6.34-7,2,2,0,0,0-.16-1.34"/><path class="cls-1" d="M11.43,5.61a2.64,2.64,0,0,0,.46-.13c.27-.1.36-.07.5.18l.24.43c.08.13.18.16.3,0l.3-.25c.13-.11.24-.14.38,0a.57.57,0,0,0,.82,0c.09-.1.11-.18,0-.26s-.35-.26-.51-.4a.79.79,0,0,1-.28-.74c.05-.49.09-1,.13-1.49h0a2.29,2.29,0,0,0,0-.37,7.56,7.56,0,0,0-.14-.83c-.05-.17-.14-.19-.3-.09a1.31,1.31,0,0,0-.53.61.62.62,0,0,0,.05.59,1.48,1.48,0,0,1,.24.94c0,.69-.2.86-.88,1a6.42,6.42,0,0,0-.86.23.29.29,0,0,0-.2.34c0,.17.19.18.32.16"/><path class="cls-1" d="M24.05,6.19a.87.87,0,0,1-1.14-.1l-.24.21c-.34.28-.58.24-.8-.14l-.26-.46c-.42.12-.83.37-1.23-.06a2.35,2.35,0,0,0-.52,1,13.89,13.89,0,0,1-.74,2.43,9,9,0,0,1-3.05,4,12.14,12.14,0,0,1-2.66,1.36,2.6,2.6,0,0,0-.5.25.23.23,0,0,0-.11.19c0,.06.1.13.17.15a4.85,4.85,0,0,0,.75.11,11.08,11.08,0,0,0,4.16-.59,9.11,9.11,0,0,0,6.34-7,1.91,1.91,0,0,0-.17-1.34"/><path class="cls-1" d="M20.94,5.61a2.64,2.64,0,0,0,.46-.13c.26-.1.36-.07.5.18l.24.43a.17.17,0,0,0,.3,0l.3-.25c.13-.11.24-.14.38,0a.57.57,0,0,0,.82,0c.09-.1.1-.18,0-.26l-.52-.4a.81.81,0,0,1-.27-.74c.05-.49.09-1,.13-1.49h0c0-.12,0-.25,0-.37a7.56,7.56,0,0,0-.14-.83c-.05-.17-.14-.19-.3-.09a1.31,1.31,0,0,0-.53.61.62.62,0,0,0,.05.59,1.48,1.48,0,0,1,.24.94c0,.69-.2.86-.88,1a7,7,0,0,0-.87.23.28.28,0,0,0-.19.34c0,.17.18.18.32.16"/><path class="cls-1" d="M33.56,6.19a.87.87,0,0,1-1.14-.1l-.24.21c-.34.28-.58.24-.8-.14l-.26-.46c-.43.12-.83.37-1.23-.06a2.15,2.15,0,0,0-.52,1,13.89,13.89,0,0,1-.74,2.43,9,9,0,0,1-3.05,4,12.14,12.14,0,0,1-2.66,1.36,2.6,2.6,0,0,0-.5.25.23.23,0,0,0-.11.19c0,.06.1.13.17.15a4.68,4.68,0,0,0,.75.11,11.11,11.11,0,0,0,4.16-.59,9.11,9.11,0,0,0,6.34-7,2,2,0,0,0-.17-1.34"/><path class="cls-1" d="M30.44,5.61a2.52,2.52,0,0,0,.47-.13c.26-.1.36-.07.5.18l.23.43a.18.18,0,0,0,.31,0l.3-.25c.13-.11.24-.14.38,0a.57.57,0,0,0,.82,0c.09-.1.1-.18,0-.26l-.52-.4a.79.79,0,0,1-.27-.74c0-.49.09-1,.13-1.49h0c0-.12,0-.25,0-.37a7.56,7.56,0,0,0-.14-.83c0-.17-.14-.19-.3-.09a1.31,1.31,0,0,0-.53.61.57.57,0,0,0,0,.59,1.48,1.48,0,0,1,.24.94c0,.69-.21.86-.88,1a7,7,0,0,0-.87.23.28.28,0,0,0-.19.34c0,.17.18.18.31.16"/></svg>