<svg xmlns="http://www.w3.org/2000/svg" viewBox="0 0 71 68"><defs><style>.cls-1{fill:none;}.cls-2{fill:#ffd674;}</style></defs><title>x</title><g id="ioS"><g id="Artboard_4" data-name="Artboard 4"><g id="Phone"><rect id="Rectangle_320" data-name="Rectangle 320" class="cls-1" x="19.41" y="10.67" width="40.24" height="40.24"/><path id="Path_110" data-name="Path 110" class="cls-2" d="M43.16,39.22l4.38-4a1.36,1.36,0,0,1,1.1-.37l.73.37L59.59,40c.73.36.73.73.73,1.46A9.2,9.2,0,0,1,57.4,48a10.45,10.45,0,0,1-7.67,2.92A22.28,22.28,0,0,1,39.5,48.35a47.82,47.82,0,0,1-10.22-7.3,60.94,60.94,0,0,1-5.48-8,50.12,50.12,0,0,1-3.66-8A22.54,22.54,0,0,1,19.41,18,9.58,9.58,0,0,1,22,12.56,11.07,11.07,0,0,1,28.91,10a1.9,1.9,0,0,1,1.46.73L35.85,21a1.31,1.31,0,0,0,.37.74,1.33,1.33,0,0,1-.37,1.09L31.1,27.17a1.63,1.63,0,0,0,0,1.82,34.79,34.79,0,0,0,4.39,5.85,36.45,36.45,0,0,0,5.83,4.75C42.06,40,42.79,40,43.16,39.22Z"/></g></g></g></svg>