<svg id="Layer_1" data-name="Layer 1" xmlns="http://www.w3.org/2000/svg" xmlns:xlink="http://www.w3.org/1999/xlink" viewBox="0 0 20.51 19.05"><defs><style>.cls-1{fill:none;}.cls-2{clip-path:url(#clip-path);}.cls-3{fill:#fff;}.cls-4{fill:#ffb300;}</style><clipPath id="clip-path"><rect class="cls-1" x="-139.62" y="-284.31" width="638.84" height="255.44"/></clipPath></defs><title>icon</title><g class="cls-2"><path class="cls-3" d="M40.23,8.25a244.08,244.08,0,0,1-7.31-29.57A156.29,156.29,0,0,1,30.6-42.49c-.31-8.1.09-16.21.5-24.31.63-12.73,2.1-25.76,1.92-38.5-.08-5.63-1.64-11.23-2.91-16.61-1.18-5-4-9.69-8.18-12.22a28.69,28.69,0,0,0-6-2.5C10.65-138.36,6.73-139.26,4-143a21.49,21.49,0,0,1-9.1,4.6,24.07,24.07,0,0,1-8.07,2.11l0,.09-.76,0a23.49,23.49,0,0,1-3.55-.09,24.19,24.19,0,0,1-6.13-1.51c-1.62-.63-3.31-1-4.9-1.71a15.6,15.6,0,0,0-3.93-1.72c-1.7-.27-2.85.76-4.3,1.59l-10.13,5.76a28.86,28.86,0,0,0-6.1,4.2c-2.75,2.71-2.67,4.9-2.46,8.27.12,2,0,4.07.12,6.08.06,1.47.68,4.81-.19,6.09l3.18-4.71c-1,8.28-1.42,16.78-2,24.87-1.14,15.93-1,32.17-2.35,48C-58-26.3-60-11-66.95,2.13a2.36,2.36,0,0,0-.37,2.06,2,2,0,0,0,.69.7A47.12,47.12,0,0,0-50.3,12.35c4.31,1,7.23-1.79,11.4-1,5.45,1,10.72,2.17,16.28,2.17,13.58,0,26.64-.21,40.15-2.4C21.81,10.39,27,8.49,31.28,9,32,9,41,10.85,40.23,8.25Z"/></g><polygon class="cls-4" points="10.72 -0.23 13.26 4.91 18.93 5.73 14.83 9.73 15.8 15.38 10.72 12.71 5.65 15.38 6.62 9.73 2.52 5.73 8.19 4.91 10.72 -0.23"/></svg>