<svg id="Layer_1" data-name="Layer 1" xmlns="http://www.w3.org/2000/svg" xmlns:xlink="http://www.w3.org/1999/xlink" viewBox="0 0 22.69 23.13"><defs><style>.cls-1{fill:none;}.cls-2{clip-path:url(#clip-path);}.cls-3{fill:#ea9c7d;}.cls-4{fill:#fff;}</style><clipPath id="clip-path"><rect class="cls-1" x="-169.07" y="-277.93" width="638.84" height="255.44"/></clipPath></defs><title>icon</title><g class="cls-2"><path class="cls-3" d="M6.59-53.11s1.23,6.37,1.29,6.76c.67,4.51.64,9.6,2.27,13.86,1.83,4.77,1.47,10.58,1.54,15.61A149.24,149.24,0,0,1,10.92.68a97.1,97.1,0,0,0,14.8,2.18c4.84.23,4-2.48,5-6.07A116.27,116.27,0,0,0,35-29.84c.4-10.19-4.33-19.91-6.45-29.85C27.67-63.77,6.59-53.11,6.59-53.11Z"/><path class="cls-4" d="M10.77,14.63A246,246,0,0,1,3.46-14.94,159.56,159.56,0,0,1,1.14-36.11c-.31-8.1.1-16.21.5-24.31.64-12.73,2.1-25.76,1.93-38.5-.08-5.63-1.65-11.23-2.91-16.61-1.19-5-4-9.69-8.18-12.22a29.14,29.14,0,0,0-6-2.5c-5.27-1.73-9.2-2.63-12-6.39a21.45,21.45,0,0,1-9.09,4.6,24.12,24.12,0,0,1-8.08,2.11l0,.09-.76,0A23.56,23.56,0,0,1-47-130a24.3,24.3,0,0,1-6.13-1.51c-1.62-.63-3.3-1-4.89-1.71a15.51,15.51,0,0,0-3.94-1.72c-1.7-.27-2.84.76-4.3,1.59l-10.12,5.76a28.86,28.86,0,0,0-6.1,4.2c-2.75,2.71-2.68,4.9-2.47,8.27.13,2,0,4.07.12,6.08.07,1.47.68,4.81-.18,6.09l3.17-4.71c-1,8.28-1.42,16.78-2,24.87-1.13,15.93-1,32.17-2.35,48-1.3,14.87-3.31,30.2-10.24,43.3a2.42,2.42,0,0,0-.37,2.06,2.1,2.1,0,0,0,.69.7,47.08,47.08,0,0,0,16.34,7.46c4.31,1,7.22-1.79,11.4-1,5.44,1,10.72,2.17,16.27,2.17,13.59,0,26.65-.21,40.15-2.4,4.29-.7,9.45-2.6,13.76-2.14C2.58,15.41,11.57,17.23,10.77,14.63Z"/></g><polygon class="cls-4" points="11.47 2.96 14.03 8.15 19.75 8.98 15.61 13.02 16.59 18.72 11.47 16.02 6.35 18.72 7.33 13.02 3.19 8.98 8.91 8.15 11.47 2.96"/></svg>