<?xml version="1.0" encoding="UTF-8"?>
<svg id="Layer_2" data-name="Layer 2" xmlns="http://www.w3.org/2000/svg" viewBox="0 0 39.35 33.1">
  <defs>
    <style>
      .cls-1 {
        fill: #fff;
      }
    </style>
  </defs>
  <g id="Layer_1-2" data-name="Layer 1">
    <g>
      <g>
        <path class="cls-1" d="M22.04,20.74c-.33-.1-.66-.19-.98-.31.42-.15.85-.28,1.27-.4.18-.4.4-.78.63-1.14-.84.19-1.67.42-2.49.72-.31.12-.31.12-.31-.21,0-1.35,0-2.71,0-4.06s0-2.69,0-4.04c0-.16,0-.31-.11-.44-.14-.15-.32-.19-.5-.13-.19.06-.3.21-.3.42,0,.49,0,.99,0,1.48,0,.19-.02.27-.24.2-1.93-.61-3.29-2.42-3.36-4.44-.05-1.27.25-2.44,1-3.46,1.36-1.85,3.85-2.35,5.83-1.19.07.04.14.09.21.12.23.1.44.06.58-.15.14-.21.13-.44-.07-.59-.21-.17-.14-.28,0-.43.92-1.01,2.04-1.61,3.42-1.72,1.38-.11,2.61.26,3.65,1.19,1.06.95,1.45,2.17,1.31,3.56-.03.26-.09.52-.13.78-.06.32.06.55.31.61.29.07.51-.07.6-.41.28-1.04.24-2.08-.1-3.11-.09-.26,0-.33.23-.38,2.27-.47,4.42.66,5.43,2.88,1.22,2.67.03,5.61-2.68,6.6-.37.13-.38.13-.38-.27,0-.35,0-.7,0-1.04,0-.12,0-.24-.04-.35-.06-.23-.23-.34-.47-.33-.23.01-.37.15-.42.37-.02.11-.02.22-.02.33,0,1.51,0,3.02,0,4.53.33.15.65.32.95.5,0-.76,0-1.51,0-2.27,0-.27.08-.39.35-.46.37-.09.73-.25,1.06-.44,1.93-1.09,3.04-2.71,3.08-4.94.03-1.72-.62-3.23-1.82-4.46-1.49-1.53-3.33-1.97-5.39-1.53-.3.06-.46.02-.62-.24-.31-.48-.74-.86-1.22-1.17-2.53-1.67-6.14-1.05-8.02,1.38-.12.16-.23.19-.41.13-.58-.19-1.17-.28-1.74-.3-.43,0-.81.05-1.18.14-1.68.42-2.85,1.47-3.58,3-.94,1.97-.98,3.96.14,5.89.77,1.33,1.99,2.12,3.42,2.6.24.08.33.18.33.44-.01,1.8,0,3.61,0,5.41q0,1.08,1,1.5c.5.21,1,.39,1.51.55.08-.32.18-.63.29-.93Z"/>
        <g>
          <path class="cls-1" d="M23.12,29.8h-.52v-.84c-.56-1.02-.91-2.16-1.07-3.33v4.17h-2.88v-5.26s-.17-.3-.2-.33c-.11-.1-.23-.09-.36-.11-1.81-.17-3.87.13-5.71,0-.11-.05-.43.28-.43.31v5.4h-2.88V2.57l5.67,2.36c.07-.39.17-.77.29-1.15-2.02-.89-4.04-1.76-6.08-2.48-.32-.11-.53-.24-.83.01-.04.04-.2.24-.2.27v9.76H2.72s-.37.27-.37.3v18.14H.38c-.35,0-.71,1.03.2,1.14h23.53c-.36-.35-.69-.73-.98-1.14ZM7.92,29.8H3.43V12.5h4.49v17.3ZM17.51,29.8h-4.49v-4.63h4.49v4.63Z"/>
          <path class="cls-1" d="M17.24,14.19c-1.52.02-3.15-.16-4.59-.01-.94.09-.94,1.05-.2,1.14,1.75.21,3.91-.16,5.7,0,.09,0,.19-.05.27-.11-.43-.31-.82-.65-1.18-1.02Z"/>
          <path class="cls-1" d="M18.49,19.25c-.07.08-.23.15-.34.16-1.8-.16-3.95.2-5.7,0-.77-.09-.62-1.14.14-1.14,1.7.14,3.7-.19,5.36,0,.54.06.97.53.55.98Z"/>
          <path class="cls-1" d="M14.61,10.16h-2.35c-.46.24-.44.88.05,1.06h2.75s-.33-.57-.46-1.06Z"/>
        </g>
      </g>
      <g>
        <g>
          <path class="cls-1" d="M31.41,15.93l1.1.18c6.82,1.49,9.09,10.28,3.67,14.84-4.93,4.15-12.46,1.52-13.83-4.69l-.18-1.1c.02-.48-.03-.99,0-1.46.28-4,3.78-7.5,7.78-7.78h1.46ZM30.24,16.81c-5.99.34-9.29,7.21-5.77,12.1,3.52,4.89,11.09,3.95,13.32-1.63,2.07-5.2-1.98-10.79-7.55-10.47Z"/>
          <path class="cls-1" d="M30.72,33.1c-.94,0-1.88-.15-2.8-.47-2.9-.99-5.03-3.35-5.68-6.33l-.18-1.1c.01-.25,0-.49,0-.71,0-.26-.02-.52,0-.78.28-4.07,3.82-7.61,7.9-7.9h1.48s.01,0,.01,0l1.1.18c3.23.71,5.73,3.16,6.54,6.4.81,3.27-.24,6.51-2.8,8.67-1.59,1.34-3.55,2.04-5.54,2.04ZM29.95,16.06c-3.94.27-7.38,3.71-7.66,7.66-.02.24,0,.5,0,.75,0,.23.01.47,0,.71l.18,1.07c.63,2.88,2.7,5.18,5.52,6.14,2.81.95,5.84.38,8.11-1.53,2.49-2.1,3.51-5.24,2.72-8.42-.78-3.15-3.21-5.52-6.34-6.21l-1.08-.18h-1.45ZM30.64,32.21c-2.49,0-4.78-1.16-6.27-3.23-1.68-2.33-1.94-5.28-.69-7.88,1.24-2.61,3.7-4.26,6.56-4.42h0c2.65-.15,5.19,1.06,6.75,3.23,1.56,2.17,1.9,4.94.92,7.42-1.06,2.67-3.41,4.47-6.28,4.82-.33.04-.67.06-.99.06ZM30.25,16.93c-2.77.16-5.14,1.76-6.35,4.28-1.2,2.52-.95,5.37.67,7.63,1.62,2.26,4.25,3.41,7.03,3.06,2.77-.34,5.05-2.08,6.07-4.67.95-2.4.62-5.08-.89-7.18-1.51-2.1-3.95-3.27-6.54-3.12h0Z"/>
        </g>
        <g>
          <path class="cls-1" d="M31.11,24.01h2.68c.14,0,.31.28.32.42,0,.15-.17.45-.32.45h-2.68v2.68c0,.14-.28.31-.42.32-.15,0-.45-.17-.45-.32v-2.68h-2.68c-.15,0-.32-.3-.32-.45,0-.14.18-.42.32-.42h2.68v-2.68c0-.14.28-.31.42-.32.15,0,.45.17.45.32v2.68Z"/>
          <path class="cls-1" d="M30.69,28c-.13,0-.33-.09-.45-.2-.08-.08-.12-.16-.12-.24v-2.55h-2.55c-.08,0-.16-.04-.24-.12-.12-.12-.21-.32-.2-.46,0-.18.21-.54.44-.54h2.55v-2.55c0-.23.36-.44.54-.44.13,0,.34.09.46.2.08.08.12.16.12.24v2.55h2.55c.23,0,.44.36.44.54,0,.13-.09.33-.2.46-.08.08-.16.12-.24.12h-2.55v2.55c0,.23-.36.44-.54.44h0ZM30.25,24.75h.12v2.8c0,.06.21.19.31.19h0c.09,0,.28-.14.3-.19v-2.8h2.8c.06,0,.2-.21.19-.32,0-.09-.14-.28-.19-.3h-2.8v-2.8c0-.06-.21-.19-.31-.19h0c-.09,0-.28.14-.3.19v2.8h-2.8c-.06.01-.19.2-.19.3,0,.1.13.31.19.32h2.68Z"/>
        </g>
      </g>
    </g>
  </g>
</svg>