<?xml version="1.0" encoding="UTF-8"?>
<svg id="Layer_2" data-name="Layer 2" xmlns="http://www.w3.org/2000/svg" viewBox="0 0 40.06 33.87">
  <defs>
    <style>
      .cls-1 {
        fill: #192754;
      }
    </style>
  </defs>
  <g id="Layer_1-2" data-name="Layer 1">
    <g>
      <g>
        <g>
          <path class="cls-1" d="M29.72,9.54l1.44.24c8.94,1.95,11.91,13.47,4.81,19.45-6.46,5.44-16.33,2-18.12-6.14l-.24-1.44c.03-.63-.04-1.29,0-1.92.36-5.25,4.95-9.83,10.19-10.19h1.92ZM28.19,10.69c-7.84.44-12.18,9.44-7.56,15.86,4.61,6.41,14.54,5.18,17.45-2.14,2.71-6.82-2.6-14.13-9.89-13.72Z"/>
          <path class="cls-1" d="M28.81,31.99c-1.22,0-2.46-.2-3.66-.61-3.79-1.29-6.57-4.38-7.42-8.26l-.24-1.44c.01-.32,0-.63,0-.93,0-.34-.02-.68,0-1.02.37-5.32,4.99-9.94,10.31-10.31h1.95s1.44.24,1.44.24c4.22.92,7.48,4.12,8.53,8.35,1.06,4.27-.31,8.5-3.66,11.32-2.08,1.75-4.63,2.66-7.24,2.66ZM27.81,9.67c-5.19.36-9.71,4.88-10.07,10.08-.02.32-.01.66,0,.99,0,.3.02.62,0,.92l.24,1.41c.83,3.79,3.55,6.82,7.26,8.07,3.7,1.25,7.68.5,10.66-2.01,3.27-2.76,4.61-6.89,3.58-11.07-1.02-4.14-4.22-7.26-8.34-8.16l-1.42-.24h-1.91ZM28.7,30.83c-3.25,0-6.24-1.52-8.18-4.21-2.19-3.04-2.53-6.89-.9-10.29,1.62-3.4,4.82-5.56,8.56-5.77v.12s0-.12,0-.12c3.47-.2,6.77,1.38,8.81,4.21,2.04,2.83,2.48,6.45,1.2,9.68-1.39,3.48-4.45,5.83-8.19,6.29-.44.05-.87.08-1.3.08ZM28.2,10.81c-3.64.21-6.77,2.31-8.35,5.63-1.58,3.31-1.25,7.06.88,10.03,2.14,2.97,5.59,4.48,9.24,4.03,3.65-.45,6.64-2.74,7.99-6.14,1.26-3.15.82-6.68-1.17-9.44-1.99-2.77-5.2-4.3-8.6-4.11h0Z"/>
        </g>
        <g>
          <path class="cls-1" d="M29.33,20.13h3.51c.18,0,.41.37.42.55,0,.19-.22.59-.42.59h-3.51v3.51c0,.18-.37.41-.55.42-.19,0-.59-.22-.59-.42v-3.51h-3.51c-.2,0-.42-.39-.42-.59,0-.18.23-.55.42-.55h3.51v-3.51c0-.18.37-.41.55-.42.19,0,.59.22.59.42v3.51Z"/>
          <path class="cls-1" d="M28.78,25.31c-.17,0-.41-.11-.56-.26-.09-.09-.14-.19-.14-.28v-3.38h-3.38c-.09,0-.19-.05-.28-.14-.15-.15-.26-.4-.26-.57,0-.21.27-.67.54-.67h3.38v-3.38c0-.27.45-.53.67-.54h.01c.17,0,.41.11.56.26.09.09.14.19.14.28v3.38h3.38c.27,0,.53.45.54.67,0,.17-.11.42-.26.57-.09.09-.19.14-.28.14h-3.38v3.38c0,.27-.45.53-.67.54h-.01ZM24.69,20.25c-.08,0-.29.28-.29.42,0,.09.08.28.19.39.05.05.09.07.1.07h3.63v3.63s.02.06.07.1c.11.11.3.19.39.19h0c.15,0,.43-.21.43-.29v-3.63h3.63s.06-.02.1-.07c.11-.11.19-.3.19-.39,0-.15-.21-.42-.29-.42h-3.63v-3.63s-.02-.06-.07-.1c-.11-.11-.3-.19-.39-.19h0c-.15,0-.42.21-.42.29v3.63h-3.63Z"/>
        </g>
      </g>
      <g>
        <path class="cls-1" d="M25.21,32c-.26.38-.64.71-.96.71h-3.11l.25-2.16c-.39-.25-.75-.53-1.09-.83l-.37,2.99H6.63s-1.09-9.21-1.09-9.21c-.02-.06.07-.16.1-.16h11.36c-.06-.39-.09-.77-.11-1.17H5.71c-.76.07-1.26.49-1.32,1.27.36,3.09.79,6.18,1.08,9.27h-3.11c-.68-.11-1.27-.92-1.26-1.6.7-2.68.89-5.77,1.65-8.4.16-.56.47-.89,1.02-1.1,1.67-.64,4.69-.8,5.94-2,.12-.12.2-.25.31-.38.85,2.63,4.22,3.32,5.98,1.13.25-.31.51-.72.55-1.13.17.14.31.29.46.42.07-.45.17-.88.28-1.32-.23-.22-.45-.44-.5-.54-.06-.13-.06-.57-.02-.7.04-.13.47-.37.6-.49,1.21-1.12,2.1-2.51,2.2-4.2,1.4-.35,2.11-1.84,1.55-3.17-.08-.19-.29-.4-.32-.57-.21-1.11.1-2.46-.2-3.77C19.53.16,14.82-.24,10.77.08c-.92.07-1.87.65-2.28,1.48-.09.18-.22.76-.29.81-.08.07-.55.15-.73.23-2.55,1.1-1.22,4.01-1.6,6-.03.16-.4.6-.48.89-.37,1.29.34,2.59,1.64,2.92.1,1.62.94,3.01,2.09,4.1.43.41.93.47.71,1.25-.03.1-.9,1.03-1.04,1.14-.92.76-4.08,1.14-5.41,1.64-1.01.38-1.48.97-1.76,2-.71,2.58-.91,5.46-1.62,8.06v1.09c.32,1.19,1.26,2.06,2.5,2.19h21.61c1.01-.11,1.88-.69,2.28-1.62.02-.04.02-.08.03-.12-.42-.02-.82-.07-1.22-.13ZM11.01,17.66c1.49.55,3.09.55,4.58,0,.35,3.81-4.93,3.79-4.58,0ZM6.98,4.98c0-.56.62-1.23,1.15-1.38.48-.14,1.07.07,1.22-.56.05-.2,0-.38.05-.57.14-.69.78-1.16,1.45-1.22,1.16-.1,3.96-.11,5.03.17,1.84.48,3.76,2.55,3.76,4.51v2.02c-.12-.08-.59-.05-.62-.07-.03-.03-.04-.67-.1-.89-.54-2.02-2.34-1.62-3.9-1.71-1.09-.06-2.18-.19-3.26-.37-.58-.09-1.23-.35-1.8-.32-1.47.07-1.92,2.06-2.11,3.22l-.86.13v-2.98ZM8.15,12.29c-.04-.27.06-.45-.11-.71-.28-.42-1.12-.09-1.48-.91-.36-.81.23-1.69,1.12-1.65.4.02.84.31,1.11-.18.17-.32.26-1.29.39-1.73.1-.35.34-1.21.73-1.32.32-.1,1.07.17,1.44.24,1.88.32,3.78.44,5.69.46,1.1.4.69,1.3.82,2.12.13.83,1.03.3,1.57.48.89.31,1.02,1.65.17,2.09-.42.22-1.01.08-1.11.66-.03.18,0,.35-.02.52-1.01,6.06-9.27,6.14-10.31-.07Z"/>
        <path class="cls-1" d="M13.3,26.25c2.39,0,2.32,3.6,0,3.59s-2.39-3.59,0-3.59ZM13.25,27.39c-.8.1-.76,1.28.05,1.29.92.01.78-1.4-.05-1.29Z"/>
      </g>
    </g>
  </g>
</svg>