<?xml version="1.0" encoding="UTF-8"?>
<svg id="Layer_2" data-name="Layer 2" xmlns="http://www.w3.org/2000/svg" viewBox="0 0 40.52 36.78">
  <defs>
    <style>
      .cls-1 {
        fill: #fff;
      }
    </style>
  </defs>
  <g id="Layer_1-2" data-name="Layer 1">
    <g>
      <g>
        <path class="cls-1" d="M36.93.12c-9.19-.16-18.43-.16-27.62,0-2.1.44-3.32,2.01-3.46,4.13-.2,3.02.03,6.41,0,9.49-.03,3.77-.05,7.6-.16,11.37-.02.7.02,1.4,0,2.1H.36c-.06,0-.28.33-.36.4v4.27l.18.73c.78,2.51,2.87,3.93,5.47,4.1,7.05-.21,14.24.26,21.27,0,2.14-.08,3.88-.49,5.21-2.3.42-.58,1.07-1.93,1.07-2.64v-1.82c-.21.02-.42.03-.64.03-.24,0-.47-.01-.7-.03v1.27c-.29,3.88-4.89,5.56-7.43,2.52-1.57-1.87-.66-3.74-.96-5.84-.02-.17-.28-.68-.43-.68H7.11c.02-2.86-.02-5.72,0-8.58.02-3.77.09-7.6.16-11.37.04-1.77-.5-4.2,1.16-5.32.13-.09,1-.49,1.09-.49h23.51c-.62.7-1.05,1.55-1.18,2.49v12.27c.23-.02.46-.03.7-.03.22,0,.43.01.64.03v-5.27h6.84c.1,0,.49-.42.44-.59-.31-3.71,1.43-9.11-3.54-10.22ZM22.05,28.55c-.09,2.46-.06,4.95,1.9,6.72H4.94c-1.51,0-3.6-2.18-3.6-3.67v-3.04h20.71ZM39.12,9.59h-5.93v-5.41c0-1.64,1.87-2.92,3.42-2.71,1.11.15,2.51,1.39,2.51,2.55v5.57Z"/>
        <path class="cls-1" d="M19.03,4.46c.23-.03.35.06.55.13,1.63.62,3.34,1.78,4.98,2.45.27.13.32.33.34.6.1,1.16.13,4.86-.14,5.87-.7,2.6-3.34,3.57-5.29,5.06-.21.13-.47.13-.69,0-2.08-1.57-5.19-2.78-5.43-5.79-.11-1.33-.12-3.82,0-5.14.03-.28.07-.47.34-.6l5.33-2.58ZM19.03,5.96l-4.29,2.12c.01,1.45-.15,2.95-.04,4.39.19,2.56,2.69,3.29,4.39,4.68,1.29-1,3.34-1.81,4.09-3.32.77-1.56.2-3.84.38-5.55l-.13-.26-4.14-2.03c-.08-.04-.17-.04-.26-.02Z"/>
        <path class="cls-1" d="M25.9,23.42l-14.55.02c-.7.25-.62,1.24.14,1.33l14.57-.04c-.09-.43-.15-.87-.17-1.31Z"/>
        <path class="cls-1" d="M26.36,20.41l-15.13.04c-.59.41-.39,1.25.35,1.3h14.42c.08-.46.2-.91.36-1.35Z"/>
        <path class="cls-1" d="M20.92,9.6c.64-.14,1.06.51.72,1.04l-2.85,2.84c-.19.08-.42.1-.61.02-.1-.05-1.57-1.51-1.62-1.62-.28-.65.35-1.3.98-.9.2.13.83.93.98.9.53-.34,1.92-2.17,2.4-2.27Z"/>
      </g>
      <g>
        <g>
          <path class="cls-1" d="M33.35,16.8l.81.14c5.07,1.11,6.75,7.63,2.73,11.02-3.66,3.08-9.25,1.13-10.27-3.48l-.14-.81c.02-.36-.02-.73,0-1.09.21-2.97,2.8-5.57,5.78-5.78h1.09ZM32.48,17.44c-4.44.25-6.9,5.35-4.28,8.98,2.61,3.63,8.24,2.94,9.89-1.21,1.54-3.86-1.47-8.01-5.6-7.77Z"/>
          <path class="cls-1" d="M32.83,29.57c-.7,0-1.4-.11-2.09-.35-2.17-.74-3.75-2.5-4.24-4.72l-.14-.82c0-.19,0-.36,0-.53,0-.19-.01-.39,0-.58.21-3.04,2.85-5.68,5.89-5.89h1.12s.81.14.81.14c2.41.53,4.28,2.35,4.88,4.77.6,2.44-.18,4.86-2.09,6.47-1.19,1-2.65,1.52-4.14,1.52ZM32.26,16.92c-2.91.2-5.45,2.74-5.65,5.66-.01.18,0,.37,0,.56,0,.17.01.35,0,.53l.13.79c.47,2.13,1.99,3.83,4.08,4.53,2.07.7,4.31.28,5.99-1.13,1.84-1.55,2.59-3.87,2.01-6.22-.57-2.32-2.37-4.08-4.68-4.58l-.8-.13h-1.08ZM32.77,28.91c-1.86,0-3.57-.87-4.68-2.41-1.25-1.74-1.45-3.94-.52-5.88.93-1.95,2.76-3.18,4.9-3.3h0c1.98-.1,3.87.79,5.04,2.41,1.16,1.62,1.42,3.69.68,5.53-.79,1.99-2.54,3.34-4.68,3.6-.25.03-.5.04-.74.04ZM32.49,17.57h0c-2.05.12-3.8,1.3-4.69,3.16-.89,1.86-.7,3.96.5,5.63,1.2,1.67,3.14,2.52,5.19,2.26,2.05-.25,3.72-1.54,4.48-3.44.7-1.77.46-3.75-.66-5.3-1.12-1.55-2.92-2.41-4.82-2.31Z"/>
        </g>
        <g>
          <path class="cls-1" d="M33.13,22.79h1.99c.1,0,.23.21.24.31,0,.11-.12.33-.24.33h-1.99v1.99c0,.1-.21.23-.31.24-.11,0-.33-.12-.33-.24v-1.99h-1.99c-.11,0-.24-.22-.24-.33,0-.1.13-.31.24-.31h1.99v-1.99c0-.1.21-.23.31-.24.11,0,.33.12.33.24v1.99Z"/>
          <path class="cls-1" d="M32.81,25.78c-.11,0-.26-.07-.36-.16-.08-.08-.1-.15-.1-.2v-1.86h-1.86s-.12-.02-.2-.1c-.1-.1-.16-.25-.16-.36,0-.14.16-.43.36-.43h1.86v-1.86c0-.2.29-.36.43-.36h0c.11,0,.26.07.36.16.08.08.1.15.1.2v1.86h1.86c.2,0,.36.29.36.43,0,.11-.07.26-.16.36-.08.08-.15.1-.2.1h-1.86v1.86c0,.2-.29.36-.43.36h0ZM32.48,23.31h.12v2.11s.15.11.2.11h0s.17-.08.19-.12v-2.1s2.11,0,2.11,0c.03-.01.11-.15.11-.2,0-.05-.08-.17-.12-.19h-2.1s0-2.11,0-2.11c-.01-.03-.15-.11-.2-.11h0s-.17.08-.19.12v2.1s-2.11,0-2.11,0c-.03.01-.11.14-.11.19,0,.05.08.19.12.2h1.98Z"/>
        </g>
      </g>
    </g>
  </g>
</svg>