<?xml version="1.0" encoding="UTF-8"?>
<svg id="Layer_2" data-name="Layer 2" xmlns="http://www.w3.org/2000/svg" viewBox="0 0 39.29 35.75">
  <defs>
    <style>
      .cls-1 {
        fill: #fff;
      }
    </style>
  </defs>
  <g id="Layer_1-2" data-name="Layer 1">
    <g>
      <path class="cls-1" d="M36.39,6.16c-2.37-2.43-5.3-3.13-8.58-2.43-.48.1-.72.03-.99-.38-.5-.76-1.18-1.36-1.94-1.87C20.86-1.16,15.12-.18,12.12,3.69c-.2.25-.36.31-.66.21-.92-.31-1.86-.45-2.77-.48-.68,0-1.28.08-1.88.23-2.67.67-4.53,2.35-5.69,4.78-1.5,3.14-1.57,6.3.22,9.37,1.23,2.12,3.16,3.38,5.44,4.13.38.13.52.29.52.7-.02,2.87-.01,5.74-.01,8.61q0,1.72,1.6,2.39c4.23,1.79,8.63,2.41,13.2,2.02.87-.07,1.73-.19,2.58-.34-.85-.29-1.59-.72-2.23-1.23-4.08.42-8.17-.08-12.25-1.56,3.3-1.18,6.61-1.73,9.91-1.68-.19-.49-.34-1-.45-1.52-3.56,0-7.02.65-10.39,1.91-.5.19-.5.19-.5-.34,0-2.16,0-4.31,0-6.47,0-2.14,0-4.28,0-6.42,0-.25,0-.5-.18-.7-.22-.25-.5-.3-.8-.2-.3.1-.48.33-.48.66,0,.79-.01,1.57,0,2.36,0,.3-.03.42-.39.31-3.07-.98-5.23-3.85-5.34-7.07-.07-2.02.39-3.88,1.59-5.51,2.16-2.94,6.13-3.75,9.28-1.9.11.07.22.14.34.19.37.16.7.09.93-.24.23-.33.2-.7-.11-.94-.34-.26-.23-.45,0-.69,1.47-1.6,3.25-2.57,5.44-2.74,2.2-.17,4.16.42,5.8,1.9,1.68,1.51,2.31,3.45,2.09,5.67-.04.42-.14.83-.21,1.25-.09.51.1.88.5.98.46.12.81-.11.95-.65.44-1.66.39-3.32-.15-4.94-.14-.42-.01-.52.36-.6,3.61-.75,7.03,1.05,8.64,4.59,1.95,4.25.05,8.92-4.26,10.51-.26.1-.4.14-.49.1.5.35.95.74,1.34,1.19.26-.11.52-.24.77-.38,3.07-1.73,4.84-4.32,4.91-7.87.05-2.73-.99-5.14-2.9-7.1Z"/>
      <g>
        <g>
          <path class="cls-1" d="M28.68,20.05l.99.17c6.18,1.35,8.23,9.31,3.33,13.44-4.46,3.76-11.29,1.38-12.52-4.24l-.17-.99c.02-.43-.03-.89,0-1.32.25-3.63,3.42-6.79,7.04-7.04h1.32ZM27.62,20.85c-5.42.31-8.41,6.53-5.23,10.96,3.18,4.43,10.05,3.58,12.06-1.48,1.88-4.71-1.8-9.77-6.83-9.48Z"/>
          <path class="cls-1" d="M28.05,35.61c-.85,0-1.71-.14-2.54-.42-2.63-.89-4.56-3.04-5.15-5.74l-.17-1c0-.23,0-.44,0-.65,0-.23-.01-.48,0-.71.26-3.69,3.47-6.91,7.16-7.16h1.35s.99.17.99.17c2.93.64,5.2,2.86,5.93,5.8.73,2.96-.22,5.9-2.54,7.86-1.44,1.21-3.22,1.85-5.03,1.85ZM27.35,20.18c-3.56.25-6.67,3.35-6.92,6.93-.02.22,0,.46,0,.68,0,.21.01.43,0,.64l.16.97c.57,2.61,2.44,4.68,4.99,5.55,2.54.86,5.28.35,7.33-1.38,2.25-1.9,3.17-4.74,2.46-7.61-.7-2.84-2.9-5-5.73-5.61l-.98-.16h-1.31ZM27.97,34.8c-2.26,0-4.34-1.06-5.68-2.93-1.52-2.12-1.76-4.79-.63-7.15,1.13-2.36,3.35-3.86,5.95-4.01v.12s0-.12,0-.12c2.41-.14,4.71.96,6.12,2.93,1.42,1.97,1.73,4.48.83,6.72-.96,2.42-3.09,4.05-5.69,4.37-.3.04-.6.06-.9.06ZM28.02,20.96c-.13,0-.26,0-.39.01-2.5.14-4.65,1.59-5.74,3.87-1.09,2.28-.86,4.85.61,6.89,1.47,2.04,3.84,3.07,6.35,2.77,2.51-.31,4.56-1.89,5.49-4.22.86-2.17.56-4.59-.8-6.49-1.29-1.79-3.33-2.84-5.52-2.84Z"/>
        </g>
        <g>
          <path class="cls-1" d="M28.41,27.37h2.42c.13,0,.28.25.29.38,0,.13-.15.41-.29.41h-2.42v2.42c0,.13-.25.28-.38.29-.13,0-.41-.15-.41-.29v-2.42h-2.42c-.14,0-.29-.27-.29-.41,0-.12.16-.38.29-.38h2.42v-2.42c0-.13.25-.28.38-.29.13,0,.41.15.41.29v2.42Z"/>
          <path class="cls-1" d="M28.02,30.99c-.12,0-.3-.08-.41-.19-.07-.07-.11-.15-.11-.22v-2.3h-2.3c-.08,0-.15-.04-.22-.11-.11-.12-.19-.3-.19-.42,0-.17.2-.5.41-.5h2.3v-2.3c0-.22.33-.41.5-.41.13,0,.31.08.42.19.07.07.11.15.11.22v2.3h2.3c.22,0,.41.33.41.5,0,.13-.08.31-.19.42-.07.07-.15.11-.22.11h-2.3v2.3c0,.22-.33.41-.5.41h-.01ZM27.62,28.03h.12v2.55c.01.05.2.17.28.16.07,0,.24-.11.26-.17v-2.54s2.55,0,2.55,0c.05-.01.17-.19.16-.28,0-.07-.11-.24-.17-.26h-2.54v-2.55c-.01-.05-.18-.16-.27-.16h0c-.07,0-.24.11-.26.17v2.54s-2.55,0-2.55,0c-.05.01-.16.18-.16.26,0,.09.11.26.17.28h2.42Z"/>
        </g>
      </g>
    </g>
  </g>
</svg>