<?xml version="1.0" encoding="UTF-8"?>
<svg id="Layer_2" data-name="Layer 2" xmlns="http://www.w3.org/2000/svg" viewBox="0 0 37.64 33.39">
  <defs>
    <style>
      .cls-1 {
        fill: #192754;
      }
    </style>
  </defs>
  <g id="Layer_1-2" data-name="Layer 1">
    <g>
      <g>
        <path class="cls-1" d="M22.22,30.58h-2.29v-5.63s-.18-.32-.22-.36c-.12-.1-.24-.1-.39-.11-1.94-.18-4.13.14-6.1,0-.12-.06-.46.3-.46.33v5.77h-3.08V1.49l13.33,5.55v11.23c.35-.26.74-.49,1.15-.69V6.4c0-.12-.32-.38-.45-.41C18.97,4.26,14.29,1.8,9.56.14c-.34-.12-.56-.25-.88.01-.05.04-.21.26-.21.29v10.43H2.91s-.39.29-.39.32v19.39H.4c-.38,0-.76,1.1.21,1.22h23.21c-.61-.33-1.14-.75-1.6-1.22ZM8.46,30.58H3.66V12.09h4.8v18.49ZM18.71,30.58h-4.8v-4.95h4.8v4.95Z"/>
        <path class="cls-1" d="M19.76,14.94c-.08.09-.25.16-.37.17-1.92-.17-4.22.22-6.1,0-.79-.09-.78-1.12.22-1.22,1.78-.18,3.85.13,5.66,0,.57,0,1.01.59.59,1.05Z"/>
        <path class="cls-1" d="M19.76,19.31c-.08.09-.25.16-.37.17-1.92-.17-4.22.22-6.1,0-.83-.1-.67-1.21.14-1.22,1.82.15,3.95-.2,5.73,0,.57.06,1.03.56.59,1.05Z"/>
        <path class="cls-1" d="M13.1,9.6l6.29-.02c.7.07.69,1.08,0,1.15h-6.23c-.53-.2-.55-.88-.06-1.13Z"/>
      </g>
      <g>
        <g>
          <path class="cls-1" d="M29.87,16.55l1.08.18c6.7,1.46,8.92,10.09,3.61,14.57-4.84,4.08-12.23,1.5-13.58-4.6l-.18-1.08c.02-.47-.03-.97,0-1.44.27-3.93,3.71-7.37,7.64-7.64h1.44ZM28.72,17.4c-5.88.33-9.12,7.07-5.67,11.88,3.45,4.8,10.89,3.88,13.07-1.6,2.03-5.11-1.95-10.59-7.41-10.28Z"/>
          <path class="cls-1" d="M29.19,33.39c-.92,0-1.85-.15-2.75-.46-2.85-.97-4.94-3.29-5.58-6.21l-.18-1.08c0-.25,0-.48,0-.7,0-.25-.02-.51,0-.76.28-4,3.75-7.48,7.75-7.75h1.46s.01,0,.01,0l1.08.18c3.17.69,5.63,3.1,6.42,6.28.79,3.21-.23,6.39-2.75,8.51-1.56,1.32-3.48,2-5.44,2ZM28.43,16.67c-3.87.27-7.24,3.64-7.51,7.52-.02.24,0,.49,0,.74,0,.23.01.47,0,.69l.18,1.05c.62,2.83,2.65,5.09,5.42,6.02,2.76.93,5.73.37,7.96-1.5,2.44-2.06,3.44-5.15,2.67-8.26-.76-3.09-3.15-5.42-6.22-6.09l-1.06-.18h-1.43ZM29.1,32.52c-2.45,0-4.7-1.14-6.15-3.17-1.65-2.29-1.9-5.18-.68-7.74,1.22-2.56,3.63-4.18,6.44-4.34h0c2.6-.15,5.09,1.04,6.63,3.17,1.53,2.13,1.87,4.85.9,7.28-1.04,2.62-3.35,4.39-6.16,4.73-.33.04-.65.06-.98.06ZM29.15,17.52c-.14,0-.28,0-.42.01h0c-2.72.15-5.05,1.72-6.23,4.2-1.18,2.47-.93,5.27.66,7.48,1.59,2.22,4.18,3.34,6.9,3,2.72-.33,4.95-2.05,5.96-4.58.94-2.35.61-4.98-.87-7.04-1.4-1.95-3.62-3.08-5.99-3.08Z"/>
        </g>
        <g>
          <path class="cls-1" d="M29.57,24.48h2.63c.14,0,.31.28.31.41,0,.15-.16.44-.31.44h-2.63v2.63c0,.14-.28.31-.41.31-.15,0-.44-.16-.44-.31v-2.63h-2.63c-.15,0-.32-.29-.31-.44,0-.13.18-.41.31-.41h2.63v-2.63c0-.14.28-.31.41-.31.15,0,.44.16.44.31v2.63Z"/>
          <path class="cls-1" d="M29.16,28.39c-.13,0-.32-.09-.44-.2-.08-.07-.12-.15-.12-.23v-2.5h-2.5c-.08,0-.16-.04-.24-.12-.12-.12-.21-.32-.2-.45,0-.17.21-.53.44-.53h2.5v-2.5c0-.23.35-.43.53-.44.13,0,.33.08.45.2.08.07.12.16.12.24v2.5h2.5c.23,0,.43.36.44.53,0,.13-.08.33-.2.45-.07.08-.16.12-.24.12h-2.5v2.5c0,.23-.35.43-.53.44h0ZM28.72,25.2h.12v2.75c0,.06.21.19.31.19h0c.09,0,.28-.13.29-.19v-2.75h2.75c.06,0,.19-.21.19-.31,0-.09-.13-.28-.19-.29h-2.75v-2.75c0-.06-.2-.19-.31-.19h0c-.09,0-.28.13-.29.19v2.75h-2.75c-.05.01-.18.2-.19.29,0,.1.13.3.19.31h2.63Z"/>
        </g>
      </g>
    </g>
  </g>
</svg>