<?xml version="1.0" encoding="UTF-8"?>
<svg id="Layer_2" data-name="Layer 2" xmlns="http://www.w3.org/2000/svg" viewBox="0 0 36.26 32.28">
  <defs>
    <style>
      .cls-1 {
        fill: #fff;
      }
    </style>
  </defs>
  <g id="Layer_1-2" data-name="Layer 1">
    <g>
      <path class="cls-1" d="M4.19,32.28c-1.67-.27-2.94-.92-3.7-2.05-.34-.51-.47-1.06-.49-1.62-.02-.82-.01-1.64,0-2.46,0-.54.24-.72.99-.73.94-.01,1.89-.02,2.83,0,.4,0,.52-.1.52-.38-.02-.83-.01-1.66,0-2.49,0-.38.25-.61.66-.61.43,0,.7.22.7.62,0,.81,0,1.62,0,2.42,0,.43,0,.44.6.44,6.62,0,13.24,0,19.86,0,1.41,0,1.49.05,1.49,1.06,0,.71,0,1.43,0,2.14,0,1.47,1.43,2.62,3.46,2.68,2,.06,3.58-1.01,3.72-2.45.01-.14,0-.27,0-.41,0-8.83,0-17.66,0-26.49,0-.12,0-.25,0-.4-.26.03-.39.15-.55.23-.64.33-1.27.66-1.91.99-.57.29-.73.29-1.28,0-.96-.49-1.92-.98-2.86-1.49-.24-.13-.4-.12-.64,0-.96.51-1.93,1.01-2.9,1.51-.5.26-.68.26-1.17,0-.98-.51-1.96-1.01-2.93-1.53-.23-.12-.39-.11-.61,0-.95.51-1.9,1-2.86,1.49-.57.29-.73.29-1.28,0-.93-.48-1.87-.96-2.79-1.46-.28-.15-.49-.15-.77,0-.93.5-1.88.99-2.82,1.47-.51.26-.7.26-1.21,0-.72-.37-1.44-.75-2.16-1.12-.09-.05-.18-.15-.29-.11-.15.05-.06.17-.07.26-.01.07,0,.15,0,.22,0,6.08,0,14.4,0,20.47,0,.53-.2.76-.67.77-.48,0-.7-.23-.7-.78,0-6.5,0-15.24,0-21.73,0-.06,0-.13,0-.19-.01-.23.08-.42.38-.52.29-.1.56-.05.82.08.95.5,1.92.98,2.86,1.5.34.19.58.18.91,0,.88-.48,1.78-.94,2.68-1.41.58-.3.77-.3,1.36,0,.93.48,1.87.96,2.79,1.46.26.14.44.13.69,0,.95-.51,1.9-1,2.86-1.49.49-.25.72-.26,1.22,0,.93.48,1.88.95,2.79,1.46.33.19.55.16.86-.01.87-.48,1.76-.93,2.65-1.38.66-.34.79-.34,1.47,0,.83.43,1.64.86,2.48,1.29.69.35.48.37,1.21,0,.86-.44,1.72-.89,2.58-1.34.28-.15.57-.26.92-.13.35.13.41.36.42.61,0,.06,0,.13,0,.19,0,9.2,0,18.39,0,27.59,0,1.49-.82,2.66-2.64,3.42-.48.2-1.02.29-1.55.4H4.19ZM27.78,31.3c-1.28-.94-1.61-2.04-1.54-3.24.02-.39,0-.78,0-1.17q0-.45-.62-.45c-6.48,0-12.95,0-19.43,0-1.42,0-2.85,0-4.27,0-.39,0-.5.09-.49.36.02.65,0,1.3.01,1.95,0,.54.24,1.03.68,1.47.78.78,1.88,1.09,3.17,1.09,7.36,0,14.72,0,22.08,0,.1,0,.2,0,.41-.01Z"/>
      <path class="cls-1" d="M16.45,6.12c2.4,0,4.79,0,7.19,0,.15,0,.29,0,.44,0,.39.03.69.22.69.47,0,.27-.2.46-.58.51-.18.03-.37.03-.56.03-4.79,0-9.58,0-14.37,0-.2,0-.41-.01-.6-.05-.34-.07-.51-.25-.49-.49.02-.26.23-.43.59-.47.16-.02.32-.01.48-.01,2.41,0,4.82,0,7.23,0Z"/>
      <path class="cls-1" d="M16.44,10.74c2.42,0,4.85,0,7.27,0,.16,0,.32,0,.48.02.35.05.57.22.57.49,0,.24-.19.42-.53.48-.22.04-.46.05-.69.05-4.73,0-9.46,0-14.2,0-.22,0-.44-.01-.65-.04-.36-.05-.56-.24-.54-.5.01-.27.24-.44.63-.48.14-.01.29,0,.43,0,2.41,0,4.82,0,7.23,0Z"/>
      <path class="cls-1" d="M16.48,15.41c2.42,0,4.85,0,7.27,0,.14,0,.29,0,.43.01.36.05.57.23.57.48,0,.26-.2.43-.56.48-.13.02-.26.01-.39.01-4.91,0-9.81,0-14.72,0-.12,0-.23,0-.35,0-.36-.04-.61-.25-.59-.5.02-.26.23-.43.59-.47.14-.02.29,0,.43,0,2.44,0,4.88,0,7.31,0Z"/>
      <path class="cls-1" d="M16.45,20.86c-2.42,0-4.85,0-7.27,0-.16,0-.32,0-.48-.01-.36-.05-.56-.23-.55-.49,0-.26.22-.43.58-.47.13-.02.26,0,.39,0,4.89,0,9.78,0,14.67,0,.13,0,.26,0,.39,0,.37.05.57.22.57.48,0,.26-.2.44-.56.49-.15.02-.32.01-.48.01-2.42,0-4.85,0-7.27,0Z"/>
      <path class="cls-1" d="M30.07,6.12c.52,0,1.04,0,1.56,0,.46,0,.76.2.79.47.02.27-.26.52-.7.53-1.11.04-2.23.05-3.34,0-.43-.02-.69-.25-.68-.51.01-.28.31-.48.76-.49.54,0,1.07,0,1.61,0Z"/>
      <path class="cls-1" d="M30.08,10.74c.52,0,1.04,0,1.56,0,.45,0,.76.2.78.47.02.27-.26.5-.71.52-1.1.05-2.2.05-3.3,0-.46-.02-.73-.25-.71-.52.02-.29.33-.47.81-.48.52,0,1.04,0,1.56,0Z"/>
      <path class="cls-1" d="M30.06,20.86c-.54,0-1.07,0-1.61,0-.45,0-.75-.21-.76-.48,0-.29.3-.5.77-.5,1.06,0,2.11,0,3.17,0,.47,0,.79.21.78.5,0,.29-.32.48-.8.49-.52,0-1.04,0-1.56,0Z"/>
      <path class="cls-1" d="M30.05,15.41c.54,0,1.07,0,1.61,0,.47,0,.79.22.77.51-.01.28-.31.48-.76.48-1.07,0-2.14,0-3.21,0-.45,0-.75-.21-.75-.49,0-.28.3-.49.74-.5.53,0,1.07,0,1.61,0Z"/>
    </g>
  </g>
</svg>