<?xml version="1.0" encoding="UTF-8"?>
<svg id="Layer_2" data-name="Layer 2" xmlns="http://www.w3.org/2000/svg" viewBox="0 0 40.16 39.07">
  <defs>
    <style>
      .cls-1 {
        fill: #fff;
      }
    </style>
  </defs>
  <g id="Layer_1-2" data-name="Layer 1">
    <g>
      <g>
        <path class="cls-1" d="M30.4,37.37c-.02-1.18-.02-3.39,0-6.11-.46-.07-.91-.16-1.33-.28v6.73H1.29V1.36h23.13v3.96c0,.18.5.68.68.68h3.96v6.71c.45-.13.93-.23,1.43-.3,0-3.38,0-5.93-.07-6.62-.03-.39-.12-.69-.36-1-1.16-1.51-3.2-2.93-4.44-4.44-.29-.25-.69-.35-1.08-.36H1.49C.64.07.09.53,0,1.4c.06,12.22-.1,24.46.08,36.67.19.66.83.99,1.48,1h27.38c.29.04.59-.1.84-.32.31-.04.61-.28.63-.62,0-.11-.01-.27-.02-.46.01-.11.01-.21,0-.3ZM25.71,2.32l2.4,2.4h-2.4v-2.4Z"/>
        <path class="cls-1" d="M3.24,7.47c.09-.09.36-.17.5-.18,1.83.13,3.89-.17,5.69,0,.33.03.64.15.68.52-.14,1.91.17,4.05,0,5.93-.06.63-.45.64-1,.68-1.38.1-3.76.11-5.13,0-.56-.05-.87-.16-.92-.76-.17-1.8.13-3.86,0-5.69.01-.13.1-.41.18-.5ZM8.82,8.57h-4.48v4.48h4.48v-4.48Z"/>
        <path class="cls-1" d="M3.51,16.75l5.99-.02c.28.02.59.22.6.52-.19,1.87.24,4.2,0,6.01-.03.26-.25.5-.52.52-1.89-.14-3.99.17-5.85,0-.48-.04-.64-.2-.68-.68-.17-1.83.13-3.91,0-5.77,0-.28.19-.51.46-.58ZM8.82,18.01h-4.48v4.48h4.48v-4.48Z"/>
        <path class="cls-1" d="M3.51,26.2l6.26.02c.14.13.33.26.33.47-.15,1.9.18,4.06,0,5.93-.04.44-.27.56-.68.6-1.41.13-4.28.13-5.69,0-.54-.05-.63-.26-.68-.76-.17-1.8.13-3.86,0-5.69,0-.28.19-.51.46-.58ZM8.82,27.46h-4.48v4.48h4.48v-4.48Z"/>
        <path class="cls-1" d="M12.06,10.38c-.37-.17-.17-.52.33-.55h12.57c.84.05.75.6-.08.64h-12.25c-.18,0-.44-.04-.57-.09Z"/>
        <path class="cls-1" d="M25.38,11.48c.36.21.06.54-.49.55h-12.33c-.81-.02-.96-.59-.08-.64h12.41c.15,0,.4.04.49.09Z"/>
        <path class="cls-1" d="M22.2,19.27h-9.8c-.5.03-.7.38-.33.55.13.06.39.09.57.1h9.36c.05-.22.12-.44.2-.64Z"/>
        <path class="cls-1" d="M21.88,20.83h-9.41c-.88.05-.74.63.08.64h9.38c-.03-.21-.05-.43-.05-.64Z"/>
        <path class="cls-1" d="M12.06,29.27c-.37-.17-.17-.52.33-.55h12.57c.84.05.75.6-.08.64h-12.25c-.18,0-.44-.04-.57-.09Z"/>
        <path class="cls-1" d="M25.38,30.38c.36.21.06.54-.49.55h-12.33c-.81-.02-.96-.59-.08-.64h12.41c.15,0,.4.04.49.09Z"/>
        <path class="cls-1" d="M7.39,9.7c.53-.11.92.5.49.97-.13.14-1.53,1.32-1.63,1.37-.16.06-.39.07-.54,0-.05-.02-.77-.75-.81-.83-.26-.5.14-.99.68-.81.18.06.38.39.5.37.14-.02.99-1,1.32-1.07Z"/>
        <path class="cls-1" d="M7.45,19.05c.29-.04.59.23.62.51s-.15.43-.33.6c-.25.25-1.18,1.06-1.45,1.21-.19.11-.29.17-.51.07-.08-.04-.91-.84-.94-.9-.16-.35.06-.74.43-.81.41-.07.55.45.79.39.34-.2,1.05-1.03,1.39-1.07Z"/>
        <path class="cls-1" d="M7.39,28.76c.56-.12.91.52.46,1.01-.2.22-1.32,1.17-1.57,1.3-.23.12-.34.16-.58.03-.07-.04-.83-.79-.86-.85-.11-.24-.03-.61.21-.74.51-.29.87.35,1.01.33.15-.03,1.01-1.01,1.32-1.07Z"/>
      </g>
      <g>
        <path class="cls-1" d="M22.43,20.33c.15-.33.42-.47.78-.35.22.07.24.25.37.39.03.04.03.08.08.02.57-3.24,3.13-5.92,6.35-6.62,6.15-1.35,11.5,4.25,9.85,10.33s-9.8,8.27-14.12,3.38c-.11-.13-.46-.54-.5-.67-.18-.52.26-.94.77-.74.19.08.5.57.67.75,2.98,3.32,8.4,2.84,10.98-.72s1.28-8.96-2.89-10.8c-3.92-1.73-8.53.35-9.78,4.43-.09.28-.19.61-.18.89.1-.08.18-.2.28-.28.6-.46,1.29.22.78.85-.23.28-1.11,1.18-1.39,1.38-.25.18-.54.18-.78-.01l-1.26-1.9v-.35Z"/>
        <path class="cls-1" d="M31.41,16.64c.35-.06.61.08.7.43v4.8s3.17,2.41,3.17,2.41c.42.5-.11,1.23-.8.8-1.1-.68-2.14-1.72-3.24-2.43l-.2-.25c-.04-1.81-.05-3.64,0-5.44.06-.15.2-.29.37-.32Z"/>
      </g>
    </g>
  </g>
</svg>