<?xml version="1.0" encoding="UTF-8"?>
<svg id="Layer_2" data-name="Layer 2" xmlns="http://www.w3.org/2000/svg" viewBox="0 0 30.5 39.07">
  <defs>
    <style>
      .cls-1 {
        fill: #192754;
      }
    </style>
  </defs>
  <g id="Layer_1-2" data-name="Layer 1">
    <g>
      <path class="cls-1" d="M29.07,6.01h-3.96c-.18,0-.68-.5-.68-.68V1.36H1.29v36.34h27.78c.07,0,.04-1.21.94-.82,1.05.45-.05,2.33-1.06,2.18H1.57c-.65,0-1.29-.34-1.48-1C-.09,25.86.07,13.62,0,1.4.09.53.64.07,1.49,0h23.06c.38.01.78.11,1.08.36,1.24,1.52,3.28,2.93,4.44,4.44.24.31.33.61.36,1,.22,2.53-.16,29.76,0,32.32-.03.53-.72.83-1.11.48-.06-.05-.24-.43-.24-.48V6.01ZM28.11,4.73l-2.4-2.4v2.4h2.4Z"/>
      <path class="cls-1" d="M3.24,7.47c.09-.09.36-.17.5-.18,1.83.13,3.89-.17,5.69,0,.33.03.64.15.68.52-.14,1.91.17,4.05,0,5.93-.06.63-.45.64-1,.68-1.38.1-3.76.11-5.13,0-.56-.05-.87-.16-.92-.76-.17-1.8.13-3.86,0-5.69.01-.13.1-.41.18-.5ZM8.82,8.57h-4.48v4.48h4.48v-4.48Z"/>
      <path class="cls-1" d="M3.51,16.75l5.99-.02c.28.02.59.22.6.52-.19,1.87.24,4.2,0,6.01-.03.26-.25.5-.52.52-1.89-.14-3.99.17-5.85,0-.48-.04-.64-.2-.68-.68-.17-1.83.13-3.91,0-5.77,0-.28.19-.51.46-.58ZM8.82,18.01h-4.48v4.48h4.48v-4.48Z"/>
      <path class="cls-1" d="M3.51,26.2l6.26.02c.14.13.33.26.33.47-.15,1.9.18,4.06,0,5.93-.04.44-.27.56-.68.6-1.41.13-4.28.13-5.69,0-.54-.05-.63-.26-.68-.76-.17-1.8.13-3.86,0-5.69,0-.28.19-.51.46-.58ZM8.82,27.46h-4.48v4.48h4.48v-4.48Z"/>
      <path class="cls-1" d="M12.06,10.38c-.37-.17-.17-.52.33-.55h12.57c.84.05.75.6-.08.64h-12.25c-.18,0-.44-.04-.57-.09Z"/>
      <path class="cls-1" d="M25.38,11.48c.36.21.06.54-.49.55h-12.33c-.81-.02-.96-.59-.08-.64h12.41c.15,0,.4.04.49.09Z"/>
      <path class="cls-1" d="M12.06,19.82c-.37-.17-.17-.52.33-.55h12.57c.84.05.75.6-.08.64h-12.25c-.18,0-.44-.04-.57-.09Z"/>
      <path class="cls-1" d="M25.38,20.93c.36.21.06.54-.49.55h-12.33c-.81-.02-.96-.59-.08-.64h12.41c.15,0,.4.04.49.09Z"/>
      <path class="cls-1" d="M12.06,29.27c-.37-.17-.17-.52.33-.55h12.57c.84.05.75.6-.08.64h-12.25c-.18,0-.44-.04-.57-.09Z"/>
      <path class="cls-1" d="M25.38,30.38c.36.21.06.54-.49.55h-12.33c-.81-.02-.96-.59-.08-.64h12.41c.15,0,.4.04.49.09Z"/>
      <path class="cls-1" d="M7.39,9.7c.53-.11.92.5.49.97-.13.14-1.53,1.32-1.63,1.37-.16.06-.39.07-.54,0-.05-.02-.77-.75-.81-.83-.26-.5.14-.99.68-.81.18.06.38.39.5.37.14-.02.99-1,1.32-1.07Z"/>
      <path class="cls-1" d="M7.45,19.05c.29-.04.59.23.62.51s-.15.43-.33.6c-.25.25-1.18,1.06-1.45,1.21-.19.11-.29.17-.51.07-.08-.04-.91-.84-.94-.9-.16-.35.06-.74.43-.81.41-.07.55.45.79.39.34-.2,1.05-1.03,1.39-1.07Z"/>
      <path class="cls-1" d="M7.39,28.76c.56-.12.91.52.46,1.01-.2.22-1.32,1.17-1.57,1.3-.23.12-.34.16-.58.03-.07-.04-.83-.79-.86-.85-.11-.24-.03-.61.21-.74.51-.29.87.35,1.01.33.15-.03,1.01-1.01,1.32-1.07Z"/>
    </g>
  </g>
</svg>