<?xml version="1.0" encoding="UTF-8"?>
<svg id="Layer_2" data-name="Layer 2" xmlns="http://www.w3.org/2000/svg" viewBox="0 0 39.75 26.65">
  <defs>
    <style>
      .cls-1 {
        fill: #fff;
      }
    </style>
  </defs>
  <g id="Layer_1-2" data-name="Layer 1">
    <g>
      <path class="cls-1" d="M21.23,20.11c-.09-.36-.15-.73-.2-1.1h-9.92s0,0-.01,0c-.92-.11-5.72.29-6.39-.4-.09-.09-.37-.57-.37-.66v-4.44h1.62c.54,3.39,6.34,3.38,6.9,0h8.8c.16-.4.33-.8.54-1.18H2.5c-.02-1.04-.03-1.61,1.14-1.69h19.73c.35-.4.74-.76,1.16-1.1H5.76c-.32-.03-.74-.13-.98-.34-.12-.11-.45-.6-.45-.73v-4.44h1.62c.54,3.39,6.34,3.38,6.9,0h20.42v4.01c.41.12.8.25,1.18.41v-4.42h2.68c.15,0,.39-.24.48-.37v-.51c-.38-.45-.87-.26-1.4-.29.2-1.15-.28-2.61-1.59-2.78-.61-.08-5.49-.09-6.24,0-3.58,0-24.82-.03-24.85,0-.68-.09-1.41.26-1.79.81-.06.09-.34.63-.34.69v1.29c-.4.05-1.09-.17-1.33.25-.19.34.02.92.41.92h2.68v4.52c0,.16.41.96.37.99-.68-.09-1.41.26-1.79.81-.06.09-.34.63-.34.69v1.29c-.4.05-1.09-.17-1.33.25-.19.34.02.92.41.92h2.68v4.52c0,.91,1.2,2,2.09,2.09.63.07,5.12.07,5.82,0h10.15ZM11.68,13.5c-.46,1.28-1.68,1.44-2.9,1.32-.71-.07-1.45-.62-1.65-1.32h4.55ZM8.78,5.35c-.71-.07-1.45-.62-1.65-1.32h4.55c-.46,1.28-1.68,1.44-2.9,1.32ZM2.5,2.85c-.02-.88-.06-1.58.99-1.69h24.92c1.06.12,5.52-.22,6.23.13.54.26.47,1.05.46,1.56H2.5Z"/>
      <g>
        <path class="cls-1" d="M30.08,13.92c.4-.09.73.11.83.5l.03,3.51,2.25,2.17c.35.62-.29,1.3-.91.91-.41-.26-1.24-1.12-1.63-1.5-.35-.34-.71-.68-1-1.06l-.02-4.04c.03-.19.26-.45.45-.49Z"/>
        <path class="cls-1" d="M30.7,26.65c-4.99,0-9.05-4.06-9.05-9.05s4.06-9.05,9.05-9.05,9.05,4.06,9.05,9.05-4.06,9.05-9.05,9.05ZM30.7,9.55c-4.44,0-8.05,3.61-8.05,8.05s3.61,8.05,8.05,8.05,8.05-3.61,8.05-8.05-3.61-8.05-8.05-8.05Z"/>
      </g>
    </g>
  </g>
</svg>