<?xml version="1.0" encoding="UTF-8"?>
<svg id="Layer_2" data-name="Layer 2" xmlns="http://www.w3.org/2000/svg" viewBox="0 0 39.77 37.13">
  <defs>
    <style>
      .cls-1 {
        fill: #fff;
      }
    </style>
  </defs>
  <g id="Layer_1-2" data-name="Layer 1">
    <g>
      <path class="cls-1" d="M19.85,27.16c0-5.53,4.43-9.96,9.96-9.96,5.53,0,9.93,4.43,9.96,9.96.03,5.52-4.56,10.01-10,9.96-5.49-.05-9.92-4.45-9.92-9.96ZM29.09,19.94s.02,0,.03,0c0-.06,0-.11,0-.17,0-1.23,0-1.21-1.2-.96-4.02.86-6.98,4.49-6.62,9,.16,2,.91,3.74,2.28,5.19,1.99,2.09,4.47,2.96,7.33,2.64,1.52-.17,2.89-.77,4.12-1.69.27-.2.27-.34.02-.57-.43-.39-.84-.8-1.23-1.23-.21-.23-.37-.23-.62-.05-1.23.86-2.61,1.18-4.08,1.02-2.75-.29-4.99-2.56-5.28-5.29-.3-2.87,1.44-5.53,4.17-6.4.36-.12.88-.02,1.05-.36.15-.31.03-.75.03-1.14ZM25.21,27.16c0,2.5,2.08,4.61,4.59,4.58,2.55-.03,4.57-1.93,4.59-4.57.01-2.59-1.97-4.6-4.59-4.6-2.61,0-4.51,2.01-4.58,4.58ZM37.05,26.47c.28,0,.55-.02.83,0,.4.04.47-.15.42-.49-.18-1.14-.54-2.22-1.15-3.21-1.43-2.31-3.49-3.66-6.16-4.09-.35-.06-.51.04-.49.43.03.58.01,1.16,0,1.74,0,.25.09.37.34.42,2.68.57,4.3,2.2,4.87,4.88.05.22.14.34.39.33.32-.01.63,0,.95,0ZM37.04,27.85c-.32,0-.63,0-.95,0-.22,0-.34.09-.37.3-.15.93-.5,1.77-1.05,2.53-.11.15-.1.26.04.39.48.47.96.95,1.43,1.43.14.14.25.14.37-.02,1-1.26,1.59-2.69,1.8-4.28.03-.24-.05-.36-.31-.35-.32.01-.63,0-.95,0Z"/>
      <path class="cls-1" d="M18.91,0c5.34,0,10.67,0,16.01,0,1.77,0,2.86,1.09,2.86,2.86,0,4.89,0,9.79,0,14.68,0,.59-.23.88-.69.88-.36,0-.63-.23-.68-.59-.02-.15-.01-.3-.01-.45,0-4.77,0-9.54,0-14.31,0-1.21-.47-1.68-1.68-1.68-10.56,0-21.12,0-31.68,0-1.18,0-1.66.48-1.66,1.66,0,7.25,0,14.5,0,21.75,0,1.2.48,1.67,1.69,1.67,4.81,0,9.62,0,14.43,0,.15,0,.3,0,.45,0,.38.04.63.32.63.69,0,.37-.26.64-.64.68-.11.01-.22,0-.33,0-4.92,0-9.84,0-14.76,0-1.75,0-2.85-1.1-2.85-2.83C0,17.62,0,10.22,0,2.81,0,1.1,1.11,0,2.83,0,8.19,0,13.55,0,18.91,0Z"/>
      <path class="cls-1" d="M25.25,4.9c1.08,0,1.84,1.03,1.5,2.06-.07.22-.04.35.1.52.43.48.86.97,1.28,1.46.12.14.23.2.42.14.2-.06.41-.06.61,0,.21.06.34,0,.48-.16.43-.5.86-1,1.3-1.49.16-.18.09-.33.04-.5-.18-.66-.01-1.22.5-1.66.51-.43,1.1-.49,1.7-.21.62.29.91.81.9,1.49-.02.96-.89,1.65-1.87,1.49-.21-.03-.34,0-.47.16-.42.5-.86,1-1.3,1.49-.11.13-.13.24-.08.41.24.71.02,1.4-.55,1.82-.56.41-1.29.41-1.85.02-.59-.42-.81-1.1-.57-1.84.05-.17.03-.28-.08-.41-.43-.48-.86-.97-1.28-1.46-.14-.16-.27-.25-.5-.18-.16.05-.35.05-.51,0-.28-.09-.44.04-.61.23-.4.47-.8.94-1.21,1.39-.13.15-.15.27-.09.46.3.87-.17,1.76-1.05,2.03-.85.25-1.73-.24-1.97-1.11-.24-.85.28-1.73,1.15-1.95.23-.06.48-.07.71,0,.19.05.31-.02.42-.15.45-.51.89-1.03,1.34-1.53.12-.13.1-.23.04-.38-.37-1.05.38-2.12,1.49-2.11ZM25.73,6.48c0-.24-.23-.48-.48-.48-.24,0-.48.23-.48.48,0,.24.23.48.48.48.24,0,.48-.23.48-.48ZM32.99,6.48c0-.24-.23-.48-.48-.48-.24,0-.48.23-.48.48,0,.24.23.48.48.48.24,0,.48-.23.48-.48ZM22.1,10.64c0-.24-.22-.48-.47-.49-.24,0-.48.22-.49.47,0,.24.22.48.47.49.24,0,.48-.22.49-.47ZM29.36,10.64c0-.24-.23-.48-.47-.49-.24,0-.48.23-.49.47,0,.24.23.48.47.49.24,0,.48-.23.49-.47Z"/>
      <path class="cls-1" d="M10,17.34c0-2,0-4,0-6,0-.79.28-1.08,1.06-1.08,1.01,0,2.02,0,3.03,0,.68,0,1,.31,1,.99,0,4.11,0,8.21,0,12.32,0,.67-.32.97-1.01.98-1.01,0-2.02,0-3.03,0-.75,0-1.05-.29-1.05-1.04,0-2.05,0-4.11,0-6.16ZM11.74,17.4c0,1.48,0,2.96,0,4.44,0,1.07-.12.92.94.97.54.02.67-.16.67-.68-.02-3.03,0-6.06-.01-9.09,0-1.17.18-1.01-1.07-1.04-.42-.01-.54.14-.53.55.02,1.62,0,3.24,0,4.86Z"/>
      <path class="cls-1" d="M3.31,19.02c0-1.43,0-2.85,0-4.28,0-.86.27-1.14,1.11-1.14.99,0,1.98,0,2.97,0,.69,0,1,.31,1,.98,0,2.99,0,5.98,0,8.98,0,.68-.31.98-1,.98-1.03,0-2.05,0-3.08,0-.71,0-1-.31-1-1.03,0-1.5,0-2.99,0-4.49ZM6.65,19.07c0-.91,0-1.81,0-2.72-.01-1.14.16-.98-1.04-1.02-.44-.01-.57.14-.56.57.02,1.93,0,3.87.01,5.8,0,1.23-.22,1.07,1.12,1.1.37,0,.49-.13.48-.49-.02-1.08,0-2.16,0-3.24Z"/>
      <path class="cls-1" d="M21.78,20.32c0,1.06,0,2.12,0,3.18,0,.74-.3,1.03-1.05,1.04-.99,0-1.98,0-2.97,0-.76,0-1.06-.29-1.06-1.03,0-2.12,0-4.24,0-6.36,0-.74.3-1.03,1.05-1.04.99,0,1.98,0,2.97,0,.78,0,1.06.29,1.06,1.08,0,1.04,0,2.09,0,3.13ZM20.03,20.38c0-.49,0-.98,0-1.46-.02-1.2.2-1.04-1.1-1.07-.4,0-.51.14-.51.52.02,1.11,0,2.23,0,3.34.02,1.23-.25,1.07,1.18,1.09.32,0,.43-.13.42-.44-.01-.66,0-1.32,0-1.99Z"/>
    </g>
  </g>
</svg>