<?xml version="1.0" encoding="UTF-8"?>
<svg id="Layer_2" data-name="Layer 2" xmlns="http://www.w3.org/2000/svg" viewBox="0 0 31.41 31.41">
  <defs>
    <style>
      .cls-1 {
        fill: #192754;
      }
    </style>
  </defs>
  <g id="Layer_1-2" data-name="Layer 1">
    <g>
      <path class="cls-1" d="M0,14.49c.11-.79.2-1.58.39-2.35.6-2.55,1.76-4.81,3.49-6.76C6.26,2.68,9.21.94,12.75.29c4.91-.9,9.34.27,13.16,3.48,3.09,2.6,4.89,5.97,5.37,9.98.58,4.77-.78,8.97-3.99,12.54-2.46,2.73-5.56,4.33-9.19,4.92-.53.09-1.07.12-1.61.18h-1.53c-.31-.03-.63-.07-.94-.1-2.39-.25-4.59-1.03-6.62-2.3-.19-.12-.35-.14-.56-.05-1.95.82-3.9,1.63-5.85,2.45-.29,0-.57,0-.86,0-.11,0-.13-.02-.13-.13,0-.31,0-.61,0-.92.04-.07.08-.14.11-.22.77-1.84,1.54-3.69,2.32-5.53.1-.25.08-.43-.06-.65-.86-1.33-1.47-2.77-1.89-4.3-.24-.88-.35-1.78-.49-2.67v-2.51ZM2.33,29.09c.16,0,.29-.09.42-.15,1.21-.52,2.43-1.01,3.63-1.57.6-.28,1.08-.21,1.62.14,2.85,1.85,5.97,2.62,9.36,2.22,3.02-.36,5.68-1.54,7.88-3.62,3.61-3.39,5.09-7.6,4.43-12.5-.41-3.06-1.75-5.71-3.96-7.88-3.63-3.56-7.99-4.86-12.96-3.86-3.98.8-7.03,3.04-9.15,6.49-1.78,2.89-2.38,6.05-1.89,9.41.31,2.11,1.08,4.04,2.29,5.79.25.36.29.71.11,1.12-.58,1.35-1.14,2.71-1.71,4.07-.04.1-.12.19-.08.33Z"/>
      <path class="cls-1" d="M14.9,17.98c0-.48,0-.96,0-1.44,0-.73.27-1.03,1-1.07.71-.04,1.32-.3,1.87-.75,1.44-1.17,1.54-3.44.2-4.72-.91-.87-1.99-1.16-3.19-.79-1.18.37-1.93,1.19-2.21,2.41-.05.22-.06.44-.09.67-.07.45-.39.73-.81.71-.42-.02-.76-.36-.75-.81,0-.99.3-1.89.88-2.7,1.19-1.68,3.28-2.4,5.29-1.86,1.93.52,3.34,2.22,3.53,4.25.22,2.34-1.43,4.56-3.77,5.06-.25.05-.34.15-.33.4.01.76,0,1.51,0,2.27,0,.37-.17.66-.52.8-.28.12-.56.07-.8-.14-.22-.2-.29-.46-.29-.75,0-.51,0-1.02,0-1.53Z"/>
      <path class="cls-1" d="M15.64,22.31c.48,0,.86.38.86.85,0,.48-.38.84-.87.84-.48,0-.87-.38-.86-.85,0-.46.4-.85.87-.84Z"/>
    </g>
  </g>
</svg>