<?xml version="1.0" encoding="UTF-8"?>
<svg id="Layer_2" data-name="Layer 2" xmlns="http://www.w3.org/2000/svg" viewBox="0 0 33.38 36.83">
  <defs>
    <style>
      .cls-1 {
        fill: #fff;
      }
    </style>
  </defs>
  <g id="Layer_1-2" data-name="Layer 1">
    <g>
      <path class="cls-1" d="M27.05,0l.58.32,5.43,5.43.32.69c-.02,9.74.07,19.49-.04,29.22-.22.59-.76,1.12-1.42,1.17H4.92c-.71-.04-1.38-.71-1.47-1.41-.07-.55.19-.99.79-.79.53.18-.01,1.02,1.11,1.12h26.12c.34.03.82-.25.82-.61V7.48h-5.29c-.13,0-.56-.22-.69-.32-.13-.11-.43-.58-.43-.72V1.08H5.14c-.23,0-.62.32-.54.61v18.35c-.28,1.23-1.42.67-1.15-.47h-1.47c-.06,0-.49.28-.57.36-.6.65-.23,1.79.65,1.93,6.2.07,12.42-.12,18.6.1.65.21,1.1.78,1.21,1.45-.15,2.69.2,5.61,0,8.28-.07.91-.57,1.52-1.48,1.69H2.05c-1.02-.09-1.87-.9-2.05-1.91v-11.08c.01-.86,1.15-1.98,1.98-1.98h1.47V1.33s.15-.4.19-.46c.22-.43.62-.67,1.04-.87h22.37ZM32.01,6.33l-4.96-4.96v4.96h4.96ZM1.08,22.73v8.38c0,.07.13.45.18.54.25.52.78.59,1.3.65h17.34c.44-.04.78-.13.83-.61.25-2.56-.2-5.53,0-8.13-.01-.33-.28-.56-.61-.54H2.12s-1.04-.28-1.04-.28Z"/>
      <path class="cls-1" d="M11.78,9.22l13.08-.02c.49.01.98.5,1.04.97-.17,2.48.22,5.25,0,7.7-.06.64-.47,1.08-1.11,1.11h-12.74c-.57-.03-1.07-.48-1.11-1.05.16-2.46-.22-5.2,0-7.63.05-.55.34-.9.85-1.1ZM15.54,10.36h-3.45v1.73h3.45v-1.73ZM20.14,10.36h-3.45v1.73h3.45v-1.73ZM24.74,10.36h-3.45v1.73h3.45v-1.73ZM15.54,13.23h-3.45v1.73h3.45v-1.73ZM20.14,13.23h-3.45v1.73h3.45v-1.73ZM24.74,13.23h-3.45v1.73h3.45v-1.73ZM15.54,16.11h-3.45v1.73h3.45v-1.73ZM20.14,16.11h-3.45v1.73h3.45v-1.73ZM24.74,16.11h-3.45v1.73h3.45v-1.73Z"/>
      <path class="cls-1" d="M13.76,28.86c.46-.54.92.18,1.3.35.54.25,1.79.22,1.55-.61-.14-.48-2.04-.73-2.49-1.47-.84-1.36.51-2.51,1.9-2.4.6.05,2.16.63,1.47,1.41-.45.51-1.11-.32-1.76-.31-.43,0-.98.44-.57.77.32.25,1.24.45,1.68.69,2.15,1.21.43,4-2.12,2.98-.48-.19-1.46-.82-.95-1.42Z"/>
      <path class="cls-1" d="M6.4,28.48c-.07-.05-.13.03-.17.08-.34.34-1.06,1.75-1.41,1.9-.53.23-.98-.31-.73-.81l1.53-2.21c0-.2-1.25-1.6-1.35-1.96-.17-.61.5-.99.95-.6.22.19.96,1.48,1.08,1.51.1.03.12-.07.17-.12.33-.35.83-1.47,1.27-1.53.56-.08.81.38.57.86-.15.31-1.26,1.68-1.26,1.83l1.53,2.22c.25.59-.27,1.05-.84.76l-1.34-1.93Z"/>
      <path class="cls-1" d="M11.01,29.35h1.11c.5,0,.75.94.18,1.12-.22.07-1.71.07-1.98.03-.25-.04-.38-.18-.44-.42v-4.84c.02-.4.48-.61.83-.45.07.03.29.31.29.36v4.21Z"/>
    </g>
  </g>
</svg>