<?xml version="1.0" encoding="UTF-8"?>
<svg id="Layer_2" data-name="Layer 2" xmlns="http://www.w3.org/2000/svg" viewBox="0 0 39.84 36.88">
  <defs>
    <style>
      .cls-1 {
        fill: #192754;
      }
    </style>
  </defs>
  <g id="Layer_1-2" data-name="Layer 1">
    <g>
      <path class="cls-1" d="M0,15.8c.24-.66.52-1.17,1.14-1.54.1-.06.62-.33.68-.33h1.98V2.46c0-.09.32-.79.4-.92,1.09-1.83,3.87-1.86,5-.05.09.15.43.86.43.97v11.47h5.99c-.52-1.17-1.74-2.48-1.87-3.77-.08-.77.2-1.49.15-2.25-.02-.4-.57-2.41-.85-2.57-.12-.07-.52.24-.86-.15-.15-.18-.71-1.23-.79-1.46-.25-.73-.11-1.65.52-2.15C12.47,1.14,14.42.03,15.05,0c.78-.04,1.19.15,1.66.76.26.33.95,1.38.87,1.77-.03.18-.23.25-.2.36.07.28,1.28,1.55,1.57,1.78.84.7,1.91.93,2.64,1.8.38.46.6.97.89,1.45.93,1.53,2.35,3.62,3.06,5.18.11.25.22.55.22.83h1.09V5.1c0-.34.36-1.46.51-1.83,1.58-3.98,6.07-4.22,7.99-.37.22.44.69,1.74.69,2.19v8.83h1.98s.55.24.64.3c1.61.94,1.61,3.3-.05,4.2l-4.36,17.37h1.59c.25,0,.56,1-.15,1.09H4.23c-.85-.08-.46-1.09-.23-1.09h1.59c-.16-.25-.24-.52-.32-.81-1.53-5.45-2.49-11.16-4.11-16.58-.58-.37-.94-.87-1.17-1.51v-1.09ZM16.18,2.11c-.33-.52-.38-1.13-1.17-.98-.25.05-1.98,1.09-2.21,1.29-.57.5-.37.91.01,1.46.04.06,0,.12.13.09l3.24-1.86ZM8.56,13.93V2.92c0-.83-1.01-1.68-1.82-1.66s-1.84.8-1.84,1.66v11.01h3.66ZM32.9,1.72s-.7-.31-.79-.34c-1.96-.58-3.6,1.39-3.95,3.14l4.62-2.58c.08-.03.18-.15.13-.22ZM27.93,6.04v3.15l6.93-3.94c-.16-.93-.48-1.83-1.05-2.59l-5.87,3.37ZM16.41,3.43l-2.33,1.28c.43.93.94,2,1.01,3.03.08,1.08-.45,2.12.08,3.15l5.76-3.27c-.22-.76-1.09-.98-1.7-1.37-1.13-.72-2.15-1.65-2.81-2.83ZM34.93,6.54l-7,4.01v2.61l7-3.97v-2.64ZM22.47,10.34c.05-.09-.02-.2-.05-.28-.14-.31-.6-1.09-.81-1.37-.05-.06-.07-.15-.17-.12l-5.64,3.37c.31.33.61,1.26.88,1.52.07.07.12.1.22.07l5.57-3.19ZM34.93,10.51l-5.99,3.42h5.99v-3.42ZM18.59,13.93h5.87s.16-.16.08-.24l-1.41-2.41-4.55,2.65ZM2.24,15.04c-1.57.3-1.46,2.52.21,2.55h34.86c1.87-.1,1.85-2.47,0-2.57l-35.07.02ZM37.26,18.68H2.57c1.28,5.54,2.64,11.08,4.07,16.59.19.4.41.55.87.53h24.82c.4,0,.74-.23.87-.61l4.07-16.51Z"/>
      <path class="cls-1" d="M10.71,20.64c.25-.07.65-.04.76.22v13.07c-.15.34-.86.34-1.01,0l-.04-12.88c0-.16.14-.36.29-.41Z"/>
      <path class="cls-1" d="M15.15,20.64c.25-.07.65-.04.76.22v13.07c-.15.34-.86.34-1.01,0l-.04-12.88c0-.16.14-.36.29-.41Z"/>
      <path class="cls-1" d="M19.66,20.64c.25-.07.65-.04.76.22v13.07c-.15.34-.86.34-1.01,0l-.04-12.88c0-.16.14-.36.29-.41Z"/>
      <path class="cls-1" d="M24.09,20.64c.25-.07.65-.04.76.22v13.07c-.15.34-.86.34-1.01,0l-.04-12.88c0-.16.14-.36.29-.41Z"/>
      <path class="cls-1" d="M28.6,20.64c.25-.07.65-.04.76.22v13.07c-.15.34-.86.34-1.01,0l-.04-12.88c0-.16.14-.36.29-.41Z"/>
    </g>
  </g>
</svg>