<?xml version="1.0" encoding="UTF-8"?>
<svg id="Layer_2" data-name="Layer 2" xmlns="http://www.w3.org/2000/svg" viewBox="0 0 39.41 9.45">
  <defs>
    <style>
      .cls-1 {
        fill: #fff;
      }
    </style>
  </defs>
  <g id="Layer_1-2" data-name="Layer 1">
    <g>
      <path class="cls-1" d="M39.38,3.95c.04.34.04,1.19,0,1.54-.42,3.52-5,5.14-7.72,2.84-3.81-3.21-.63-9.46,4.31-8.16,1.6.42,3.21,2.11,3.41,3.78ZM32.72,6.69c2.55,2.55,6.48-1.29,4-3.88-2.58-2.69-6.59,1.29-4,3.88Z"/>
      <path class="cls-1" d="M19,.05c4.78-.57,7.34,5.24,3.74,8.28-3.47,2.93-8.66-.3-7.61-4.76.41-1.75,2.07-3.3,3.87-3.51ZM21.68,2.75c-2.58-2.58-6.52,1.36-3.94,3.94,2.58,2.58,6.52-1.36,3.94-3.94Z"/>
      <path class="cls-1" d="M4.01.05c5.33-.61,7.42,6.29,3.07,8.75C3.37,10.91-.96,7.47.19,3.38.65,1.74,2.3.25,4.01.05ZM6.69,2.75C4.14.2.21,4.04,2.69,6.64c2.58,2.69,6.59-1.29,4-3.88Z"/>
    </g>
  </g>
</svg>