<?xml version="1.0" encoding="UTF-8"?>
<svg id="Layer_2" data-name="Layer 2" xmlns="http://www.w3.org/2000/svg" viewBox="0 0 39.71 38.11">
  <defs>
    <style>
      .cls-1 {
        fill: #fff;
      }
    </style>
  </defs>
  <g id="Layer_1-2" data-name="Layer 1">
    <g>
      <path class="cls-1" d="M28.95,21.88h6.48c.23,0,.73.38.73.64v14.13h3.05c.09,0,.36.26.41.36.27.61-.12,1.09-.75,1.1H.74c-1.16-.14-.71-1.46-.26-1.46h2.53V13.42s.41-.39.47-.39h6.66V.54s.2-.3.25-.35c.38-.32.65-.16,1.06-.02,5.67,1.99,11.28,4.94,16.95,7.01.16.03.54.34.54.49v14.21ZM27.58,36.65V8.44L11.6,1.78v34.87h3.69v-6.91s.42-.46.55-.39c2.35.17,4.99-.21,7.31,0,.18.02.32.01.47.14.05.04.26.4.26.43v6.74h3.69ZM10.14,14.49h-5.75v22.16h5.75V14.49ZM34.7,23.34h-5.75v13.31h5.75v-13.31ZM22.42,30.72h-5.75v5.93h5.75v-5.93Z"/>
      <path class="cls-1" d="M23.68,17.9c-.09.1-.3.19-.44.2-2.3-.21-5.06.26-7.31,0-.95-.11-.94-1.34.26-1.46,2.14-.22,4.61.16,6.78,0,.68,0,1.21.71.7,1.26Z"/>
      <path class="cls-1" d="M23.68,23.14c-.09.1-.3.19-.44.2-2.3-.21-5.05.26-7.31,0-.99-.12-.8-1.45.17-1.46,2.18.18,4.74-.24,6.87,0,.69.08,1.24.67.7,1.26Z"/>
      <path class="cls-1" d="M15.7,11.5l7.54-.02c.84.09.83,1.29,0,1.38h-7.47c-.64-.23-.66-1.05-.07-1.36Z"/>
    </g>
  </g>
</svg>