<?xml version="1.0" encoding="UTF-8"?>
<svg id="Layer_2" data-name="Layer 2" xmlns="http://www.w3.org/2000/svg" viewBox="0 0 36.02 19.33">
  <defs>
    <style>
      .cls-1 {
        fill: #fff;
      }
    </style>
  </defs>
  <g id="Layer_1-2" data-name="Layer 1">
    <path class="cls-1" d="M36.02,12.58c-.08.12-.31.35-.46.35h-2.57v4.33c0,.87-1.15,1.91-2,2.01-1.97.21-4.32-.16-6.33,0-.6-.08-1.09-.39-1.48-.84-.39.44-.89.77-1.48.84h-11.61c-.56-.07-.61-.88-.06-1.05h11.25c.49-.04,1.03-.27,1.23-.75.04-.09.15-.49.15-.56v-3.97h-10.34c-.54,3.24-6.09,3.24-6.61,0h-1.55v4.26c0,.09.27.55.35.63.65.66,5.24.28,6.12.39.69.08.69.98,0,1.06-.61.07-4.99.07-5.6,0-.85-.09-2-1.13-2-2.01v-4.33H.46c-.37,0-.57-.56-.39-.88.23-.4.88-.19,1.27-.24v-1.23c0-.06.26-.58.32-.66.37-.53,1.07-.86,1.72-.78.04-.03-.35-.79-.35-.95V3.86H.46C.09,3.86-.12,3.3.07,2.97c.23-.4.88-.19,1.27-.24v-1.23c0-.06.26-.58.32-.66C2.03.31,2.73-.03,3.38.06c.04-.03,24.3,0,24.3,0,.03,0,.24.24.26.3.14.33-.04.71-.4.76H3.34c-1,.1-.97.77-.95,1.61h31.23c0-.48.07-1.24-.44-1.49-.7-.34-5.18,0-6.05-.13-.59-.09-.59-.95,0-1.05s5.44-.08,6.03,0c1.25.17,1.71,1.56,1.52,2.67.5.03.98-.15,1.34.28v.49c-.08.12-.31.35-.46.35h-2.57v4.33c0,.16-.39.92-.35.95,1.56-.1,2.27,1.26,2.04,2.67.5.03.98-.15,1.34.28v.49ZM5.7,3.86h-1.55v4.26c0,.13.31.6.43.7.24.2.64.3.94.32h24.91c.34-.02.75-.1,1.01-.32.12-.1.43-.57.43-.7V3.86H12.31c-.54,3.24-6.09,3.24-6.61,0ZM11.19,3.86h-4.36c.19.67.9,1.2,1.58,1.27,1.17.12,2.33-.04,2.78-1.27ZM33.63,11.81c.02-.85.05-1.52-.95-1.62H3.48c-1.12.08-1.11.63-1.09,1.62h31.23ZM11.19,12.93h-4.36c.19.67.9,1.2,1.58,1.27,1.17.12,2.33-.04,2.78-1.27ZM31.87,12.93h-8.16v4.11c0,.05.15.43.2.51.27.47.73.62,1.24.66,1.76.14,3.7-.1,5.48-.01.45,0,1.24-.55,1.24-1.01v-4.26Z"/>
  </g>
</svg>