<?xml version="1.0" encoding="UTF-8"?>
<svg id="Layer_2" data-name="Layer 2" xmlns="http://www.w3.org/2000/svg" viewBox="0 0 32.46 32.4">
  <defs>
    <style>
      .cls-1 {
        fill: #fff;
      }
    </style>
  </defs>
  <g id="Layer_1-2" data-name="Layer 1">
    <g>
      <path class="cls-1" d="M30.18,12.44v16.8h1.36c.49,0,.86.57.9,1.02.05.66.16,1.91-.66,2.12l-30.98.03c-.29-.04-.66-.37-.73-.66s-.07-1.58.01-1.84.57-.67.85-.67h1.36V12.44C.87,12-.1,10.5.02,9.03L2.24,3.38c.05-1.36-.25-3.19,1.58-3.38h24.87c1.77.27,1.45,2.04,1.51,3.38l2.22,5.71c.1,1.44-.88,2.91-2.25,3.34ZM29.45,2.98v-1.49c0-.41-.73-.92-1.15-.83H4.08c-.4-.07-1.09.45-1.09.83v1.49h26.45ZM7.62,3.71H2.86l-1.98,5.09h5.56l1.19-5.09ZM13.11,3.71h-4.76l-1.19,5.09h5.56l.4-5.09ZM18.6,3.71h-4.76l-.4,5.09h5.56l-.4-5.09ZM24.09,3.71h-4.76l.4,5.09h5.56l-1.19-5.09ZM29.58,3.71h-4.76l1.19,5.09h5.56l-1.98-5.09ZM6.3,9.53H.75c.44,3.26,5.12,3.25,5.56,0ZM12.65,9.53h-5.56c.44,3.26,5.12,3.25,5.56,0ZM19,9.53h-5.56c.44,3.26,5.12,3.25,5.56,0ZM25.35,9.53h-5.56c.44,3.26,5.12,3.25,5.56,0ZM31.7,9.53h-5.56c.44,3.26,5.12,3.25,5.56,0ZM4.02,12.7c-.32.04-.7-.03-1.03,0v16.53h2.25v-12.8c0-.36.43-.89.83-.89,2.13.11,4.44-.17,6.54,0,.39.03.66.09.86.46.03.06.16.4.16.43v12.8h15.81V12.7h-1.03c-.75,0-1.9-.85-2.35-1.42-.1-.13-.27-.62-.4-.45-.18.23-.32.58-.56.82-1.71,1.73-4.59,1.27-5.69-.86l-.69.9c-1.44,1.37-3.6,1.36-5.03,0l-.69-.89c-1.31,2.56-4.98,2.54-6.28,0l-.66.86c-.46.47-1.4.98-2.05,1.06ZM12.85,16.27h-6.81c.02.06-.07.14-.07.17v12.8h6.94v-12.8s-.09-.1-.07-.17ZM.93,29.97c-.34.1-.47,1.84.18,1.77h30.16c.31,0,.46-.12.49-.43.04-.36.12-1.34-.36-1.36l-30.48.02Z"/>
      <path class="cls-1" d="M16.6,15.56l9.64-.02c.66.02.91.49.96,1.09-.14,2.55.17,5.28,0,7.81-.05.67-.23,1.09-.96,1.16-3.01.27-6.41-.21-9.46,0-.45-.03-.9-.42-.89-.89.19-2.66-.25-5.65,0-8.27.04-.47.28-.71.71-.88ZM26.41,16.27h-9.69s-.1.09-.1.1v8.4s.09.1.1.1h9.69v-8.6Z"/>
      <path class="cls-1" d="M11.73,21.2c.07-.26.66-.18.66,0v3.11c0,.25-.66.25-.66,0v-3.11Z"/>
    </g>
  </g>
</svg>