<?xml version="1.0" encoding="UTF-8"?>
<svg id="Layer_2" data-name="Layer 2" xmlns="http://www.w3.org/2000/svg" viewBox="0 0 39.96 37.49">
  <defs>
    <style>
      .cls-1 {
        fill: #fff;
      }
    </style>
  </defs>
  <g id="Layer_1-2" data-name="Layer 1">
    <g>
      <g>
        <path class="cls-1" d="M22.15,31.75H1.11c-.65.07-.52-1.67-.18-1.78h21.13c-.01-.25-.03-.5-.05-.74h-8.37v-12.8s-.13-.37-.16-.43c-.2-.37-.47-.43-.86-.46-2.11-.16-4.41.12-6.54,0-.4,0-.83.52-.83.89v12.8h-2.25V12.7c.33-.03.71.04,1.03,0,.65-.08,1.59-.59,2.05-1.06l.66-.86c1.31,2.54,4.98,2.56,6.28,0l.69.89c1.43,1.37,3.59,1.37,5.03,0l.69-.9c1.1,2.13,3.98,2.59,5.69.86.24-.24.38-.6.56-.82.13-.17.3.32.4.45.45.57,1.6,1.42,2.35,1.42h1.03v1.5c.54-.1.28-.06.74-.15v-1.61c1.36-.43,2.34-1.9,2.24-3.34l-2.22-5.71c-.06-1.34.26-3.11-1.51-3.38H3.82c-1.83.19-1.53,2.02-1.58,3.38L.02,9.03c-.13,1.47.84,2.96,2.24,3.4v16.8H.91c-.28,0-.77.4-.85.67-.08.26-.08,1.57-.01,1.84.07.28.44.61.73.66l21.39-.02c0-.21-.02-.42-.03-.64ZM5.97,16.44s.09-.1.07-.17h6.81c-.02.06.07.14.07.17v12.8h-6.94v-12.8ZM7.1,9.53h5.56c-.44,3.25-5.11,3.26-5.56,0ZM12.72,8.8h-5.56l1.19-5.09h4.76l-.4,5.09ZM13.44,9.53h5.56c-.44,3.25-5.11,3.26-5.56,0ZM13.44,8.8l.4-5.09h4.76l.4,5.09h-5.56ZM19.33,3.71h4.76l1.19,5.09h-5.56l-.4-5.09ZM19.79,9.53h5.56c-.44,3.25-5.11,3.26-5.56,0ZM26.14,9.53h5.56c-.44,3.25-5.11,3.26-5.56,0ZM31.56,8.8h-5.56l-1.19-5.09h4.76l1.98,5.09ZM3,1.49c0-.38.69-.9,1.09-.83h24.21c.42-.09,1.15.42,1.15.83v1.49H3v-1.49ZM2.86,3.71h4.76l-1.19,5.09H.88l1.98-5.09ZM.75,9.53h5.56c-.44,3.25-5.11,3.26-5.56,0Z"/>
        <path class="cls-1" d="M22.12,24.87h-5.4s-.1-.09-.1-.1v-8.4s.09-.1.1-.1h5.63c.15-.25.43-.49.61-.72h-6.36c-.43.18-.67.41-.71.89-.25,2.62.19,5.61,0,8.27,0,.48.44.87.89.89,1.39-.1,3.89-.05,5.36,0-.01-.25-.02-.49-.02-.74Z"/>
        <path class="cls-1" d="M11.73,21.2c.07-.26.66-.18.66,0v3.11c0,.25-.66.25-.66,0v-3.11Z"/>
      </g>
      <g>
        <path class="cls-1" d="M27.58,37.49c-.15-.17-.28-.29-.17-.54.01-.02.18-.2.2-.2h11.56v-19.94h-3.46c-.45,0-.4-.79-.1-.79h1.74v-2.8l-6.95,1.71c-.57.11-.71-.61-.17-.76l7.31-1.83c.15-.07.55.02.55.21v3.46h1.6c.11,0,.32.28.27.42-.03,6.94.05,13.9-.04,20.84l-.16.21h-12.18Z"/>
        <path class="cls-1" d="M22.77,37.49c-.1-.13-.22-.23-.2-.42v-20.72c.04-.2.18-.29.36-.34l7.27-1.79c.42-.07.62.49.26.71l-4.31,1.09h10c.21,0,.39.47.17.66-.02.02-.25.12-.27.12h-12.7v19.94h4.72c.27,0,.33.63.02.74h-5.34Z"/>
        <path class="cls-1" d="M32.98,23.69l2.01-1.99c.34-.31.84.07.61.46l-2.08,2.12c1.1-.03,1.85-1.02,2.6-1.7.6-.02.64.37.3.79-.66.81-2.1,1.91-3.2,1.63-.1-.02-.23-.14-.3-.13-.11.02-.81.83-.96.96.77.88,1.66,1.67,2.47,2.52.28.43-.26.85-.64.49l-2.36-2.36-.09-.04-2.46,2.45c-.37.28-.8-.15-.54-.54l2.48-2.48-1.18-1.18c-.26.05-.54.17-.81.17-1.62,0-3.43-2.05-2.16-3.54,1.36-1.6,3.71.24,3.71,1.99,0,.28-.13.54-.18.81l1.18,1.18c.13-.19.91-.82.95-.97.03-.1-.12-.35-.14-.49-.14-1.02,1.01-2.57,1.81-3.14.28-.2.66-.1.67.26.01.26-.65.78-.85,1-.4.46-.88,1.08-.86,1.72ZM27.77,21.54c-.52.09-.77.59-.72,1.09.13,1.2,2.53,2.18,2.55.69.02-.85-.93-1.94-1.83-1.78Z"/>
        <path class="cls-1" d="M27.42,30.97h7.6c.53.05.48.75-.05.78h-7.42c-.48-.03-.59-.6-.14-.78Z"/>
        <path class="cls-1" d="M28.7,32.93l5.17.02c.4.37.17.71-.32.76-1.44.15-3.1-.11-4.57,0-.49-.01-.74-.47-.29-.77Z"/>
      </g>
    </g>
  </g>
</svg>