<?xml version="1.0" encoding="UTF-8"?>
<svg id="Layer_2" data-name="Layer 2" xmlns="http://www.w3.org/2000/svg" viewBox="0 0 39.38 38.83">
  <defs>
    <style>
      .cls-1 {
        fill: #fff;
      }
    </style>
  </defs>
  <g id="Layer_1-2" data-name="Layer 1">
    <g>
      <g>
        <path class="cls-1" d="M38.57,21.49c-.04-1.88-.09-3.75-.13-5.63-.03-1.17-.05-2.35-.08-3.52,0-.21-.02-.42-.04-.63-.02-.22-.15-.34-.37-.35-.07,0-.14,0-.22,0-4.49,0-8.98,0-13.48,0-.47,0-.52.04-.63.5-.2.81-.4,1.62-.61,2.42-.06.23-.05.43.18.56.1.06.09.16.08.25-.12,1.63-.23,3.26-.35,4.89-.02.29-.06.58-.07.87,0,.19-.08.25-.27.25-1.26,0-2.52,0-3.78,0-.56,0-.76.16-.91.7-.27.98-.55,1.95-.82,2.93v.43c.11.25.29.43.57.49.1.02.15.08.15.18,0,.09.02.18.02.27.28-.44.63-.84,1.05-1.17-.25,0-.51,0-.76,0-.29,0-.3-.01-.22-.3.24-.85.48-1.7.71-2.55.05-.19.13-.25.33-.25,2.71,0,5.42,0,8.13,0,.19,0,.28.06.33.25.1.36.2.73.3,1.09.22-.09.46-.17.71-.23-.12-.42-.23-.84-.35-1.26-.11-.41-.36-.58-.78-.58-1.12,0-2.25,0-3.37,0-.28,0-.3-.01-.28-.28.06-.92.13-1.85.2-2.77.05-.69.1-1.39.15-2.08.02-.27.04-.55.05-.82,0-.19.08-.28.29-.28,1.13,0,2.26,0,3.39,0,.08,0,.16,0,.24-.01.19-.04.29-.16.29-.35,0-.19-.1-.31-.29-.35-.08-.02-.16,0-.24,0-1.2,0-2.39,0-3.59,0-.28,0-.29-.01-.22-.28.13-.51.26-1.02.38-1.54.04-.17.12-.23.3-.23,1.24,0,2.48,0,3.72,0,.21,0,.26.08.26.27,0,1.02,0,2.04,0,3.07,0,.45.25.62.64.4.29-.16.54-.2.82,0,.19.14.4.13.59,0,.27-.19.53-.19.8,0,.05.04.12.06.18.08.25.07.46-.08.47-.33.01-.17,0-.33,0-.5,0-.14.06-.19.2-.19,1.35,0,2.7,0,4.04,0,.17,0,.22.08.21.23-.03.56-.06,1.11-.1,1.67-.04.62-.08,1.24-.12,1.86-.07,1.16-.14,2.33-.21,3.49,0,.07,0,.14-.01.21.26.08.48.34.71.46.03-.56.09-1.27.13-1.84.05-.85.1-1.71.14-2.56.06-1.06.12-2.11.18-3.17.01-.18.03-.36.24-.44.05-.02.09-.09.16-.16.02.28.04.53.04.79.04,1.65.07,3.3.1,4.95.02,1,.05,2.24.07,3.24.31.3.57.48.78.77-.02-.97-.04-1.94-.06-2.91ZM31.33,14.73c0,.15-.04.2-.19.14-.17-.07-.33,0-.47.09-.24.16-.47.17-.72,0-.16-.11-.34-.16-.53-.08-.14.06-.14-.05-.14-.14,0-.41,0-.81,0-1.22,0-.4,0-.8,0-1.19,0-.18.06-.24.24-.24.53,0,1.06,0,1.58,0,.17,0,.23.05.23.23,0,.8,0,1.61,0,2.41ZM37.41,12.35c-.13.53-.27,1.05-.39,1.58-.04.16-.12.22-.29.22-1.48,0-2.95,0-4.43,0-.19,0-.25-.07-.25-.25,0-.51.01-1.03,0-1.54,0-.2.06-.27.26-.27.82,0,1.64,0,2.45,0s1.62,0,2.43,0c.26,0,.27.02.21.26Z"/>
        <g>
          <path class="cls-1" d="M31.35,3.51c-.06-1.39.27-3.23-1.57-3.51H3.96c-1.9.2-1.59,2.1-1.64,3.51L.02,9.38c-.13,1.52.87,3.08,2.33,3.53v17.43H.95c-.29,0-.79.42-.88.7-.08.27-.09,1.63-.01,1.91.08.29.46.63.76.68l13.17.08c0-.22.03-.45.05-.67l-12.88-.09c-.68.07-.54-1.74-.19-1.84h13.49c.09-.27.18-.52.29-.77h-.58v-13.28s-.13-.39-.17-.45c-.2-.38-.49-.45-.89-.48-2.19-.16-4.58.12-6.79,0-.41,0-.86.54-.86.92v13.28h-2.33V13.18c.34-.03.73.04,1.06,0,.68-.08,1.65-.61,2.13-1.1l.68-.9c1.36,2.64,5.17,2.66,6.52,0l.72.93c1.49,1.42,3.73,1.42,5.22,0l.72-.93c.61,1.18,1.45,1.79,2.65,1.89.08-.24.16-.44.23-.69-1.25-.08-2.29-.91-2.51-2.51h5.77c-.05.39-.18.64-.33.94.18-.02,1.28,0,1.45,0-.14-.28-.24-.57-.29-.93h5.76c-.05.38-.14.65-.29.94.1-.01.61.01.83,0,.19-.46.25-.89.22-1.39l-2.31-5.93ZM6.2,17.06s.09-.1.07-.17h7.07c-.02.07.07.15.07.17v13.28h-7.21v-13.28ZM3.11,1.55c0-.4.71-.93,1.13-.86h25.12c.44-.09,1.2.44,1.2.86v1.54H3.11v-1.54ZM.78,9.89h5.77c-.46,3.37-5.3,3.38-5.77,0ZM6.68,9.13H.91L2.97,3.85h4.94l-1.24,5.28ZM7.36,9.89h5.76c-.46,3.37-5.3,3.38-5.76,0ZM13.2,9.13h-5.76l1.24-5.28h4.94l-.41,5.28ZM13.95,9.89h5.77c-.46,3.37-5.3,3.38-5.77,0ZM13.95,9.13l.41-5.28h4.94l.41,5.28h-5.77ZM20.47,9.13l-.41-5.28h4.94l1.24,5.28h-5.77ZM26.99,9.13l-1.24-5.28h4.94l2.06,5.28h-5.76Z"/>
          <path class="cls-1" d="M12.17,22c.08-.27.69-.18.69,0v3.23c0,.26-.69.26-.69,0v-3.23Z"/>
        </g>
      </g>
      <path class="cls-1" d="M30.12,29.94c-1.86.07-3.79-.17-5.62.17-4.04.74-7.06,3.61-8.34,7.45-.09.28-.2.99-.4,1.14-.32.24-.72.1-.87-.26-.12-.29-.22-1.1-.26-1.44-.65-6.43,3.92-12.28,10.32-13.14,1.69-.23,3.45-.06,5.16-.11v-2.34c0-.96,1.23-1.64,2.04-1.12l6.7,5.49c.66.55.68,1.43.1,2.05l-6.82,5.58c-.84.51-2.02-.17-2.02-1.15v-2.34ZM26.64,24.85c-6.08.22-10.58,4.39-10.98,10.52,0,.08-.04.35.05.38,1.68-3.85,5.61-6.56,9.8-6.89.48-.04.97,0,1.44,0,1.28-.01,2.57,0,3.85,0,.25.07.39.23.44.49v2.97c.18.36.45.08.65-.08,2.09-1.55,4.03-3.47,6.12-5.04.24-.23.41-.3.13-.59l-6.57-5.36c-.2-.04-.3.02-.32.22-.12.87.12,2.01,0,2.88"/>
    </g>
  </g>
</svg>