<?xml version="1.0" encoding="UTF-8"?>
<svg id="Layer_2" data-name="Layer 2" xmlns="http://www.w3.org/2000/svg" viewBox="0 0 39.83 32.4">
  <defs>
    <style>
      .cls-1 {
        fill: #fff;
      }
    </style>
  </defs>
  <g id="Layer_1-2" data-name="Layer 1">
    <g>
      <g>
        <path class="cls-1" d="M31.53,29.23h-1.36v-1.35c-.25-.08-.49-.16-.73-.27,0,0,0,0,0,0v1.62h-15.81v-12.8s-.13-.37-.16-.43c-.2-.37-.47-.43-.86-.46-2.11-.16-4.42.12-6.54,0-.4,0-.83.52-.83.89v12.8h-2.25V12.7c.33-.03.71.04,1.03,0,.65-.08,1.59-.59,2.05-1.06l.66-.86c1.31,2.54,4.98,2.56,6.28,0l.69.89c1.43,1.37,3.59,1.37,5.03,0l.69-.9c1.1,2.13,3.98,2.59,5.69.86.24-.24.38-.6.56-.82.13-.17.3.32.4.45.45.57,1.6,1.42,2.35,1.42h1.03v1.19s0,0,0,0c.23-.1.47-.19.73-.27v-1.19c1.37-.43,2.35-1.9,2.25-3.34l-2.22-5.71c-.06-1.34.26-3.11-1.51-3.38H3.82c-1.83.19-1.53,2.02-1.58,3.38L.02,9.03c-.13,1.47.84,2.96,2.24,3.4v16.8H.91c-.28,0-.77.4-.85.67-.08.26-.08,1.57-.01,1.84.07.28.44.61.73.66l30.98-.03c.82-.21.71-1.46.66-2.12-.03-.46-.4-1.02-.9-1.02ZM5.97,16.44s.09-.1.07-.17h6.81c-.02.06.07.14.07.17v12.8h-6.94v-12.8ZM7.1,9.53h5.55c-.44,3.25-5.11,3.26-5.55,0ZM12.72,8.8h-5.56l1.19-5.09h4.76l-.4,5.09ZM13.44,9.53h5.56c-.44,3.25-5.11,3.26-5.56,0ZM13.44,8.8l.4-5.09h4.76l.4,5.09h-5.56ZM19.33,3.71h4.76l1.19,5.09h-5.56l-.4-5.09ZM19.79,9.53h5.55c-.44,3.25-5.11,3.26-5.55,0ZM26.14,9.53h5.56c-.44,3.25-5.11,3.26-5.56,0ZM31.56,8.8h-5.56l-1.19-5.09h4.76l1.98,5.09ZM3,1.49c0-.38.69-.9,1.09-.83h24.21c.42-.09,1.15.42,1.15.83v1.49H3v-1.49ZM2.86,3.71h4.76l-1.19,5.09H.88l1.98-5.09ZM.75,9.53h5.56c-.44,3.25-5.11,3.26-5.56,0ZM31.76,31.32c-.04.31-.18.43-.49.43H1.11c-.65.07-.52-1.67-.18-1.78l30.48-.02c.48.02.4,1,.36,1.36Z"/>
        <path class="cls-1" d="M26.37,24.87h-9.66s-.1-.09-.1-.1v-8.4s.09-.1.1-.1h9.69v.31c.15-.26.32-.5.51-.74h0c-.15-.18-.36-.3-.67-.31l-9.64.02c-.43.17-.67.4-.71.88-.25,2.62.19,5.61,0,8.27,0,.48.44.87.89.89,3.05-.21,6.45.27,9.46,0,.22-.02.37-.09.49-.17-.13-.18-.25-.37-.36-.56Z"/>
        <path class="cls-1" d="M11.73,21.2c.07-.26.66-.18.66,0v3.11c0,.25-.66.25-.66,0v-3.11Z"/>
      </g>
      <g>
        <g>
          <path class="cls-1" d="M33.46,13.97l.88.15c5.47,1.19,7.28,8.24,2.94,11.89-3.95,3.33-9.98,1.22-11.08-3.75l-.15-.88c.02-.38-.03-.79,0-1.17.22-3.21,3.02-6.01,6.23-6.23h1.17ZM32.52,14.67c-4.79.27-7.44,5.77-4.62,9.69,2.82,3.92,8.89,3.17,10.67-1.31,1.66-4.17-1.59-8.64-6.04-8.39Z"/>
          <path class="cls-1" d="M32.9,27.74c-.75,0-1.51-.12-2.25-.38-2.33-.79-4.04-2.69-4.57-5.09l-.15-.89c0-.2,0-.39,0-.57,0-.21-.01-.42,0-.63.23-3.27,3.07-6.12,6.35-6.35h1.19s.01,0,.01,0l.88.15c2.6.57,4.61,2.54,5.25,5.14.65,2.63-.19,5.23-2.25,6.97-1.28,1.08-2.85,1.64-4.46,1.64ZM32.28,14.1c-3.15.22-5.89,2.96-6.11,6.12-.01.19,0,.4,0,.6,0,.19.01.38,0,.57l.15.85c.51,2.3,2.15,4.13,4.4,4.9,2.24.76,4.66.3,6.47-1.22,1.99-1.67,2.8-4.18,2.17-6.72-.62-2.51-2.56-4.41-5.06-4.95l-.86-.14h-1.16ZM32.83,27.03c-2,0-3.85-.94-5.04-2.59-1.35-1.88-1.56-4.24-.56-6.34,1-2.1,2.97-3.42,5.28-3.55h0c2.14-.11,4.17.85,5.43,2.6,1.25,1.74,1.53,3.97.74,5.96-.85,2.14-2.74,3.59-5.05,3.88-.27.03-.54.05-.8.05ZM32.53,14.8c-2.21.12-4.1,1.4-5.06,3.41-.96,2.01-.76,4.28.54,6.08,1.3,1.8,3.39,2.72,5.6,2.44,2.21-.27,4.02-1.66,4.84-3.72.76-1.91.5-4.05-.71-5.72-1.21-1.68-3.15-2.61-5.21-2.49h0Z"/>
        </g>
        <g>
          <path class="cls-1" d="M33.22,20.44h2.14c.11,0,.25.22.25.33,0,.12-.13.36-.25.36h-2.14v2.14c0,.11-.22.25-.33.25-.12,0-.36-.13-.36-.25v-2.14h-2.14c-.12,0-.26-.24-.25-.36,0-.11.14-.33.25-.33h2.14v-2.14c0-.11.22-.25.33-.25.12,0,.36.13.36.25v2.14Z"/>
          <path class="cls-1" d="M32.88,23.66c-.11,0-.27-.07-.38-.17-.08-.08-.1-.16-.1-.21v-2.02h-2.02s-.13-.02-.21-.1c-.1-.1-.17-.27-.17-.38,0-.15.18-.46.38-.46h2.02v-2.02c0-.2.3-.37.45-.38.12,0,.28.07.38.17.08.08.1.16.1.21v2.02h2.02c.2,0,.37.3.38.46,0,.11-.07.28-.17.38-.08.08-.16.1-.21.1h-2.02v2.02c0,.2-.3.37-.45.38h0ZM32.52,21.01h.12v2.27s.18.12.23.13c.06,0,.2-.09.21-.14v-2.26s2.27,0,2.27,0c.04-.01.13-.17.13-.23,0-.06-.09-.2-.14-.21h-2.26s0-2.27,0-2.27c-.01-.04-.16-.13-.23-.13h0c-.06,0-.2.09-.21.14v2.26s-2.27,0-2.27,0c-.04.01-.13.16-.13.21,0,.06.09.21.14.23h2.14Z"/>
        </g>
      </g>
    </g>
  </g>
</svg>