<?xml version="1.0" encoding="UTF-8"?>
<svg id="Layer_2" data-name="Layer 2" xmlns="http://www.w3.org/2000/svg" viewBox="0 0 39.91 32.4">
  <defs>
    <style>
      .cls-1 {
        fill: #192754;
      }
    </style>
  </defs>
  <g id="Layer_1-2" data-name="Layer 1">
    <g>
      <g>
        <path class="cls-1" d="M31.53,29.23h-1.36v-1.35c-.25-.08-.49-.16-.73-.27,0,0,0,0,0,0v1.62h-15.81v-12.8s-.13-.37-.16-.43c-.2-.37-.47-.43-.86-.46-2.11-.16-4.42.12-6.54,0-.4,0-.83.52-.83.89v12.8h-2.25V12.7c.33-.03.71.04,1.03,0,.65-.08,1.59-.59,2.05-1.06l.66-.86c1.31,2.54,4.98,2.56,6.28,0l.69.89c1.43,1.37,3.59,1.37,5.03,0l.69-.9c1.1,2.13,3.98,2.59,5.69.86.24-.24.38-.6.56-.82.13-.17.3.32.4.45.45.57,1.6,1.42,2.35,1.42h1.03v1.19s0,0,0,0c.23-.1.47-.19.73-.27v-1.19c1.37-.43,2.35-1.9,2.25-3.34l-2.22-5.71c-.06-1.34.26-3.11-1.51-3.38H3.82c-1.83.19-1.53,2.02-1.58,3.38L.02,9.03c-.13,1.47.84,2.96,2.24,3.4v16.8H.91c-.28,0-.77.4-.85.67-.08.26-.08,1.57-.01,1.84.07.28.44.61.73.66l30.98-.03c.82-.21.71-1.46.66-2.12-.03-.46-.4-1.02-.9-1.02ZM5.97,16.44s.09-.1.07-.17h6.81c-.02.06.07.14.07.17v12.8h-6.94v-12.8ZM7.1,9.53h5.55c-.44,3.25-5.11,3.26-5.55,0ZM12.72,8.8h-5.56l1.19-5.09h4.76l-.4,5.09ZM13.44,9.53h5.56c-.44,3.25-5.11,3.26-5.56,0ZM13.44,8.8l.4-5.09h4.76l.4,5.09h-5.56ZM19.33,3.71h4.76l1.19,5.09h-5.56l-.4-5.09ZM19.79,9.53h5.55c-.44,3.25-5.11,3.26-5.55,0ZM26.14,9.53h5.56c-.44,3.25-5.11,3.26-5.56,0ZM31.56,8.8h-5.56l-1.19-5.09h4.76l1.98,5.09ZM3,1.49c0-.38.69-.9,1.09-.83h24.21c.42-.09,1.15.42,1.15.83v1.49H3v-1.49ZM2.86,3.71h4.76l-1.19,5.09H.88l1.98-5.09ZM.75,9.53h5.56c-.44,3.25-5.11,3.26-5.56,0ZM31.76,31.32c-.04.31-.18.43-.49.43H1.11c-.65.07-.52-1.67-.18-1.78l30.48-.02c.48.02.4,1,.36,1.36Z"/>
        <path class="cls-1" d="M26.37,24.87h-9.66s-.1-.09-.1-.1v-8.4s.09-.1.1-.1h9.69v.31c.15-.26.32-.5.51-.74h0c-.15-.18-.36-.3-.67-.31l-9.64.02c-.43.17-.67.4-.71.88-.25,2.62.19,5.61,0,8.27,0,.48.44.87.89.89,3.05-.21,6.45.27,9.46,0,.22-.02.37-.09.49-.17-.13-.18-.25-.37-.36-.56Z"/>
        <path class="cls-1" d="M11.73,21.2c.07-.26.66-.18.66,0v3.11c0,.25-.66.25-.66,0v-3.11Z"/>
      </g>
      <g>
        <path class="cls-1" d="M31.65,15.53c3.09-.12,6.17,1.5,7.8,4.12.8,1.29.47,1.88-.37,3.01-3.5,4.71-10.55,4.78-14.14.13-1.1-1.43-1.29-2-.22-3.53,1.58-2.24,4.18-3.63,6.93-3.74ZM31.68,16.57c-2.41.1-4.69,1.31-6.09,3.27-.26.36-.67.87-.49,1.32.26.65,1.22,1.71,1.76,2.16,3.5,2.98,8.79,2.35,11.46-1.38.24-.33.65-.86.52-1.28-.06-.18-.39-.65-.52-.82-1.5-2.09-4.05-3.37-6.64-3.27Z"/>
        <path class="cls-1" d="M31.82,17.78c2.46-.11,4.06,2.57,2.82,4.69-1.18,2.02-4.17,2.02-5.35,0-1.18-2.02.2-4.59,2.53-4.69ZM31.85,18.82c-1.62.08-2.54,1.97-1.56,3.29.83,1.13,2.52,1.13,3.34,0,1.02-1.4-.05-3.37-1.78-3.29Z"/>
      </g>
    </g>
  </g>
</svg>