<?xml version="1.0" encoding="UTF-8"?>
<svg id="Layer_2" data-name="Layer 2" xmlns="http://www.w3.org/2000/svg" viewBox="0 0 40.52 36.78">
  <defs>
    <style>
      .cls-1 {
        fill: #192754;
      }
    </style>
  </defs>
  <g id="Layer_1-2" data-name="Layer 1">
    <g>
      <path class="cls-1" d="M0,27.61c.08-.06.3-.4.36-.4h5.33c.02-.7-.02-1.4,0-2.1.11-3.77.14-7.6.16-11.37.02-3.07-.2-6.46,0-9.49.14-2.12,1.36-3.69,3.46-4.13,9.19-.16,18.43-.16,27.62,0,4.97,1.11,3.23,6.51,3.54,10.22.05.17-.34.59-.44.59h-6.84v20.82c0,.71-.65,2.06-1.07,2.64-1.32,1.81-3.07,2.22-5.21,2.3-7.03.26-14.22-.21-21.27,0-2.59-.17-4.68-1.59-5.47-4.1l-.18-.73v-4.27ZM33.03,1.45H9.52c-.1,0-.96.4-1.09.49-1.65,1.12-1.12,3.56-1.16,5.32-.08,3.77-.14,7.6-.16,11.37-.02,2.86.02,5.72,0,8.58h15.92c.15,0,.4.5.43.68.3,2.09-.61,3.96.96,5.84,2.54,3.03,7.14,1.36,7.43-2.52V3.94c.13-.94.56-1.79,1.18-2.49ZM39.12,9.59v-5.57c0-1.16-1.4-2.4-2.51-2.55-1.55-.21-3.42,1.07-3.42,2.71v5.41h5.93ZM22.05,28.55H1.34v3.04c0,1.49,2.09,3.67,3.6,3.67h19.01c-1.95-1.77-1.99-4.26-1.9-6.72Z"/>
      <path class="cls-1" d="M19.03,4.46c.23-.03.35.06.55.13,1.63.62,3.34,1.78,4.98,2.45.27.13.32.33.34.6.1,1.16.13,4.86-.14,5.87-.7,2.6-3.34,3.57-5.29,5.06-.21.13-.47.13-.69,0-2.08-1.57-5.19-2.78-5.43-5.79-.11-1.33-.12-3.82,0-5.14.03-.28.07-.47.34-.6l5.33-2.58ZM19.03,5.96l-4.29,2.12c.01,1.45-.15,2.95-.04,4.39.19,2.56,2.69,3.29,4.39,4.68,1.29-1,3.34-1.81,4.09-3.32.77-1.56.2-3.84.38-5.55l-.13-.26-4.14-2.03c-.08-.04-.17-.04-.26-.02Z"/>
      <path class="cls-1" d="M11.36,23.43l15.95-.02c.73.09.87.91.27,1.3l-16.08.04c-.76-.09-.84-1.08-.14-1.33Z"/>
      <path class="cls-1" d="M27.79,20.59c.42.5,0,1.22-.65,1.17h-15.57c-.74-.05-.94-.89-.35-1.31l16.09-.05c.15,0,.39.08.49.19Z"/>
      <path class="cls-1" d="M20.92,9.6c.64-.14,1.06.51.72,1.04l-2.85,2.84c-.19.08-.42.1-.61.02-.1-.05-1.57-1.51-1.62-1.62-.28-.65.35-1.3.98-.9.2.13.83.93.98.9.53-.34,1.92-2.17,2.4-2.27Z"/>
    </g>
  </g>
</svg>