<?xml version="1.0" encoding="UTF-8"?>
<svg id="Layer_2" data-name="Layer 2" xmlns="http://www.w3.org/2000/svg" viewBox="0 0 39.84 28.21">
  <defs>
    <style>
      .cls-1 {
        fill: #fff;
      }
    </style>
  </defs>
  <g id="Layer_1-2" data-name="Layer 1">
    <g>
      <path class="cls-1" d="M25.39,0c.79.03,1.56.51,2.01,1.48.9,1.92,1.82,3.84,2.69,5.77.26.57.64.79,1.23.86,2.12.24,4.24.51,6.36.79,1.04.14,1.72.74,2.03,1.73.3.98.04,1.85-.69,2.54-1.55,1.47-3.12,2.94-4.7,4.38-.41.37-.54.75-.43,1.29.42,2.08.82,4.16,1.22,6.25.2,1.03-.04,1.92-.89,2.57-.88.68-1.83.71-2.8.18-1.8-.99-3.61-1.97-5.39-3-.6-.35-1.1-.39-1.73-.03-1.78,1.03-3.59,2.01-5.39,3-1.65.9-3.47.05-3.8-1.76-.07-.38,0-.74.08-1.1.38-1.97.74-3.94,1.15-5.9.14-.69-.02-1.17-.55-1.65-1.57-1.41-3.09-2.86-4.62-4.31-.73-.69-.93-1.55-.63-2.5.3-.94.97-1.52,1.96-1.69.5-.08,1-.14,1.5-.2,1.72-.21,3.44-.42,5.16-.63.46-.06.74-.31.94-.73.91-1.97,1.83-3.94,2.76-5.91.46-.96,1.25-1.44,2.51-1.44ZM16.84,25.58c-.01.31.08.58.35.74.33.19.64.1.96-.07,1.86-1.03,3.72-2.05,5.57-3.09.95-.54,1.87-.54,2.83,0,1.84,1.03,3.69,2.04,5.53,3.06.34.19.69.32,1.04.07.36-.26.31-.64.24-1.01-.4-2.08-.8-4.17-1.21-6.25-.21-1.05.08-1.91.88-2.64,1.58-1.44,3.13-2.92,4.7-4.37.29-.27.42-.58.3-.95-.11-.34-.4-.46-.75-.5-1.96-.23-3.9-.53-5.87-.7-1.48-.13-2.5-.75-3.02-2.18-.24-.66-.58-1.29-.88-1.93-.54-1.16-1.08-2.32-1.62-3.48-.15-.32-.37-.58-.76-.58-.38,0-.6.26-.75.58-.04.09-.09.18-.13.27-.85,1.83-1.72,3.66-2.55,5.5-.47,1.03-1.22,1.6-2.36,1.73-2.11.24-4.21.52-6.31.78-.36.04-.67.14-.79.52-.13.4.05.71.35.98,1.57,1.45,3.14,2.91,4.71,4.37.75.7,1.05,1.54.83,2.56-.19.87-.34,1.75-.51,2.63-.25,1.32-.51,2.65-.76,3.97Z"/>
      <path class="cls-1" d="M0,14.56c0-.97.5-1.68,1.46-2.02,1.5-.52,3-1.03,4.5-1.51.46-.15.67-.41.77-.88.32-1.48.7-2.95,1.05-4.42.21-.9.71-1.55,1.62-1.75.95-.21,1.72.12,2.28.93.36.51.75,1,1.11,1.51.34.48.29,1.01-.1,1.3-.42.31-.9.22-1.27-.27-.38-.49-.74-1-1.12-1.5-.12-.16-.26-.34-.49-.28-.22.06-.29.25-.34.46-.36,1.54-.75,3.08-1.1,4.62-.21.95-.74,1.55-1.66,1.85-1.43.46-2.85.94-4.27,1.43-.27.09-.66.1-.7.49-.03.35.32.44.55.59,1.31.8,2.61,1.61,3.93,2.4.76.46,1.13,1.11,1.13,2,0,1.6.05,3.2.08,4.8,0,.21-.04.46.2.58.27.13.45-.08.62-.22,1.25-1.06,2.48-2.13,3.73-3.18.56-.48,1.21-.66,1.93-.44.48.15.76.55.69.98-.08.46-.42.73-.95.7-.33-.02-.58.08-.82.3-1.18,1.03-2.38,2.04-3.56,3.07-.71.61-1.49.78-2.35.4-.87-.38-1.23-1.11-1.25-2.03-.04-1.6.04-3.2-.06-4.8-.02-.38-.17-.61-.49-.81-1.35-.8-2.68-1.63-4.02-2.44C.42,15.99,0,15.4,0,14.56Z"/>
    </g>
  </g>
</svg>