<?xml version="1.0" encoding="UTF-8"?>
<svg id="Layer_2" data-name="Layer 2" xmlns="http://www.w3.org/2000/svg" viewBox="0 0 39.29 38.96">
  <defs>
    <style>
      .cls-1 {
        fill: #fff;
      }
    </style>
  </defs>
  <g id="Layer_1-2" data-name="Layer 1">
    <g>
      <path class="cls-1" d="M36.39,6.16c-2.37-2.43-5.3-3.13-8.58-2.43-.48.1-.72.03-.99-.38-.5-.76-1.18-1.36-1.94-1.87C20.86-1.16,15.12-.18,12.12,3.69c-.2.25-.36.31-.66.21-.92-.31-1.86-.45-2.77-.48-.68,0-1.28.08-1.88.23-2.67.67-4.53,2.35-5.69,4.78-1.5,3.14-1.57,6.3.22,9.37,1.23,2.12,3.16,3.38,5.44,4.13.38.13.52.29.52.7-.02,2.87-.01,5.74-.01,8.61q0,1.72,1.6,2.39c4.23,1.79,8.63,2.41,13.2,2.02.87-.07,1.73-.19,2.58-.34-.85-.29-1.59-.72-2.23-1.23-4.08.42-8.17-.08-12.25-1.56,3.3-1.18,6.61-1.73,9.91-1.68-.19-.49-.34-1-.45-1.52-3.56,0-7.02.65-10.39,1.91-.5.19-.5.19-.5-.34,0-2.16,0-4.31,0-6.47,0-2.14,0-4.28,0-6.42,0-.25,0-.5-.18-.7-.22-.25-.5-.3-.8-.2-.3.1-.48.33-.48.66,0,.79-.01,1.57,0,2.36,0,.3-.03.42-.39.31-3.07-.98-5.23-3.85-5.34-7.07-.07-2.02.39-3.88,1.59-5.51,2.16-2.94,6.13-3.75,9.28-1.9.11.07.22.14.34.19.37.16.7.09.93-.24.23-.33.2-.7-.11-.94-.34-.26-.23-.45,0-.69,1.47-1.6,3.25-2.57,5.44-2.74,2.2-.17,4.16.42,5.8,1.9,1.68,1.51,2.31,3.45,2.09,5.67-.04.42-.14.83-.21,1.25-.09.51.1.88.5.98.46.12.81-.11.95-.65.44-1.66.39-3.32-.15-4.94-.14-.42-.01-.52.36-.6,3.61-.75,7.03,1.05,8.64,4.59,1.95,4.25.05,8.92-4.26,10.51-.26.1-.4.14-.49.1.5.35.95.74,1.34,1.19.26-.11.52-.24.77-.38,3.07-1.73,4.84-4.32,4.91-7.87.05-2.73-.99-5.14-2.9-7.1Z"/>
      <path class="cls-1" d="M38.77,38.96h-.41l-5.17-5c-2.54,2.06-6.22,2.32-9.05.67-1.9-1.1-3.31-2.96-3.77-5.12l-.17-.96c.02-.46-.03-.95,0-1.41.25-3.47,3.12-6.41,6.48-7.03,6.99-1.29,12.23,6.43,8.01,12.31-.08.1-.55.65-.55.71l4.94,4.88c.22.39.07.76-.31.96ZM27.86,21.22c-4.92.23-8.04,5.51-5.56,9.87,2.57,4.52,9.25,4.48,11.79-.05,2.57-4.6-1.06-10.06-6.23-9.82Z"/>
    </g>
  </g>
</svg>