<?xml version="1.0" encoding="UTF-8"?>
<svg id="Layer_2" data-name="Layer 2" xmlns="http://www.w3.org/2000/svg" viewBox="0 0 42.15 36.22">
  <defs>
    <style>
      .cls-1 {
        fill: #fff;
      }
    </style>
  </defs>
  <g id="Layer_1-2" data-name="Layer 1">
    <g>
      <g>
        <path class="cls-1" d="M22.04,20.74c-.33-.1-.66-.19-.98-.31.42-.15.85-.28,1.27-.4.18-.4.4-.78.63-1.14-.84.19-1.67.42-2.49.72-.31.12-.31.12-.31-.21,0-1.35,0-2.71,0-4.06s0-2.69,0-4.04c0-.16,0-.31-.11-.44-.14-.15-.32-.19-.5-.13-.19.06-.3.21-.3.42,0,.49,0,.99,0,1.48,0,.19-.02.27-.24.2-1.93-.61-3.29-2.42-3.36-4.44-.05-1.27.25-2.44,1-3.46,1.36-1.85,3.85-2.35,5.83-1.19.07.04.14.09.21.12.23.1.44.06.58-.15.14-.21.13-.44-.07-.59-.21-.17-.14-.28,0-.43.92-1.01,2.04-1.61,3.42-1.72,1.38-.11,2.61.26,3.65,1.19,1.06.95,1.45,2.17,1.31,3.56-.03.26-.09.52-.13.78-.06.32.06.55.31.61.29.07.51-.07.6-.41.28-1.04.24-2.08-.1-3.11-.09-.26,0-.33.23-.38,2.27-.47,4.42.66,5.43,2.88,1.22,2.67.03,5.61-2.68,6.6-.37.13-.38.13-.38-.27,0-.35,0-.7,0-1.04,0-.12,0-.24-.04-.35-.06-.23-.23-.34-.47-.33-.23.01-.37.15-.42.37-.02.11-.02.22-.02.33,0,1.51,0,3.02,0,4.53.33.15.65.32.95.5,0-.76,0-1.51,0-2.27,0-.27.08-.39.35-.46.37-.09.73-.25,1.06-.44,1.93-1.09,3.04-2.71,3.08-4.94.03-1.72-.62-3.23-1.82-4.46-1.49-1.53-3.33-1.97-5.39-1.53-.3.06-.46.02-.62-.24-.31-.48-.74-.86-1.22-1.17-2.53-1.67-6.14-1.05-8.02,1.38-.12.16-.23.19-.41.13-.58-.19-1.17-.28-1.74-.3-.43,0-.81.05-1.18.14-1.68.42-2.85,1.47-3.58,3-.94,1.97-.98,3.96.14,5.89.77,1.33,1.99,2.12,3.42,2.6.24.08.33.18.33.44-.01,1.8,0,3.61,0,5.41q0,1.08,1,1.5c.5.21,1,.39,1.51.55.08-.32.18-.63.29-.93Z"/>
        <g>
          <path class="cls-1" d="M23.12,29.8h-.52v-.84c-.56-1.02-.91-2.16-1.07-3.33v4.17h-2.88v-5.26s-.17-.3-.2-.33c-.11-.1-.23-.09-.36-.11-1.81-.17-3.87.13-5.71,0-.11-.05-.43.28-.43.31v5.4h-2.88V2.57l5.67,2.36c.07-.39.17-.77.29-1.15-2.02-.89-4.04-1.76-6.08-2.48-.32-.11-.53-.24-.83.01-.04.04-.2.24-.2.27v9.76H2.72s-.37.27-.37.3v18.14H.38c-.35,0-.71,1.03.2,1.14h23.53c-.36-.35-.69-.73-.98-1.14ZM7.92,29.8H3.43V12.5h4.49v17.3ZM17.51,29.8h-4.49v-4.63h4.49v4.63Z"/>
          <path class="cls-1" d="M17.24,14.19c-1.52.02-3.15-.16-4.59-.01-.94.09-.94,1.05-.2,1.14,1.75.21,3.91-.16,5.7,0,.09,0,.19-.05.27-.11-.43-.31-.82-.65-1.18-1.02Z"/>
          <path class="cls-1" d="M18.49,19.25c-.07.08-.23.15-.34.16-1.8-.16-3.95.2-5.7,0-.77-.09-.62-1.14.14-1.14,1.7.14,3.7-.19,5.36,0,.54.06.97.53.55.98Z"/>
          <path class="cls-1" d="M14.61,10.16h-2.35c-.46.24-.44.88.05,1.06h2.75s-.33-.57-.46-1.06Z"/>
        </g>
      </g>
      <path class="cls-1" d="M41.7,36.22h-.44l-5.52-5.34c-2.72,2.2-6.64,2.47-9.66.72-2.02-1.18-3.53-3.16-4.03-5.47l-.18-1.03c.03-.49-.04-1.02,0-1.5.27-3.7,3.33-6.84,6.92-7.51,7.46-1.38,13.06,6.87,8.55,13.14-.08.11-.59.7-.58.75l5.28,5.21c.24.42.07.81-.33,1.03ZM30.06,17.27c-5.25.25-8.58,5.89-5.94,10.54s9.88,4.79,12.58-.05-1.13-10.75-6.65-10.49Z"/>
    </g>
  </g>
</svg>