<?xml version="1.0" encoding="UTF-8"?>
<svg id="Layer_2" data-name="Layer 2" xmlns="http://www.w3.org/2000/svg" viewBox="0 0 39.88 30.83">
  <defs>
    <style>
      .cls-1 {
        fill: #192754;
      }
    </style>
  </defs>
  <g id="Layer_1-2" data-name="Layer 1">
    <g>
      <path class="cls-1" d="M30.45,24.27c-.11-.09-.15-.2-.17-.34,0-.04-.01-.09-.02-.13-.34.05-.7.08-1.06.09-.02.15-.13.17-.44.17-.59,0-1.18,0-1.77,0-.36,0-.41-.06-.36-.42-.35-.09-.68-.19-1-.31-.1.73-.12.74-.89.74h-4.45c-1.63,0-3.27,0-4.9,0-.37,0-.36,0-.33-.38.11-1.2.22-2.39.32-3.59.02-.18.06-.28.26-.34.61-.18.89-.66.72-1.28-.38-1.4-.77-2.8-1.16-4.2-.16-.56-.49-.8-1.08-.8-1.55,0-3.11,0-4.66,0-.38,0-.41-.01-.39-.39.08-1.28.18-2.56.27-3.84.07-.96.14-1.92.2-2.88.03-.38.05-.76.07-1.14.01-.27.11-.39.41-.38,1.56.01,3.13,0,4.69,0,.11,0,.22,0,.33-.01.26-.06.4-.22.4-.49,0-.27-.14-.43-.4-.49-.11-.02-.22-.01-.33-.01-1.65,0-3.31,0-4.96,0-.39,0-.4-.02-.31-.39.18-.71.36-1.42.53-2.13.06-.24.17-.32.41-.32,1.71,0,3.43,0,5.14,0,.28,0,.36.1.36.37,0,1.41,0,2.83,0,4.24,0,.63.35.86.89.56.4-.22.75-.28,1.14,0,.26.19.56.18.82,0,.38-.26.74-.26,1.11,0,.07.05.16.08.25.11.34.09.63-.11.66-.46.02-.23.01-.46,0-.69,0-.19.08-.27.27-.27,1.86,0,3.73,0,5.59,0,.23,0,.3.1.29.31-.04.57-.07,1.14-.1,1.71.33-.07.68-.14,1.04-.17.03-.45.05-.9.08-1.35.01-.25.04-.5.33-.61.07-.03.12-.12.22-.22.02.39.05.74.06,1.09,0,.35.01.7.02,1.05.11,0,.22-.02.34-.02.24,0,.47.02.7.03,0-.16,0-.31-.01-.47-.04-1.62-.08-3.25-.12-4.87,0-.29-.02-.58-.05-.87-.03-.31-.2-.47-.51-.48-.1,0-.2,0-.3,0C22.36,0,16.14,0,9.93,0c-.65,0-.72.05-.88.69-.28,1.12-.56,2.24-.84,3.35-.08.32-.07.6.25.78.14.08.12.22.12.35-.16,2.26-.32,4.51-.48,6.77-.03.4-.08.8-.1,1.2,0,.26-.11.34-.37.34-1.74,0-3.49,0-5.23,0-.77,0-1.05.22-1.26.97-.38,1.35-.76,2.7-1.14,4.05v.6c.16.35.4.6.78.68.14.03.2.11.21.25.11,1.27.23,2.55.35,3.82.02.21-.11.23-.26.23-.53-.03-.88.21-1.08.69C0,26.69.01,28.62,0,30.56c0,.23.05.28.28.28,9.96,0,19.91,0,29.87,0,.48-.22.7-.58.69-1.12-.02-1.51-.01-3.03,0-4.54,0-.36-.09-.67-.38-.9ZM21.08,1c1.13.01,2.26,0,3.39,0,1.12,0,2.24,0,3.36,0,.36,0,.38.02.29.35-.18.73-.37,1.46-.54,2.19-.05.22-.16.31-.4.31-2.04,0-4.09,0-6.13,0-.26,0-.35-.09-.35-.35.01-.71.01-1.42,0-2.13,0-.27.08-.37.36-.37ZM17.2,1.01c.73.01,1.46,0,2.19,0,.23,0,.32.08.32.31,0,1.11,0,2.22,0,3.33,0,.2-.05.28-.26.2-.24-.1-.46,0-.65.12-.34.22-.66.24-1,0-.22-.15-.47-.22-.74-.11-.19.08-.19-.08-.19-.2,0-.56,0-1.12,0-1.68,0-.55,0-1.1,0-1.65,0-.25.09-.34.33-.33ZM1.13,18.36c.33-1.18.67-2.35.98-3.53.07-.26.18-.35.46-.35,3.75,0,7.49,0,11.24,0,.26,0,.39.08.46.34.31,1.19.65,2.37.98,3.56.1.36.08.38-.29.38-2.26,0-4.53,0-6.79,0s-4.49,0-6.73,0c-.41,0-.42-.02-.31-.41ZM6.72,21.7c.97,0,1.94,0,2.92,0,.56,0,.96-.41.98-.97,0-.22,0-.44,0-.66,0-.2.07-.29.28-.29,1.06,0,2.12,0,3.19,0,.19,0,.27.06.24.27-.13,1.22-.26,2.45-.36,3.68-.02.27-.13.35-.39.35-1.79,0-3.59,0-5.38,0s-3.51,0-5.26,0c-.53,0-.52,0-.56-.52-.1-1.16-.2-2.31-.32-3.47-.02-.24.05-.3.27-.3,1.04,0,2.08,0,3.13,0,.23,0,.33.07.32.31-.01.21,0,.42,0,.63.01.57.41.98.96.98ZM7.36,19.78c.64,0,1.28,0,1.92,0,.25,0,.33.09.33.34,0,.58,0,.58-.59.58h-.87c-.37,0-.74,0-1.11,0-.21,0-.28-.09-.28-.29-.02-.63-.03-.63.6-.63ZM29.82,29.46c0,.36-.01.38-.4.38-3.46,0-6.92,0-10.38,0h-3.67c-4.63,0-9.26,0-13.89,0q-.49,0-.49-.5c0-1.29,0-2.59,0-3.88,0-.38,0-.39.39-.39,5.33,0,10.67,0,16,0,.4,0,.4,0,.4.4,0,.4,0,.8,0,1.2,0,.19-.08.27-.27.27-1.41,0-2.83,0-4.24,0-.2,0-.26-.1-.26-.28,0-.21,0-.42,0-.63-.01-.32-.2-.52-.49-.53-.29,0-.5.19-.51.51,0,.34-.01.68,0,1.02.02.49.42.9.91.91,1.65.01,3.31.01,4.96,0,.5,0,.89-.43.9-.95.01-.53.01-1.06,0-1.59,0-.24.06-.34.32-.34,3.46,0,6.92,0,10.38,0,.25,0,.33.09.33.33,0,1.35,0,2.71,0,4.06Z"/>
      <path class="cls-1" d="M39.47,26.5h-.41l-5.17-5c-2.54,2.06-6.22,2.32-9.05.67-1.9-1.1-3.31-2.96-3.77-5.12l-.17-.96c.02-.46-.03-.95,0-1.41.25-3.47,3.12-6.41,6.48-7.03,6.99-1.29,12.23,6.43,8.01,12.31-.08.1-.55.65-.55.71l4.94,4.88c.22.39.07.76-.31.96ZM28.56,8.76c-4.92.23-8.04,5.51-5.56,9.87,2.57,4.52,9.25,4.48,11.79-.05,2.57-4.6-1.06-10.06-6.23-9.82Z"/>
    </g>
  </g>
</svg>