<?xml version="1.0" encoding="UTF-8"?>
<svg id="Layer_2" data-name="Layer 2" xmlns="http://www.w3.org/2000/svg" viewBox="0 0 40.01 28.38">
  <defs>
    <style>
      .cls-1 {
        fill: #192754;
      }
    </style>
  </defs>
  <g id="Layer_1-2" data-name="Layer 1">
    <g>
      <path class="cls-1" d="M.04,21.44c.11-1.06.74-2.5,1.34-3.38,2.39-3.49,7.16-4.45,10.77-2.24,4.14-4.23,11.07-4.37,15.38-.32,4.54-3.05,11.01-.71,12.24,4.67.23.99.31,3.25.17,4.26-.1.75-.86,1.32-1.59,1.37h-7.53c.19,1.26-.55,2.38-1.83,2.57H10.92c-.99-.19-1.83-1.06-1.76-2.11H1.41c-.69-.13-1.12-.63-1.37-1.25.09-1.14-.12-2.46,0-3.59ZM29.32,26.8c.09-.1.17-.34.18-.48.15-1.35.06-4.03-.27-5.34-1.65-6.51-9.63-9.23-15-5.18-3.4,2.56-4.12,6.37-3.75,10.44.04.42.16.63.56.76,5.95.09,11.95.09,17.9,0,.11-.06.3-.12.38-.21ZM30.83,24.48h7.44s.25-.15.28-.19c.42-3.08-.22-6.12-3.02-7.82-2.11-1.29-4.99-1.33-7.03.1,1.79,2.27,2.57,5.02,2.33,7.91ZM1.64,24.95h7.52c-.23-2.95.35-5.71,2.1-8.11-4.15-2.36-9.57.37-9.9,5.18-.02.33-.03,2.65.04,2.77.02.04.2.15.23.16Z"/>
      <path class="cls-1" d="M19.12.03c4.83-.47,8.29,4.6,5.82,8.87-2.07,3.57-7.13,3.97-9.78.81C12.11,6.08,14.46.48,19.12.03ZM19.43,1.36c-6.45.5-5.09,10.25,1.2,9.08,5.67-1.06,4.52-9.52-1.2-9.08Z"/>
      <path class="cls-1" d="M31.36,4.08c4.19-.5,7.04,4.18,4.3,7.5-2.11,2.56-6.23,2.13-7.76-.81-1.43-2.77.35-6.31,3.45-6.68ZM31.67,5.41c-4.21.46-3.62,6.81.6,6.52,4.41-.3,3.88-7.02-.6-6.52Z"/>
      <path class="cls-1" d="M7.27,4.39c6.92-.79,7.04,9.79.14,9.18-5.37-.48-5.44-8.57-.14-9.18ZM7.58,5.72c-4.61.45-3.42,7.63,1.25,6.39,3.82-1.02,2.79-6.78-1.25-6.39Z"/>
    </g>
  </g>
</svg>