<?xml version="1.0" encoding="UTF-8"?>
<svg id="Layer_2" data-name="Layer 2" xmlns="http://www.w3.org/2000/svg" viewBox="0 0 39.35 30.94">
  <defs>
    <style>
      .cls-1 {
        fill: #fff;
      }
    </style>
  </defs>
  <g id="Layer_1-2" data-name="Layer 1">
    <g>
      <path class="cls-1" d="M20.12,2.15c.57.02,1.16.11,1.74.3.19.06.29.03.41-.13C24.15-.11,27.76-.73,30.29.94c.48.32.91.69,1.22,1.17.17.26.32.3.62.24,2.06-.44,3.9,0,5.39,1.53,1.2,1.23,1.85,2.75,1.82,4.46-.04,2.23-1.16,3.86-3.08,4.94-.34.19-.69.35-1.06.44-.26.06-.35.19-.35.46.01,1.89,0,3.77,0,5.66,0,.1,0,.2,0,.3.03.41-.13.64-.53.81-1.86.8-3.78,1.29-5.8,1.46-2.87.24-5.64-.15-8.29-1.27q-1-.42-1-1.5c0-1.8,0-3.61,0-5.41,0-.26-.09-.36-.33-.44-1.43-.47-2.65-1.27-3.42-2.6-1.12-1.93-1.08-3.92-.14-5.89.73-1.53,1.9-2.58,3.58-3,.37-.09.76-.14,1.18-.14ZM20.16,15.34c0,1.35,0,2.71,0,4.06,0,.33,0,.33.31.21,2.47-.92,5.01-1.33,7.64-1.17,1.89.11,3.71.5,5.48,1.16.31.12.31.11.31-.21,0-2.66,0-5.33,0-7.99,0-.11,0-.22.02-.33.05-.22.18-.36.42-.37.24-.01.41.1.47.33.03.11.04.23.04.35,0,.35,0,.7,0,1.04,0,.39.02.4.38.27,2.71-1,3.9-3.93,2.68-6.6-1.02-2.22-3.16-3.36-5.43-2.88-.24.05-.32.11-.23.38.34,1.02.37,2.06.1,3.11-.09.34-.31.48-.6.41-.25-.06-.37-.29-.31-.61.05-.26.11-.52.13-.78.14-1.4-.26-2.61-1.31-3.56-1.03-.93-2.27-1.3-3.65-1.19-1.38.11-2.5.71-3.42,1.72-.14.15-.21.27,0,.43.2.15.21.38.07.59-.14.21-.35.25-.58.15-.08-.03-.14-.08-.21-.12-1.98-1.16-4.48-.66-5.83,1.19-.75,1.03-1.05,2.19-1,3.46.07,2.02,1.43,3.83,3.36,4.44.22.07.25,0,.24-.2,0-.49,0-.99,0-1.48,0-.21.11-.35.3-.42.19-.06.36-.03.5.13.12.13.11.28.11.44,0,1.35,0,2.69,0,4.04ZM33.01,20.43c-3.99-1.42-7.97-1.43-11.95,0,3.98,1.44,7.97,1.43,11.95,0Z"/>
      <g>
        <path class="cls-1" d="M30.62,29.8h-2.38v-6.89c-.18.02-.36.05-.55.05-.21,0-.4-.03-.59-.06v6.9h-4.49v-7.38c-.39-.03-.75-.1-1.07-.22v7.6h-2.88v-5.26s-.17-.3-.2-.33c-.11-.1-.23-.09-.36-.11-1.81-.17-3.87.13-5.71,0-.11-.05-.43.28-.43.31v5.4h-2.88V2.57l5.67,2.36c.07-.39.17-.77.29-1.15-2.02-.89-4.04-1.76-6.08-2.48-.32-.11-.53-.24-.83.01-.04.04-.2.24-.2.27v9.76H2.72s-.37.27-.37.3v18.14H.38c-.35,0-.71,1.03.2,1.14h29.78c.49,0,.79-.38.58-.86-.04-.08-.25-.28-.32-.28ZM7.92,29.8H3.43V12.5h4.49v17.3ZM17.51,29.8h-4.49v-4.63h4.49v4.63Z"/>
        <path class="cls-1" d="M17.24,14.19c-1.52.02-3.15-.16-4.59-.01-.94.09-.94,1.05-.2,1.14,1.75.21,3.91-.16,5.7,0,.09,0,.19-.05.27-.11-.43-.31-.82-.65-1.18-1.02Z"/>
        <path class="cls-1" d="M18.49,19.25c-.07.08-.23.15-.34.16-1.8-.16-3.95.2-5.7,0-.77-.09-.62-1.14.14-1.14,1.7.14,3.7-.19,5.36,0,.54.06.97.53.55.98Z"/>
        <path class="cls-1" d="M14.61,10.16h-2.35c-.46.24-.44.88.05,1.06h2.75s-.33-.57-.46-1.06Z"/>
      </g>
    </g>
  </g>
</svg>