<?xml version="1.0" encoding="UTF-8"?>
<svg id="Layer_2" data-name="Layer 2" xmlns="http://www.w3.org/2000/svg" viewBox="0 0 39.29 35.75">
  <defs>
    <style>
      .cls-1 {
        fill: #192754;
      }
    </style>
  </defs>
  <g id="Layer_1-2" data-name="Layer 1">
    <path class="cls-1" d="M8.7,3.42c.9.03,1.85.17,2.77.48.3.1.46.05.66-.21C15.11-.18,20.86-1.16,24.88,1.49c.76.5,1.44,1.1,1.94,1.87.27.41.52.48.99.38,3.28-.7,6.21,0,8.58,2.43,1.91,1.96,2.95,4.37,2.9,7.1-.06,3.55-1.84,6.14-4.91,7.87-.53.3-1.1.55-1.69.69-.42.1-.55.3-.55.73.02,3,0,6,0,9,0,.16-.01.32,0,.48.05.65-.21,1.02-.84,1.29-2.96,1.27-6.02,2.06-9.23,2.32-4.56.38-8.97-.23-13.2-2.02q-1.59-.67-1.6-2.39c0-2.87,0-5.74.01-8.61,0-.41-.14-.58-.52-.7-2.28-.75-4.21-2.01-5.44-4.13-1.78-3.07-1.72-6.23-.22-9.37,1.16-2.43,3.02-4.11,5.69-4.78.59-.15,1.2-.22,1.88-.23ZM8.76,24.41c0,2.16,0,4.31,0,6.47,0,.53,0,.53.5.34,3.93-1.46,7.97-2.11,12.16-1.86,3,.18,5.9.8,8.72,1.85.5.19.5.18.5-.34,0-4.24,0-8.48,0-12.71,0-.17-.01-.35.02-.52.08-.34.29-.57.67-.58.38-.02.65.15.75.53.05.18.06.37.07.56,0,.55,0,1.11,0,1.66,0,.62.02.64.61.43,4.31-1.59,6.2-6.25,4.26-10.51-1.62-3.54-5.03-5.34-8.64-4.59-.38.08-.5.18-.36.6.54,1.63.6,3.28.15,4.94-.14.54-.5.77-.95.65-.4-.1-.59-.47-.5-.98.07-.42.17-.83.21-1.25.22-2.23-.41-4.16-2.09-5.67-1.64-1.48-3.6-2.07-5.8-1.9-2.19.17-3.97,1.13-5.44,2.74-.22.24-.33.43,0,.69.31.24.34.61.11.94-.23.33-.56.4-.93.24-.12-.05-.23-.13-.34-.19-3.15-1.85-7.12-1.05-9.28,1.9-1.2,1.64-1.66,3.49-1.59,5.51.12,3.22,2.28,6.09,5.34,7.07.36.11.39-.01.39-.31-.01-.79,0-1.57,0-2.36,0-.33.18-.56.48-.66.29-.1.57-.04.8.2.18.2.18.45.18.7,0,2.14,0,4.28,0,6.42ZM29.2,32.51c-6.34-2.27-12.68-2.27-19.02,0,6.34,2.29,12.68,2.28,19.02,0Z"/>
  </g>
</svg>