<?xml version="1.0" encoding="UTF-8"?>
<svg id="Layer_2" data-name="Layer 2" xmlns="http://www.w3.org/2000/svg" viewBox="0 0 40.01 39.07">
  <defs>
    <style>
      .cls-1 {
        fill: #fff;
      }
    </style>
  </defs>
  <g id="Layer_1-2" data-name="Layer 1">
    <g>
      <g>
        <path class="cls-1" d="M30.4,37.37c-.02-1.08-.02-5.95,0-8.33-.02,0-.04.02-.06.03-.43.13-.86.09-1.26-.06v8.7H1.29V1.36h23.13v3.96c0,.18.5.68.68.68h3.96v9.71c.27-.13.56-.2.87-.2.19,0,.38.04.56.09,0-3.56,0-9.08-.07-9.79-.03-.39-.12-.69-.36-1-1.16-1.51-3.2-2.93-4.44-4.44-.29-.25-.69-.35-1.08-.36H1.49C.64.07.09.53,0,1.4c.06,12.22-.1,24.46.08,36.67.19.66.83.99,1.48,1h27.38c.29.04.59-.1.84-.32.31-.04.61-.28.63-.62,0-.11-.01-.27-.02-.46.01-.11.01-.21,0-.3ZM25.71,2.32l2.4,2.4h-2.4v-2.4Z"/>
        <path class="cls-1" d="M3.24,7.47c.09-.09.36-.17.5-.18,1.83.13,3.89-.17,5.69,0,.33.03.64.15.68.52-.14,1.91.17,4.05,0,5.93-.06.63-.45.64-1,.68-1.38.1-3.76.11-5.13,0-.56-.05-.87-.16-.92-.76-.17-1.8.13-3.86,0-5.69.01-.13.1-.41.18-.5ZM8.82,8.57h-4.48v4.48h4.48v-4.48Z"/>
        <path class="cls-1" d="M3.51,16.75l5.99-.02c.28.02.59.22.6.52-.19,1.87.24,4.2,0,6.01-.03.26-.25.5-.52.52-1.89-.14-3.99.17-5.85,0-.48-.04-.64-.2-.68-.68-.17-1.83.13-3.91,0-5.77,0-.28.19-.51.46-.58ZM8.82,18.01h-4.48v4.48h4.48v-4.48Z"/>
        <path class="cls-1" d="M3.51,26.2l6.26.02c.14.13.33.26.33.47-.15,1.9.18,4.06,0,5.93-.04.44-.27.56-.68.6-1.41.13-4.28.13-5.69,0-.54-.05-.63-.26-.68-.76-.17-1.8.13-3.86,0-5.69,0-.28.19-.51.46-.58ZM8.82,27.46h-4.48v4.48h4.48v-4.48Z"/>
        <path class="cls-1" d="M12.06,10.38c-.37-.17-.17-.52.33-.55h12.57c.84.05.75.6-.08.64h-12.25c-.18,0-.44-.04-.57-.09Z"/>
        <path class="cls-1" d="M25.38,11.48c.36.21.06.54-.49.55h-12.33c-.81-.02-.96-.59-.08-.64h12.41c.15,0,.4.04.49.09Z"/>
        <path class="cls-1" d="M12.06,19.86c-.37-.17-.17-.52.33-.55h7.77c.84.05.75.6-.08.64h-7.45c-.18,0-.44-.04-.57-.09Z"/>
        <path class="cls-1" d="M20.58,20.97c.36.21.06.54-.49.55h-7.53c-.81-.02-.96-.59-.08-.64h7.61c.15,0,.4.04.49.09Z"/>
        <path class="cls-1" d="M12.06,29.27c-.37-.17-.17-.52.33-.55h12.57c.84.05.75.6-.08.64h-12.25c-.18,0-.44-.04-.57-.09Z"/>
        <path class="cls-1" d="M25.38,30.38c.36.21.06.54-.49.55h-12.33c-.81-.02-.96-.59-.08-.64h12.41c.15,0,.4.04.49.09Z"/>
        <path class="cls-1" d="M7.39,9.7c.53-.11.92.5.49.97-.13.14-1.53,1.32-1.63,1.37-.16.06-.39.07-.54,0-.05-.02-.77-.75-.81-.83-.26-.5.14-.99.68-.81.18.06.38.39.5.37.14-.02.99-1,1.32-1.07Z"/>
        <path class="cls-1" d="M7.45,19.05c.29-.04.59.23.62.51s-.15.43-.33.6c-.25.25-1.18,1.06-1.45,1.21-.19.11-.29.17-.51.07-.08-.04-.91-.84-.94-.9-.16-.35.06-.74.43-.81.41-.07.55.45.79.39.34-.2,1.05-1.03,1.39-1.07Z"/>
        <path class="cls-1" d="M7.39,28.76c.56-.12.91.52.46,1.01-.2.22-1.32,1.17-1.57,1.3-.23.12-.34.16-.58.03-.07-.04-.83-.79-.86-.85-.11-.24-.03-.61.21-.74.51-.29.87.35,1.01.33.15-.03,1.01-1.01,1.32-1.07Z"/>
      </g>
      <g>
        <path class="cls-1" d="M30.42,16.13c3.59-.14,7.16,1.74,9.05,4.78.93,1.5.54,2.19-.43,3.49-4.06,5.46-12.25,5.55-16.41.16-1.28-1.66-1.5-2.32-.25-4.09,1.84-2.6,4.85-4.21,8.04-4.33ZM30.46,17.34c-2.8.11-5.44,1.52-7.07,3.79-.3.42-.78,1.01-.57,1.53.3.75,1.42,1.98,2.04,2.51,4.07,3.45,10.2,2.72,13.3-1.6.27-.38.76-1,.6-1.48-.07-.21-.45-.75-.6-.96-1.74-2.43-4.7-3.91-7.71-3.79Z"/>
        <path class="cls-1" d="M30.61,18.74c2.85-.12,4.72,2.98,3.27,5.45-1.37,2.34-4.84,2.34-6.21,0s.24-5.33,2.94-5.45ZM30.65,19.94c-1.88.09-2.94,2.29-1.81,3.81.97,1.31,2.92,1.32,3.88,0,1.19-1.63-.06-3.91-2.06-3.81Z"/>
      </g>
    </g>
  </g>
</svg>