<?xml version="1.0" encoding="UTF-8"?>
<svg id="Layer_2" data-name="Layer 2" xmlns="http://www.w3.org/2000/svg" viewBox="0 0 26.3 26.28">
  <defs>
    <style>
      .cls-1 {
        fill: #fff;
        stroke-width: 0px;
      }
    </style>
  </defs>
  <g id="Layer_1-2" data-name="Layer 1">
    <g>
      <path class="cls-1" d="M12.09,0C12.81,0,13.53,0,14.25,0c.41.06.83.1,1.24.18,5.23,1.1,8.67,4.21,10.32,9.29.27.84.39,1.71.5,2.59v2.15c-.03.19-.06.39-.08.58-.4,3.03-1.67,5.63-3.86,7.74-2.88,2.78-6.35,4.01-10.36,3.7-1.83-.14-3.55-.68-5.16-1.57C1.97,21.99-.87,16.48.24,10.81,1.25,5.58,4.42,2.16,9.48.5,10.33.22,11.21.11,12.09,0ZM13.18,1.21c-6.57,0-11.93,5.33-11.94,11.89-.01,6.6,5.33,11.96,11.91,11.97,6.58,0,11.94-5.34,11.94-11.91,0-6.58-5.34-11.94-11.91-11.94Z"/>
      <path class="cls-1" d="M14.21,16.24c0,.61,0,1.21,0,1.82,0,.65-.43,1.1-1.03,1.1-.62,0-1.05-.45-1.05-1.1,0-1.21,0-2.41,0-3.62,0-.36,0-.36-.35-.36-1.19,0-2.38,0-3.56,0-.71,0-1.17-.41-1.16-1.04,0-.63.47-1.04,1.18-1.04,1.17,0,2.34,0,3.51,0q.39,0,.39-.38c0-1.21,0-2.43,0-3.64,0-.75.72-1.25,1.41-.99.42.15.68.53.68,1.02,0,1.21,0,2.41,0,3.62,0,.37,0,.38.37.38,1.21,0,2.41,0,3.62,0,.74,0,1.24.62,1.07,1.3-.12.47-.51.78-1.01.78-1.23,0-2.46,0-3.69,0-.34,0-.35,0-.35.34,0,.61,0,1.21,0,1.82Z"/>
    </g>
  </g>
</svg>