<?xml version="1.0" encoding="UTF-8"?>
<svg id="Layer_2" data-name="Layer 2" xmlns="http://www.w3.org/2000/svg" viewBox="0 0 27.06 27.05">
  <defs>
    <style>
      .cls-1 {
        fill: #192754;
        stroke-width: 0px;
      }
    </style>
  </defs>
  <g id="Layer_1-2" data-name="Layer 1">
    <path class="cls-1" d="M26.45,27.05c-8.74,0-17.47,0-26.21,0-.2,0-.24-.04-.24-.24,0-1.7,0-3.4,0-5.09.18-.42.49-.63.95-.6.14,0,.25-.01.23-.2-.1-1.12-.2-2.23-.3-3.35-.01-.12-.06-.19-.19-.22-.34-.07-.55-.29-.69-.59,0-.18,0-.35,0-.53.33-1.18.67-2.37,1-3.55.18-.66.43-.85,1.11-.85,1.53,0,3.06,0,4.59,0,.22,0,.31-.07.32-.3.01-.35.06-.7.09-1.05.14-1.98.28-3.96.42-5.94,0-.11.02-.23-.1-.3-.29-.16-.29-.4-.22-.69.25-.98.49-1.96.74-2.94C8.08.05,8.14,0,8.71,0c5.45,0,10.91,0,16.36,0,.09,0,.18,0,.26,0,.27.02.42.15.45.42.02.25.04.51.04.76.04,1.42.07,2.85.1,4.27.05,2.28.11,4.55.16,6.83.04,1.9.08,3.8.12,5.7,0,.06,0,.12.01.18.12.94.24,1.88.35,2.82.01.12.05.22.15.3.25.2.34.47.34.79,0,1.33-.01,2.66,0,3.98,0,.47-.18.79-.61.98ZM17.79,21.12c1.3,0,2.6,0,3.91,0q.69,0,.79-.7s.01-.05.01-.08c.19-1.37.33-2.74.39-4.12.05-1.05.11-2.11.17-3.16.08-1.41.17-2.82.25-4.24.05-.75.1-1.51.14-2.26.04-.68.08-1.35.12-2.03.01-.18-.05-.28-.25-.28-1.64,0-3.27,0-4.91,0-.17,0-.24.07-.24.23,0,.2,0,.41,0,.61-.02.31-.28.49-.58.4-.08-.02-.15-.05-.22-.09-.32-.23-.64-.23-.97,0-.23.16-.49.17-.72,0-.34-.24-.65-.19-1,0-.48.27-.78.06-.78-.49,0-1.24,0-2.48,0-3.72,0-.24-.06-.33-.31-.33-1.5,0-3.01,0-4.51,0-.22,0-.31.08-.36.28-.15.62-.31,1.25-.46,1.87-.08.33-.07.34.27.34,1.45,0,2.9,0,4.35,0,.1,0,.2,0,.29.01.22.05.35.2.35.43,0,.23-.13.38-.35.43-.09.02-.19.01-.29.01-1.37,0-2.74,0-4.12,0-.26,0-.35.1-.36.34-.02.33-.04.67-.06,1-.06.84-.12,1.68-.18,2.52-.08,1.12-.17,2.24-.24,3.37-.02.33,0,.34.34.34,1.36,0,2.73,0,4.09,0,.52,0,.81.21.95.7.35,1.23.69,2.45,1.02,3.69.15.54-.09.97-.63,1.12-.17.05-.22.14-.23.3-.09,1.05-.18,2.1-.28,3.15-.03.33-.03.33.29.33,1.43,0,2.87,0,4.3,0ZM13.49,26.18c1.07,0,2.15,0,3.22,0,3.03,0,6.07,0,9.1,0,.34,0,.35-.01.35-.33,0-1.19,0-2.37,0-3.56,0-.22-.07-.29-.29-.29-3.03,0-6.07,0-9.1,0-.23,0-.29.09-.28.3,0,.47,0,.93,0,1.4,0,.45-.35.83-.79.83-1.45.01-2.9.01-4.35,0-.43,0-.78-.36-.8-.8-.01-.3,0-.6,0-.9,0-.28.19-.45.45-.45.26,0,.42.18.43.46,0,.18,0,.37,0,.55,0,.16.05.25.23.25,1.24,0,2.48,0,3.72,0,.17,0,.24-.07.24-.24,0-.35,0-.7,0-1.06,0-.35,0-.35-.36-.35-4.68,0-9.36,0-14.04,0-.34,0-.35,0-.35.34,0,1.13,0,2.27,0,3.4q0,.44.43.44c4.06,0,8.13,0,12.19,0ZM7.17,16.47c1.99,0,3.97,0,5.96,0,.32,0,.34-.02.25-.33-.29-1.04-.58-2.08-.86-3.13-.06-.23-.17-.3-.41-.3-3.29,0-6.58,0-9.86,0-.24,0-.34.08-.4.31-.28,1.04-.57,2.07-.86,3.1-.1.34-.09.36.27.36,1.97,0,3.94,0,5.91,0ZM7.19,21.12c1.57,0,3.15,0,4.72,0,.23,0,.32-.07.34-.31.09-1.08.21-2.15.32-3.22.02-.18-.04-.23-.21-.23-.93,0-1.86,0-2.8,0-.18,0-.25.08-.24.26,0,.19,0,.39,0,.58-.01.49-.36.85-.86.85-.85,0-1.71,0-2.56,0-.49,0-.83-.36-.85-.86,0-.18,0-.37,0-.55.01-.21-.08-.28-.28-.27-.91,0-1.83,0-2.74,0-.19,0-.26.06-.24.26.1,1.01.19,2.03.28,3.04.04.45.03.45.49.45,1.54,0,3.08,0,4.62,0ZM24.95,3.98c-.08.08-.12.17-.19.19-.26.09-.28.31-.29.53-.07,1.28-.15,2.56-.22,3.84-.06,1.04-.11,2.07-.18,3.11-.08,1.38-.16,2.75-.25,4.13-.05.78-.08,1.56-.15,2.34-.08.87-.21,1.74-.31,2.62-.04.33,0,.38.32.38.52,0,1.04,0,1.56,0,.42,0,.43-.03.38-.46-.13-1.06-.31-2.12-.34-3.2-.05-2.17-.11-4.34-.15-6.51-.04-2-.08-4.01-.12-6.01,0-.31-.03-.61-.05-.96ZM21.48.89c-.99,0-1.99,0-2.98,0-.24,0-.32.08-.32.32.01.62.01,1.25,0,1.87,0,.23.07.31.3.31,1.79,0,3.59,0,5.38,0,.2,0,.3-.07.35-.27.15-.64.32-1.28.48-1.92.07-.29.06-.31-.26-.31-.98,0-1.97,0-2.95,0ZM14.81,2.62c0,.49,0,.98,0,1.48,0,.11,0,.24.17.17.24-.1.46-.03.65.1.3.2.58.19.87,0,.17-.11.36-.19.57-.11.19.08.23,0,.23-.17,0-.98,0-1.95,0-2.93,0-.21-.08-.28-.28-.27-.64,0-1.28,0-1.92,0-.22,0-.3.07-.29.29.01.48,0,.97,0,1.45ZM7.16,18.16c.25,0,.51,0,.76,0,.52,0,.51,0,.51-.51,0-.21-.07-.3-.29-.29-.56.01-1.12,0-1.68,0-.55,0-.54,0-.53.55,0,.18.07.26.25.25.32,0,.65,0,.97,0Z"/>
  </g>
</svg>