<?xml version="1.0" encoding="UTF-8"?>
<svg id="Layer_2" data-name="Layer 2" xmlns="http://www.w3.org/2000/svg" viewBox="0 0 26.91 21.09">
  <defs>
    <style>
      .cls-1 {
        fill: #f2f2f2;
        stroke-width: 0px;
      }
    </style>
  </defs>
  <g id="Layer_1-2" data-name="Layer 1">
    <g>
      <path class="cls-1" d="M26.91,2.9c-.21.33-.51.44-.89.43-.61-.01-1.23,0-1.84,0-.23,0-.31.06-.3.3.01.61,0,1.23,0,1.84,0,.22-.07.4-.29.48-.26.1-.52-.08-.55-.39-.02-.26-.01-.52-.01-.79,0-.63,0-1.26,0-1.89,0-.2-.06-.28-.27-.28-1.13,0-2.26,0-3.39,0-.21,0-.27.07-.27.27,0,1.63,0,3.26,0,4.88,0,.22.08.28.29.28,1.11,0,2.22-.01,3.34,0,.25,0,.32-.09.31-.32,0-.14,0-2.37.03-2.5.05-.22.19-.33.42-.32.23,0,.38.14.39.35.02.33.02,2.75,0,3.08-.02.28-.23.47-.51.53-.14.02-.28.03-.42.03-1.25,0-2.5,0-3.76,0-.73,0-.94-.21-.94-.94,0-1.42,0-2.84,0-4.25q0-.37-.38-.37c-.41,0-.82.01-1.23,0-.26-.01-.33.09-.33.34,0,1.38,0,2.77,0,4.15,0,.9-.18,1.08-1.07,1.08-1.2,0-2.4,0-3.6,0-.79,0-.99-.2-.99-1,0-1.39,0-2.78,0-4.18,0-.38,0-.38-.37-.39-.4,0-.81,0-1.21,0q-.36,0-.36.37c0,1.43,0,2.85,0,4.28,0,.69-.22.91-.91.91-1.29,0-2.57,0-3.86,0-.26,0-.51-.02-.7-.23-.14-.16-.17-.35-.17-.56,0-1.47,0-2.94,0-4.41,0-.35,0-.35-.34-.35-.62,0-1.24,0-1.86,0C.25,3.32,0,3.07,0,2.47c0-.57,0-1.14,0-1.71C0,.29.26,0,.75,0,2.12,0,6,0,7.38,0c.3,0,.5.19.5.43,0,.26-.2.43-.53.43-1.23,0-4.98,0-6.21,0-.26,0-.34.08-.32.33.02.35.01.7,0,1.05,0,.17.06.23.23.23.59,0,1.17,0,1.76,0,.14,0,.22-.03.26-.19.09-.36.31-.53.68-.53,1.41,0,2.82,0,4.23,0,.38,0,.57.16.68.53.04.14.12.19.26.19.5,0,1,0,1.5,0,.16,0,.22-.06.25-.22.05-.26.23-.43.5-.48.13-.02.26-.03.39-.03,1.26,0,2.52,0,3.78,0,.61,0,.69.05.93.62.04.09.11.11.19.11.53,0,1.05,0,1.58,0,.13,0,.18-.05.22-.17.14-.42.33-.55.78-.56,1.35,0,2.7,0,4.04,0,.46,0,.66.14.79.57.04.12.09.16.2.16.61,0,1.23,0,1.84,0,.15,0,.2-.07.2-.21,0-.39,0-.79,0-1.18,0-.16-.07-.22-.22-.21-.09,0-.18,0-.26,0-6.18,0-12.36,0-18.54,0-.12,0-.25,0-.37-.02-.21-.04-.34-.19-.35-.4,0-.21.11-.35.31-.4.1-.03.21-.03.31-.03C13.36,0,19.72,0,26.09,0c.38,0,.67.12.83.48v2.42ZM15.45,5.31c0-.8,0-1.61,0-2.41,0-.22-.05-.31-.29-.31-1.13.01-2.26,0-3.39,0-.21,0-.29.05-.29.28,0,1.63,0,3.25,0,4.88,0,.22.08.28.29.28,1.13,0,2.26,0,3.39,0,.24,0,.29-.09.29-.31-.01-.8,0-1.61,0-2.41ZM3.91,5.3c0,.81,0,1.63,0,2.44,0,.21.05.3.28.3,1.13,0,2.26,0,3.38,0,.19,0,.27-.05.27-.25,0-1.64,0-3.29,0-4.93,0-.2-.07-.26-.26-.26-1.13,0-2.26,0-3.38,0-.22,0-.29.08-.28.29,0,.8,0,1.61,0,2.41Z"/>
      <path class="cls-1" d="M26.91,20.82c-.11.2-.29.26-.51.27-.08,0-.16,0-.24,0-8.47,0-16.95,0-25.42,0-.1,0-.21,0-.31,0-.28-.03-.43-.19-.43-.44,0-.24.18-.4.45-.41.4-.01.81,0,1.21,0,.26,0,.58.12.76-.07.16-.17.05-.49.05-.74,0-.39.05-.82.46-.9.47-.08.47-.35.54-.7.24-1.2.98-1.97,2.16-2.3.21-.06.3-.14.28-.36-.01-.13,0-.26.02-.39.04-.22.19-.35.42-.36.21,0,.43.18.4.4-.08.52.19.66.63.82,1.08.4,1.7,1.22,1.86,2.37.03.25.05.43.39.46.31.02.49.28.56.59.07.31.03.63.04.94,0,.11.01.22.16.22.72,0,1.45,0,2.22,0-.26-.32-.55-.54-.81-.8-.13-.13-.24-.25-.27-.44-.06-.42.22-.75.67-.75.67,0,1.33-.01,2,0,.27,0,.36-.08.34-.34-.02-.33,0-.67,0-1,0-.5.28-.78.77-.81.19-.01.43.08.56-.04.16-.14-.03-.35-.03-.54-.03-.72.3-1.21.91-1.3.33-.05.62.07.89.26.4.27.64.66.82,1.15.13-.33.27-.61.48-.84.32-.36.71-.62,1.21-.57.66.06,1.04.67.91,1.43q-.07.45.39.45c.68,0,.93.25.94.94,0,.27,0,.54,0,.81q0,.39.41.4c.61,0,1.23,0,1.84,0,.31,0,.57.08.71.39.12.27.04.54-.22.8-.26.25-.53.5-.85.81.38,0,.68,0,.99,0,.37,0,.74,0,1.1,0,.23,0,.43.05.59.23v.37ZM24.16,19.12h-11.46c.37.37.7.7,1.07.99.13.1.29.12.45.12,2.81,0,5.62,0,8.42,0,.16,0,.32-.02.45-.12.37-.29.7-.62,1.07-.99ZM18.43,18.24c.93,0,1.85,0,2.78,0,.22,0,.3-.07.29-.29-.01-.26,0-.52,0-.79,0-.15-.06-.22-.22-.22-.22,0-.44,0-.66,0-1.65,0-3.3,0-4.96,0-.23,0-.32.07-.3.3.02.23.02.46,0,.68-.02.24.07.32.31.32.92-.01,1.84,0,2.75,0ZM6.33,18.44c.61,0,1.23,0,1.84,0,.2,0,.26-.08.24-.27-.11-1.02-.92-1.91-2.12-1.89-1.07.02-1.85.76-2.02,1.82-.05.33-.05.33.29.33.59,0,1.17,0,1.76,0ZM6.38,19.27c-.81,0-1.63,0-2.44,0-.69,0-.61-.11-.61.61,0,.35,0,.35.35.35,1.67,0,3.34,0,5.01,0,.68,0,.67,0,.67-.68,0-.24-.09-.29-.31-.29-.89.01-1.78,0-2.68,0ZM17.26,16.09c.09,0,.17,0,.26,0,.08,0,.12-.04.11-.14-.02-.29-.39-.77-.67-.86-.11-.04-.21-.03-.26.09-.18.39.13.92.56.91ZM19.59,16.09c.38,0,.49-.08.57-.46.02-.09.03-.19.02-.29,0-.28-.14-.36-.39-.21-.28.17-.45.43-.55.74-.04.15,0,.22.16.21.06,0,.12,0,.18,0Z"/>
      <path class="cls-1" d="M21.08,4.58c-.26,0-.53,0-.79,0-.29-.01-.48-.18-.48-.42,0-.25.19-.43.49-.44.51,0,1.01,0,1.52,0,.29,0,.47.18.48.42,0,.25-.18.42-.49.44-.12,0-.24,0-.37,0-.12,0-.24,0-.37,0h0Z"/>
      <path class="cls-1" d="M21.07,6.89c-.25,0-.51,0-.76,0-.3-.01-.5-.19-.49-.44,0-.25.2-.41.51-.42.49,0,.98,0,1.47,0,.31,0,.5.16.51.41.01.26-.18.43-.5.45-.02,0-.03,0-.05,0-.23,0-.45,0-.68,0,0,0,0,0,0,0Z"/>
      <path class="cls-1" d="M13.45,4.58c-.25,0-.51,0-.76,0-.29-.01-.47-.18-.47-.43,0-.24.18-.42.47-.43.51-.01,1.03,0,1.54,0,.29,0,.47.18.47.43,0,.24-.18.41-.47.43-.02,0-.03,0-.05,0-.24,0-.49,0-.73,0h0Z"/>
      <path class="cls-1" d="M13.46,6.89c-.25,0-.51,0-.76,0-.29-.01-.47-.18-.47-.42,0-.24.18-.42.47-.43.51,0,1.03,0,1.54,0,.29,0,.47.18.47.42,0,.24-.18.42-.47.43-.26.01-.52,0-.78,0Z"/>
      <path class="cls-1" d="M5.87,4.59c-.24,0-.49,0-.73,0-.31,0-.5-.17-.5-.42,0-.25.18-.43.49-.44.5,0,1,0,1.5,0,.31,0,.5.17.51.42,0,.26-.19.43-.52.44-.24,0-.49,0-.73,0Z"/>
      <path class="cls-1" d="M5.87,6.04c.25,0,.51,0,.76,0,.29,0,.48.17.49.41.01.25-.18.44-.48.44-.51.01-1.01.01-1.52,0-.31,0-.49-.19-.48-.44,0-.25.2-.41.51-.42.24,0,.49,0,.73,0Z"/>
    </g>
  </g>
</svg>