<?xml version="1.0" encoding="UTF-8"?>
<svg id="Layer_2" data-name="Layer 2" xmlns="http://www.w3.org/2000/svg" viewBox="0 0 27.12 25.69">
  <defs>
    <style>
      .cls-1 {
        fill: #192754;
        stroke-width: 0px;
      }
    </style>
  </defs>
  <g id="Layer_1-2" data-name="Layer 1">
    <g>
      <path class="cls-1" d="M12.84,25.68c-2.36,0-4.72-.03-7.07,0-2.61.05-5.33-1.88-5.74-5.05-.03-.23-.02-.47-.02-.7,0-4.73,0-9.46,0-14.18C0,2.79,2.13.39,5.06.02c.2-.02.4-.02.6-.02C8.02,0,17.94,0,20.3,0c.92,0,1.59.62,1.57,1.45-.02.84-.68,1.46-1.59,1.46-2.27,0-12.11,0-14.38,0-1.83,0-3,1.18-3,3.01,0,4.62,0,9.23,0,13.85,0,1.81,1.18,3,2.98,3,4.63,0,9.25,0,13.88,0,1.81,0,2.99-1.18,2.99-2.98,0-2.24,0-7.12,0-9.35,0-.61.29-1.07.84-1.33.53-.25,1.04-.19,1.51.16.35.26.55.62.55,1.06,0,2.49.04,7.63-.01,10.12-.05,2.46-2.23,4.8-4.72,5.18-.34.05-.68.07-1.03.07-2.36,0-4.72,0-7.07,0Z"/>
      <path class="cls-1" d="M7.14,8.54c.47-.02.83.2,1.15.52,1.42,1.43,2.85,2.84,4.26,4.28.23.24.35.25.6,0,3.76-3.79,7.53-7.56,11.3-11.34.44-.45.94-.71,1.58-.53,1.04.29,1.43,1.5.74,2.35-.06.07-.12.13-.18.2-4.21,4.21-8.41,8.41-12.62,12.62-.31.31-.67.51-1.12.52-.41,0-.76-.13-1.05-.42-1.9-1.89-3.79-3.79-5.68-5.69-.46-.46-.58-1.02-.32-1.63.25-.57.71-.87,1.34-.88Z"/>
    </g>
  </g>
</svg>