<?xml version="1.0" encoding="UTF-8"?>
<svg id="Layer_2" data-name="Layer 2" xmlns="http://www.w3.org/2000/svg" viewBox="0 0 26.85 25.07">
  <defs>
    <style>
      .cls-1 {
        fill: #192754;
        stroke-width: 0px;
      }
    </style>
  </defs>
  <g id="Layer_1-2" data-name="Layer 1">
    <g>
      <path class="cls-1" d="M13.4,18.34c0-3.73,2.99-6.72,6.72-6.72,3.73,0,6.71,2.99,6.73,6.72.02,3.73-3.08,6.76-6.75,6.73-3.71-.03-6.69-3.01-6.7-6.73ZM19.64,13.46s.01,0,.02,0c0-.04,0-.07,0-.11,0-.83,0-.82-.81-.65-2.72.58-4.71,3.03-4.47,6.08.11,1.35.61,2.53,1.54,3.5,1.35,1.41,3.01,2,4.95,1.78,1.03-.12,1.95-.52,2.78-1.14.18-.14.18-.23.02-.38-.29-.26-.56-.54-.83-.83-.14-.16-.25-.15-.42-.03-.83.58-1.76.79-2.75.69-1.86-.2-3.37-1.73-3.56-3.57-.2-1.94.97-3.73,2.81-4.32.24-.08.59-.01.71-.24.1-.21.02-.51.02-.77ZM17.02,18.34c0,1.69,1.4,3.11,3.1,3.09,1.72-.02,3.09-1.3,3.1-3.08.01-1.75-1.33-3.11-3.1-3.1-1.76,0-3.04,1.36-3.09,3.09ZM25.01,17.87c.19,0,.37-.01.56,0,.27.02.32-.1.28-.33-.12-.77-.36-1.5-.77-2.17-.96-1.56-2.36-2.47-4.16-2.76-.24-.04-.34.03-.33.29.02.39.01.78,0,1.17,0,.17.06.25.23.28,1.81.39,2.91,1.49,3.29,3.29.03.15.1.23.26.22.21,0,.43,0,.64,0ZM25.01,18.81c-.21,0-.43,0-.64,0-.15,0-.23.06-.25.2-.1.63-.34,1.2-.71,1.71-.07.1-.06.18.02.27.32.32.65.64.96.97.09.1.17.09.25-.01.67-.85,1.08-1.82,1.21-2.89.02-.16-.04-.25-.21-.24-.21,0-.43,0-.64,0Z"/>
      <path class="cls-1" d="M12.77,0c3.6,0,7.2,0,10.81,0,1.2,0,1.93.74,1.93,1.93,0,3.3,0,6.61,0,9.91,0,.4-.16.59-.47.59-.24,0-.43-.16-.46-.4-.01-.1,0-.2,0-.31,0-3.22,0-6.44,0-9.66,0-.82-.32-1.14-1.13-1.14-7.13,0-14.26,0-21.39,0-.79,0-1.12.33-1.12,1.12,0,4.9,0,9.79,0,14.69,0,.81.32,1.13,1.14,1.13,3.25,0,6.5,0,9.75,0,.1,0,.21,0,.31,0,.26.02.43.21.42.47,0,.25-.17.43-.43.46-.07,0-.15,0-.22,0-3.32,0-6.65,0-9.97,0-1.18,0-1.92-.74-1.92-1.91C0,11.9,0,6.9,0,1.9,0,.75.75,0,1.91,0,5.53,0,9.15,0,12.77,0Z"/>
      <path class="cls-1" d="M17.05,3.31c.73,0,1.24.7,1.01,1.39-.05.15-.03.24.07.35.29.32.58.65.87.99.08.09.16.13.28.1.13-.04.28-.04.41,0,.14.04.23,0,.32-.11.29-.34.58-.68.88-1,.11-.12.06-.22.03-.34-.12-.44,0-.83.34-1.12.35-.29.74-.33,1.15-.14.42.2.62.55.61,1-.02.65-.6,1.11-1.27,1.01-.14-.02-.23,0-.32.11-.29.34-.58.67-.88,1-.08.09-.09.16-.05.27.16.48.02.95-.37,1.23-.38.27-.87.28-1.25.01-.4-.28-.55-.74-.39-1.24.04-.11.02-.19-.05-.28-.29-.33-.58-.66-.86-.99-.09-.11-.18-.17-.34-.12-.11.03-.24.04-.35,0-.19-.06-.3.02-.41.16-.27.32-.54.63-.82.94-.09.1-.1.18-.06.31.2.59-.12,1.19-.71,1.37-.57.17-1.17-.16-1.33-.75-.16-.57.19-1.17.78-1.32.16-.04.32-.05.48,0,.13.03.21-.02.28-.1.3-.35.6-.69.91-1.04.08-.09.06-.16.03-.26-.25-.71.26-1.43,1-1.43ZM17.37,4.38c0-.16-.16-.32-.32-.33-.16,0-.32.16-.33.32,0,.16.16.32.32.33.16,0,.32-.16.33-.32ZM22.27,4.38c0-.16-.16-.32-.32-.33-.16,0-.32.16-.33.32,0,.16.16.32.32.33.16,0,.32-.16.33-.32ZM14.92,7.18c0-.16-.15-.33-.32-.33-.16,0-.33.15-.33.32,0,.16.15.33.32.33.16,0,.33-.15.33-.32ZM19.82,7.18c0-.16-.15-.33-.32-.33-.16,0-.33.15-.33.32,0,.16.15.33.32.33.16,0,.33-.15.33-.32Z"/>
      <path class="cls-1" d="M6.75,11.71c0-1.35,0-2.7,0-4.05,0-.54.19-.73.72-.73.68,0,1.36,0,2.04,0,.46,0,.67.21.67.67,0,2.77,0,5.54,0,8.32,0,.46-.21.66-.68.66-.68,0-1.36,0-2.04,0-.51,0-.71-.2-.71-.7,0-1.39,0-2.77,0-4.16ZM7.93,11.75c0,1,0,2,0,3,0,.72-.08.62.64.65.37.02.45-.11.45-.46-.02-2.05,0-4.09,0-6.14,0-.79.12-.68-.72-.7-.29,0-.36.1-.36.37.01,1.09,0,2.19,0,3.28Z"/>
      <path class="cls-1" d="M2.23,12.84c0-.96,0-1.93,0-2.89,0-.58.18-.77.75-.77.67,0,1.34,0,2.01,0,.46,0,.68.21.68.66,0,2.02,0,4.04,0,6.06,0,.46-.21.66-.68.66-.69,0-1.39,0-2.08,0-.48,0-.67-.21-.68-.7,0-1.01,0-2.02,0-3.03ZM4.49,12.88c0-.61,0-1.22,0-1.83,0-.77.11-.66-.7-.69-.3,0-.38.09-.38.38.01,1.31,0,2.61,0,3.92,0,.83-.15.72.76.74.25,0,.33-.09.33-.33-.01-.73,0-1.46,0-2.19Z"/>
      <path class="cls-1" d="M14.7,13.72c0,.72,0,1.43,0,2.15,0,.5-.2.7-.71.7-.67,0-1.34,0-2.01,0-.51,0-.71-.2-.72-.7,0-1.43,0-2.86,0-4.3,0-.5.2-.7.71-.7.67,0,1.34,0,2.01,0,.52,0,.71.2.72.73,0,.7,0,1.41,0,2.11ZM13.53,13.76c0-.33,0-.66,0-.99-.01-.81.13-.7-.74-.72-.27,0-.35.09-.34.35.01.75,0,1.51,0,2.26.01.83-.17.72.79.74.22,0,.29-.09.29-.29,0-.45,0-.89,0-1.34Z"/>
    </g>
  </g>
</svg>