<?xml version="1.0" encoding="UTF-8"?>
<svg id="Layer_2" data-name="Layer 2" xmlns="http://www.w3.org/2000/svg" viewBox="0 0 36.88 34.19">
  <defs>
    <style>
      .cls-1 {
        fill: #c9c9c9;
        stroke-width: 0px;
      }
    </style>
  </defs>
  <g id="Layer_1-2" data-name="Layer 1">
    <g>
      <path class="cls-1" d="M18.42,34.17c-3.84,0-7.69-.05-11.53.01C3.29,34.25-.05,31.28,0,27.3c.02-1.42,0-2.84,0-4.26,0-.94.54-1.57,1.35-1.58.81-.01,1.41.61,1.42,1.53.02,1.42.05,2.84,0,4.26-.07,2.11,1.44,3.72,3.11,4.06.4.08.8.13,1.2.13,7.55,0,15.1,0,22.65,0,2.21,0,3.86-1.27,4.24-3.27.06-.31.06-.64.06-.96,0-1.38,0-2.76,0-4.14,0-.88.42-1.44,1.14-1.58.8-.16,1.62.4,1.63,1.21.01,1.88.15,3.76-.07,5.63-.34,2.91-2.66,5.27-5.55,5.75-.4.07-.8.08-1.21.08-3.86,0-7.72,0-11.58,0Z"/>
      <path class="cls-1" d="M19.79,21.07c.21-.07.29-.21.4-.31,1.59-1.58,3.17-3.17,4.76-4.76.47-.47,1.05-.57,1.61-.3.53.26.81.78.76,1.41-.03.34-.19.61-.42.84-2.47,2.47-4.94,4.95-7.42,7.42-.65.65-1.45.64-2.11-.02-2.49-2.48-4.97-4.96-7.45-7.45-.65-.65-.67-1.5-.08-2.08.56-.55,1.41-.49,2.05.14,1.61,1.6,3.21,3.21,4.82,4.81.09.09.16.22.32.26.08-.16.04-.33.04-.49,0-6.35,0-12.71,0-19.06,0-.97.59-1.55,1.5-1.49.64.04,1.18.57,1.23,1.22.01.17,0,.33,0,.5,0,6.27,0,12.54,0,18.81,0,.17,0,.33,0,.54Z"/>
    </g>
  </g>
</svg>