<?xml version="1.0" encoding="UTF-8"?>
<svg id="Layer_2" data-name="Layer 2" xmlns="http://www.w3.org/2000/svg" viewBox="0 0 18.38 10.5">
  <defs>
    <style>
      .cls-1 {
        fill: #192754;
        stroke-width: 0px;
      }
    </style>
  </defs>
  <g id="Layer_1-2" data-name="Layer 1">
    <path class="cls-1" d="M8.24,10.13L.37,2.26c-.25-.27-.37-.59-.37-.94S.12.64.37.37c.27-.25.59-.37.94-.37s.67.12.94.37l6.93,6.97L16.12.37c.27-.25.59-.37.94-.37s.67.12.94.37c.25.27.37.59.37.94s-.12.67-.37.94l-7.88,7.88c-.27.25-.59.37-.94.37s-.67-.12-.94-.37Z"/>
  </g>
</svg>