<?xml version="1.0" encoding="UTF-8"?>
<svg id="Layer_2" data-name="Layer 2" xmlns="http://www.w3.org/2000/svg" viewBox="0 0 26.3 24">
  <defs>
    <style>
      .cls-1 {
        fill: #fff;
        stroke-width: 0px;
      }
    </style>
  </defs>
  <g id="Layer_1-2" data-name="Layer 1">
    <g>
      <path class="cls-1" d="M14.55,4.03c2.86,0,5.72,0,8.58,0,1.71,0,3.15,1.45,3.16,3.16.01,3.05.01,6.09,0,9.14,0,1.55-1.18,2.9-2.71,3.14-.23.04-.37.14-.5.31-.98,1.28-1.97,2.56-2.96,3.84-.4.52-.76.5-1.09-.08-.7-1.22-1.4-2.45-2.08-3.68-.13-.24-.29-.33-.56-.33-3.41,0-6.82,0-10.23,0-1.65,0-2.96-1.04-3.31-2.61-.05-.24-.09-.49-.09-.74,0-2.95-.02-5.91,0-8.86,0-1.64,1.11-2.94,2.71-3.26.27-.05.54-.04.81-.04,2.76,0,5.51,0,8.27,0h0ZM14.52,5.05c-2.77,0-5.53,0-8.3,0-.24,0-.47,0-.71.05-1.09.29-1.72,1.17-1.73,2.4,0,2.85,0,5.7,0,8.55,0,.27.03.54.1.8.29,1.03,1.17,1.67,2.31,1.67,3.55,0,7.11,0,10.66,0,.36,0,.57.13.74.44.61,1.12,1.25,2.22,1.87,3.33.12.22.19.27.37.04.85-1.13,1.73-2.25,2.59-3.38.19-.25.39-.42.74-.44,1.26-.08,2.13-1.15,2.12-2.42-.04-2.87-.01-5.74-.01-8.61,0-.22,0-.44-.05-.65-.23-1.06-1.11-1.76-2.22-1.76-2.83,0-5.66,0-8.49,0Z"/>
      <path class="cls-1" d="M10.67,0c2.49,0,4.97,0,7.46,0,.96,0,1.79.3,2.44,1.03.48.54.75,1.16.75,1.89,0,.38-.17.6-.47.61-.29.01-.52-.2-.54-.56-.03-.51-.21-.94-.55-1.32-.47-.5-1.07-.63-1.72-.63-4.88,0-9.76,0-14.64,0-.23,0-.46.02-.68.05-.92.12-1.66.92-1.67,1.85-.01,2.76,0,5.51,0,8.27,0,.62.28,1.11.77,1.49.07.05.14.09.2.15.23.2.28.46.13.69-.15.24-.45.31-.71.14C.6,13.13.04,12.37.03,11.37-.01,8.5,0,5.63.02,2.76.03,1.46,1.25.21,2.56.05,2.87.02,3.18,0,3.49,0c2.39,0,4.79,0,7.18,0Z"/>
      <path class="cls-1" d="M14.54,7.47c2.25,0,4.5,0,6.74,0,.14,0,.29,0,.43.03.27.05.41.23.41.51,0,.26-.15.43-.4.48-.13.03-.27.04-.4.04-4.52,0-9.03,0-13.55,0-.14,0-.29-.01-.43-.04-.26-.05-.39-.24-.4-.48,0-.24.13-.41.36-.48.16-.05.33-.05.49-.05,2.25,0,4.5,0,6.74,0Z"/>
      <path class="cls-1" d="M13.31,14.87c1.84,0,3.69,0,5.53,0,.15,0,.31,0,.46.04.24.06.37.24.37.48,0,.24-.13.42-.37.48-.16.04-.33.05-.49.05-3.67,0-7.33,0-11,0-.15,0-.31-.01-.46-.04-.26-.05-.39-.24-.4-.49,0-.24.13-.42.37-.48.15-.04.31-.04.46-.04,1.84,0,3.69,0,5.53,0Z"/>
      <path class="cls-1" d="M15.55,11.18c1.98,0,3.96,0,5.94,0,.41,0,.62.16.64.47.02.27-.14.48-.41.54-.12.02-.25.02-.37.02-3.86,0-7.73,0-11.59,0-.12,0-.25,0-.37-.02-.26-.05-.45-.28-.44-.52.02-.25.22-.45.49-.48.1-.01.21,0,.31,0,1.94,0,3.87,0,5.81,0Z"/>
      <path class="cls-1" d="M7.72,11.19c.11,0,.23-.02.34,0,.26.04.43.19.45.47.02.27-.15.48-.42.52-.19.03-.39.02-.59.01-.33-.02-.56-.24-.55-.52,0-.29.23-.49.56-.51.07,0,.14,0,.22,0,0,0,0,0,0,0Z"/>
    </g>
  </g>
</svg>