<?xml version="1.0" encoding="UTF-8"?>
<svg id="Layer_2" data-name="Layer 2" xmlns="http://www.w3.org/2000/svg" viewBox="0 0 26.85 24.12">
  <defs>
    <style>
      .cls-1 {
        fill: #fff;
        stroke-width: 0px;
      }
    </style>
  </defs>
  <g id="Layer_1-2" data-name="Layer 1">
    <g>
      <path class="cls-1" d="M0,20.39c.27-1.05.92-1.92,1.44-2.84C4.49,12.25,7.55,6.96,10.61,1.67,11.22.61,12.13.02,13.36,0c1.26-.02,2.21.55,2.84,1.64.66,1.13,1.31,2.27,1.97,3.4,2.58,4.47,5.16,8.94,7.74,13.41.32.55.69,1.07.85,1.71.51,1.98-.99,3.96-3.03,3.96-6.87,0-13.74,0-20.62,0-1.39,0-2.65-.98-3.02-2.33-.03-.1-.06-.2-.09-.3,0-.37,0-.73,0-1.1ZM13.4,22.48c3.4,0,6.79,0,10.19,0,.74,0,1.27-.34,1.52-.98.23-.58.05-1.1-.25-1.61-1.48-2.55-2.95-5.11-4.43-7.66-1.86-3.23-3.74-6.45-5.58-9.69-.68-1.21-2.23-1.13-2.87,0-2.8,4.92-5.65,9.82-8.49,14.72-.55.96-1.11,1.92-1.66,2.88-.3.53-.31,1.07,0,1.59.32.54.81.75,1.43.75,3.38,0,6.76,0,10.14,0Z"/>
      <path class="cls-1" d="M14.22,11.79c0,1.21,0,2.43,0,3.64,0,.24-.07.33-.31.31-.33-.02-.66-.02-.99,0-.24.01-.31-.07-.31-.31,0-1.42,0-2.84,0-4.27,0-1,0-2.01,0-3.01,0-.24.07-.33.31-.31.34.02.68.01,1.02,0,.22,0,.29.07.29.29,0,1.22,0,2.44,0,3.67Z"/>
      <path class="cls-1" d="M13.44,17.28c.59,0,1.04.47,1.04,1.08,0,.6-.48,1.06-1.09,1.06-.59,0-1.05-.48-1.04-1.08,0-.61.47-1.06,1.09-1.05Z"/>
    </g>
  </g>
</svg>