<?xml version="1.0" encoding="UTF-8"?>
<svg id="Layer_2" data-name="Layer 2" xmlns="http://www.w3.org/2000/svg" viewBox="0 0 26.85 23.94">
  <defs>
    <style>
      .cls-1 {
        fill: #192754;
        stroke-width: 0px;
      }
    </style>
  </defs>
  <g id="Layer_1-2" data-name="Layer 1">
    <path class="cls-1" d="M0,14.95v-1.36c.19-.41.51-.61.96-.59.23.01.28-.1.28-.3,0-2.4,0-4.8,0-7.2,0-.16-.04-.28-.18-.38-.45-.34-.66-.8-.66-1.36,0-.82,0-1.64,0-2.46C.4.52.92,0,1.7,0c7.81,0,15.63,0,23.44,0,.76,0,1.28.52,1.29,1.28,0,.81,0,1.62,0,2.44,0,.54-.21.99-.62,1.33-.17.14-.23.28-.23.49,0,2.36,0,4.71,0,7.07q0,.37.37.39c.56.03.88.37.89.92,0,.26,0,.52,0,.79,0,.37-.19.65-.54.76-.26.08-.3.22-.3.46,0,2.25,0,4.51,0,6.76q0,.4.39.42c.35.02.54.3.41.59-.1.22-.3.24-.51.24-8.59,0-17.18,0-25.78,0-.22,0-.4-.05-.52-.23v-.37c.12-.18.28-.25.49-.23.25.03.33-.08.33-.33-.01-1.33,0-2.67,0-4,0-.98,0-1.95,0-2.93,0-.14.01-.28-.18-.33-.31-.07-.51-.28-.64-.57ZM13.43,13.87c-4.03,0-8.07,0-12.1,0-.53,0-.52,0-.52.53,0,.22.09.3.3.28.1,0,.19,0,.29,0,6.95,0,13.9,0,20.85,0,.14,0,.28,0,.42.01.26.03.41.21.41.43,0,.22-.17.39-.43.41-.12.01-.24,0-.37,0-6.74,0-13.48,0-20.23,0q-.4,0-.4.41c0,2.24,0,4.49,0,6.73q0,.42.42.42c7.56,0,15.13,0,22.69,0,.06,0,.12,0,.18,0,.18.01.24-.08.24-.25,0-2.35,0-4.7,0-7.05,0-.19-.08-.27-.27-.26-.2,0-2.59.01-2.78-.01-.22-.03-.37-.15-.39-.39-.01-.23.12-.39.36-.44.09-.02,2.37-.02,2.47-.02.39,0,.79,0,1.18,0,.09,0,.2.02.23-.08.07-.21.08-.44,0-.64-.06-.16-.25-.09-.38-.09-4.06,0-8.12,0-12.18,0ZM13.43.83c-3.84,0-7.68,0-11.53,0-.53,0-.67.14-.67.66,0,.7,0,1.4,0,2.1,0,.13.01.26.04.39.11.48.59.74,1.05.59.37-.12.54-.39.59-.76.04-.29.18-.45.41-.45.23,0,.37.14.43.44.01.06.02.12.04.18.12.47.6.74,1.06.59.38-.12.55-.4.58-.78.03-.26.19-.43.41-.42.25,0,.38.15.42.39,0,.04.02.09.02.13.08.46.38.73.81.73.43,0,.77-.3.84-.75.05-.34.18-.5.42-.5.25,0,.4.16.44.52.02.17.08.32.2.45.24.25.52.35.85.25.36-.11.56-.37.6-.75.02-.2.09-.36.28-.43.15-.06.29-.03.42.07.12.1.15.25.17.4.06.44.39.74.81.75.4,0,.76-.3.83-.73.02-.1.02-.21.06-.31.06-.17.19-.27.38-.27.2,0,.34.09.4.27.03.09.04.19.05.28.07.43.41.75.81.75.43,0,.76-.3.83-.75.05-.33.2-.5.44-.5.24,0,.39.17.43.49.04.29.18.51.43.65.53.29,1.12-.03,1.22-.66.05-.32.21-.49.45-.48.24,0,.37.17.42.48.06.46.38.76.82.77.43,0,.76-.28.84-.74.06-.36.2-.52.45-.51.24,0,.36.15.42.51.04.23.14.43.34.57.51.38,1.19.1,1.31-.52.01-.06.02-.12.03-.18.05-.25.21-.39.42-.38.22,0,.37.16.4.41.04.32.14.59.45.75.57.29,1.2-.1,1.23-.79.04-.8.02-1.61,0-2.41,0-.31-.17-.45-.48-.48-.1,0-.21,0-.31,0-3.79,0-7.58,0-11.37,0ZM23.91,9.11c0,1.2,0,2.39,0,3.59,0,.23.07.33.3.3.06,0,.12,0,.18,0,.36,0,.37,0,.37-.37,0-2.23,0-4.47,0-6.7q0-.42-.41-.52c-.07-.02-.14-.03-.2-.07-.21-.11-.24-.01-.24.18,0,1.2,0,2.39,0,3.59ZM22.77,13.01c.22,0,.29-.09.29-.3,0-2.38,0-4.77,0-7.15,0-.19-.04-.27-.26-.2-.6.2-1.16.1-1.65-.3-.12-.1-.2-.12-.33-.01-.72.56-1.51.56-2.23-.02-.11-.09-.18-.09-.29,0-.73.58-1.49.57-2.22,0-.11-.09-.18-.09-.29,0-.74.58-1.5.58-2.22,0-.12-.1-.19-.1-.31,0-.73.58-1.48.58-2.22,0-.11-.09-.18-.09-.29,0-.74.58-1.5.58-2.22,0-.11-.09-.18-.1-.29,0-.77.59-1.45.59-2.25,0-.11-.08-.17-.07-.27,0-.72.56-1.5.57-2.21.01-.14-.11-.23-.1-.35.01-.21.19-.47.33-.75.35-.3.02-.35.17-.35.43,0,2.26,0,4.52,0,6.78,0,.03,0,.07,0,.1-.01.18.06.28.26.27.07,0,.14,0,.21,0,.38,0,.38,0,.38-.38,0-1.95,0-3.89,0-5.84,0-.1,0-.19,0-.29.02-.23.2-.41.41-.4.23.01.38.13.41.37.02.16.03.33.03.5,0,1.84,0,3.68,0,5.53,0,.1,0,.19,0,.29,0,.15.08.21.23.23h1.79c.72,0,1.45,0,2.17,0,.74,0,1.48,0,2.22,0h1.51c.31,0,.61,0,.92,0"/>
  </g>
</svg>