<?xml version="1.0" encoding="UTF-8"?>
<svg id="Layer_2" data-name="Layer 2" xmlns="http://www.w3.org/2000/svg" viewBox="0 0 34.43 27.52">
  <defs>
    <style>
      .cls-1 {
        fill: #192754;
        stroke-width: 0px;
      }
    </style>
  </defs>
  <g id="Layer_1-2" data-name="Layer 1">
    <g>
      <path class="cls-1" d="M17.21,10.72c-5.47,0-10.95,0-16.42,0-.54,0-.8-.17-.79-.52,0-.33.27-.51.78-.51.53,0,1.07-.02,1.6,0,.31.01.41-.11.41-.41-.01-1.78,0-3.56,0-5.34,0-1.09.52-1.6,1.6-1.61.61,0,1.22-.01,1.84,0,.25,0,.37-.09.4-.33.07-.48.24-.92.52-1.31.66-.91,1.72-.91,2.38.01.28.4.44.84.52,1.32.04.23.14.33.38.32.58-.02,1.16-.02,1.73,0,.24,0,.35-.09.38-.32.07-.48.23-.92.52-1.32.67-.93,1.74-.93,2.4.01.27.39.43.82.5,1.29.04.25.15.34.41.34.57-.02,1.13-.02,1.7,0,.26,0,.37-.09.41-.34.08-.47.23-.92.52-1.32.66-.91,1.72-.91,2.38.02.27.39.44.82.51,1.28.04.26.15.36.43.35.55-.02,1.11-.02,1.67,0,.27,0,.38-.1.43-.35.08-.46.23-.9.51-1.28.67-.93,1.74-.92,2.4.02.27.39.43.82.5,1.29.04.25.15.34.4.33.63-.01,1.27,0,1.9,0,1,0,1.53.54,1.54,1.54,0,1.79,0,3.58,0,5.37,0,.34.09.47.44.45.5-.02,1,0,1.5,0,.07,0,.14,0,.2,0,.43.04.67.23.65.54-.02.32-.26.49-.69.49-5.51,0-11.02,0-16.52,0ZM17.19,6.28c4.31,0,8.61,0,12.92,0,.48,0,.48,0,.48-.49,0-.65,0-1.29,0-1.94,0-.39-.08-.47-.45-.47-.66,0-1.31,0-1.97,0-.22,0-.32.07-.36.3-.07.44-.2.86-.45,1.24-.3.45-.67.81-1.26.8-.28,0-.45-.15-.5-.42-.05-.26.07-.48.31-.54.54-.12.69-.53.82-.97.1-.35.06-.4-.3-.4-1.38,0-2.77,0-4.15,0-.25,0-.37.08-.4.33-.06.43-.2.84-.44,1.2-.3.45-.67.8-1.26.79-.28,0-.45-.16-.5-.42-.05-.26.07-.48.31-.54.54-.12.69-.53.82-.98.1-.35.07-.39-.3-.39-1.35,0-2.7.01-4.05,0-.34,0-.47.11-.53.44-.1.61-.35,1.15-.81,1.57-.25.22-.53.34-.87.33-.28,0-.45-.16-.5-.42-.05-.26.08-.48.32-.53.51-.11.67-.49.8-.91.13-.42.1-.46-.36-.46-1.34,0-2.67.01-4.01,0-.32,0-.44.1-.49.4-.1.62-.35,1.17-.82,1.6-.25.22-.53.34-.87.33-.28,0-.46-.15-.5-.42-.04-.25.08-.48.32-.54.56-.12.69-.56.84-1.01.09-.27.01-.37-.28-.37-1.47,0-2.95,0-4.42,0-.38,0-.46.08-.46.47,0,.65,0,1.29,0,1.94q0,.5.51.5c4.28,0,8.57,0,12.85,0ZM17.25,7.32c-4.28,0-8.57,0-12.85,0-.1,0-.2,0-.31,0-.19,0-.26.08-.26.27,0,.61,0,1.22,0,1.84,0,.19.09.27.27.26.11,0,.23,0,.34,0,8.51,0,17.02,0,25.53,0,.1,0,.2,0,.31,0,.24.01.32-.1.31-.33,0-.5,0-1,0-1.5q0-.54-.53-.54c-4.27,0-8.55,0-12.82,0ZM8.34,2.33c.78,0,.82-.04.53-.69-.11-.25-.2-.56-.52-.57-.34-.01-.45.31-.55.57-.27.63-.23.69.44.69.03,0,.07,0,.1,0ZM14.23,2.33c.81,0,.89-.15.48-.88-.04-.07-.08-.14-.13-.2-.21-.26-.41-.26-.62-.02-.08.09-.15.2-.2.31-.33.7-.28.78.47.78ZM20.15,2.33c.81,0,.88-.1.51-.82-.1-.2-.21-.43-.47-.44-.27,0-.36.24-.48.42-.01.02-.02.04-.03.06-.33.69-.28.78.48.78ZM26.07,2.33c.81,0,.87-.1.5-.83-.1-.2-.21-.43-.48-.43-.27,0-.36.24-.47.43-.01.02-.02.04-.03.06-.33.7-.29.77.48.77Z"/>
      <path class="cls-1" d="M17.21,20.47c5.47,0,10.95,0,16.42,0,.54,0,.8.18.79.52-.01.33-.26.48-.8.48-.5,0-1,0-1.5,0q-.49,0-.49.51c0,1.31,0,2.63,0,3.94,0,1.08-.51,1.59-1.57,1.59-8.57,0-17.14,0-25.71,0-1.07,0-1.57-.51-1.57-1.59,0-1.34,0-2.68,0-4.01,0-.44,0-.44-.46-.44-.54,0-1.09,0-1.63,0-.44,0-.68-.17-.7-.48-.01-.33.24-.52.69-.52,1.68,0,3.36,0,5.03,0,3.83,0,7.66,0,11.49,0ZM17.21,21.47c-4.31,0-8.61,0-12.92,0q-.46,0-.46.47c0,1.33,0,2.65,0,3.98,0,.51.04.56.57.56,1.13,0,2.27,0,3.4,0,7.4,0,14.8,0,22.2,0,.57,0,.6-.03.6-.59,0-1.31,0-2.63,0-3.94q0-.47-.47-.47c-4.31,0-8.61,0-12.92,0Z"/>
      <path class="cls-1" d="M5.95,13.42c.34-.02.68,0,1.01.07.48.11.88.34.98.86.11.54.09,1.09-.41,1.44-.3.21-.27.37-.1.62.18.26.33.54.47.82.18.34.05.54-.34.54-.26,0-.45-.11-.58-.35-.17-.33-.37-.65-.53-.99-.11-.23-.26-.33-.51-.28-.25.06-.16.27-.17.42-.02.23,0,.45-.01.68-.03.33-.2.51-.48.5-.3-.02-.46-.2-.46-.49,0-1.13,0-2.26,0-3.39,0-.3.18-.46.47-.47.21,0,.43,0,.64,0ZM5.79,14.77q0,.62.43.61c.61,0,.85-.17.86-.62,0-.44-.22-.59-.87-.59q-.42,0-.42.59Z"/>
      <path class="cls-1" d="M18.11,15.57c.02.3-.03.58-.11.86-.28.95-1.01,1.49-1.93,1.43-.92-.06-1.63-.72-1.79-1.66-.09-.5-.07-.99.07-1.48.23-.82.93-1.35,1.78-1.37.87-.02,1.57.47,1.85,1.28.11.31.17.64.14.95ZM15.19,15.57c-.02.32.04.63.18.92.15.32.39.52.76.53.38,0,.67-.14.83-.48.3-.61.31-1.24.02-1.86-.16-.35-.45-.52-.84-.51-.38.01-.63.2-.79.54-.13.27-.17.56-.16.86Z"/>
      <path class="cls-1" d="M22.8,15.65c0-.54-.01-1.09,0-1.63.01-.47.16-.6.62-.6.32,0,.63-.01.95.03,1.25.19,1.87.97,1.79,2.25-.08,1.13-.55,1.78-1.46,2-.5.12-1.01.1-1.52.08-.31-.01-.39-.23-.39-.5,0-.54,0-1.09,0-1.63,0,0,0,0,0,0ZM23.76,15.6c0,.37,0,.75,0,1.12,0,.23.1.29.31.29.55-.01.95-.31,1.09-.85.1-.38.1-.76,0-1.14-.14-.53-.54-.83-1.09-.83-.22,0-.31.07-.3.29,0,.37,0,.75,0,1.12Z"/>
      <path class="cls-1" d="M30.47,15.57c0-.54,0-1.09,0-1.63,0-.35.15-.51.49-.52.52,0,1.04-.04,1.56.05.53.1.93.34,1.08.9.15.6-.03,1.17-.51,1.5-.2.13-.18.24-.08.41.16.27.33.54.47.82.11.2.3.42,0,.62-.22.15-.64.05-.78-.19-.22-.36-.4-.73-.61-1.1-.05-.1-.09-.21-.21-.26-.28-.12-.48.01-.48.33,0,.26,0,.52,0,.78-.01.32-.17.49-.44.48-.3,0-.47-.17-.47-.47,0-.58,0-1.15,0-1.73,0,0,0,0,0,0ZM31.86,14.18c-.12.05-.39-.1-.44.12-.08.32-.13.7.03,1,.11.21.44.07.67.08.07,0,.14-.01.2-.04.25-.08.39-.25.39-.53.01-.45-.21-.62-.85-.63Z"/>
      <path class="cls-1" d="M18.89,15.56c0-.54,0-1.09,0-1.63,0-.35.14-.51.49-.51.51-.01,1.02-.04,1.52.05.53.09.94.32,1.09.88.16.61,0,1.18-.49,1.51-.2.14-.2.26-.09.44.17.27.33.54.47.82.1.19.3.4.01.59-.23.15-.64.07-.79-.17-.21-.34-.38-.69-.58-1.04-.09-.16-.16-.35-.41-.35-.21,0-.32.05-.31.28.01.26,0,.52,0,.78,0,.36-.17.55-.46.55-.3,0-.46-.18-.46-.54,0-.55,0-1.11,0-1.66ZM19.82,14.78q0,.6.4.6c.64,0,.93-.19.92-.63,0-.41-.25-.58-.89-.58q-.43,0-.43.6Z"/>
      <path class="cls-1" d="M8.77,15.57c0-.52,0-1.04,0-1.56,0-.43.14-.58.57-.59.54,0,1.09,0,1.63,0,.26,0,.48.07.49.39,0,.35-.23.4-.51.39-.32,0-.63,0-.95,0-.21,0-.32.07-.3.3,0,.09,0,.18,0,.27-.03.27.09.37.35.35.24-.02.48,0,.71,0,.26.01.44.12.43.41,0,.28-.18.37-.43.37-.27,0-.54,0-.82,0-.17,0-.25.08-.25.25,0,.97-.09.8.74.82.25,0,.5,0,.75.03.23.02.35.15.34.38,0,.23-.13.38-.34.39-.67.02-1.34.02-2,0-.31-.01-.4-.25-.4-.53,0-.56,0-1.11,0-1.67Z"/>
      <path class="cls-1" d="M26.93,15.58c0-.53,0-1.06,0-1.6,0-.41.15-.56.55-.57.54,0,1.09,0,1.63,0,.27,0,.51.07.5.41,0,.35-.25.38-.52.38-.31,0-.61,0-.92,0-.23,0-.32.06-.33.31,0,.61-.02.61.6.61.19,0,.39,0,.58.02.22.03.33.17.32.4-.01.23-.14.35-.36.36-.28,0-.57.01-.85,0-.2,0-.28.07-.28.28.01.91-.09.77.73.79.25,0,.5,0,.75.03.22.02.35.15.35.38,0,.23-.12.38-.34.39-.68.04-1.36.05-2.03,0-.29-.02-.38-.25-.38-.52,0-.55,0-1.11,0-1.66Z"/>
      <path class="cls-1" d="M1,15.59c0-.55,0-1.11,0-1.66,0-.35.14-.5.49-.51.46,0,.93-.03,1.39.04.85.13,1.3.62,1.27,1.39-.03.78-.59,1.33-1.4,1.38-.18.01-.36.01-.54,0-.2,0-.29.07-.28.28,0,.26,0,.52,0,.78,0,.3-.17.47-.46.47-.28,0-.45-.17-.45-.48,0-.57,0-1.13,0-1.7ZM1.93,14.82c0,.71.19.85.85.62.32-.11.48-.36.45-.71-.03-.34-.25-.49-.56-.54-.68-.1-.74-.06-.74.62Z"/>
      <path class="cls-1" d="M12.9,16.42c-.16,0-.32,0-.48,0-.21-.02-.34-.12-.34-.35,0-.21.12-.32.31-.33.33-.02.66-.02.98,0,.19,0,.32.12.32.33,0,.22-.12.33-.33.35-.16.01-.32,0-.48,0Z"/>
    </g>
  </g>
</svg>