<?xml version="1.0" encoding="UTF-8"?>
<svg id="Layer_2" data-name="Layer 2" xmlns="http://www.w3.org/2000/svg" viewBox="0 0 27.2 19.25">
  <defs>
    <style>
      .cls-1 {
        fill: #192754;
        stroke-width: 0px;
      }
    </style>
  </defs>
  <g id="Layer_1-2" data-name="Layer 1">
    <g>
      <path class="cls-1" d="M17.33,0c.54.02,1.06.35,1.37,1.01.61,1.31,1.24,2.62,1.84,3.94.18.39.44.54.84.58,1.45.16,2.9.35,4.34.54.71.09,1.17.51,1.38,1.18.21.67.03,1.26-.47,1.73-1.06,1.01-2.13,2-3.21,2.99-.28.26-.37.51-.29.88.29,1.42.56,2.84.83,4.26.13.7-.03,1.31-.61,1.76-.6.46-1.25.48-1.91.12-1.23-.68-2.46-1.35-3.68-2.05-.41-.24-.75-.27-1.18-.02-1.21.71-2.45,1.37-3.68,2.05-1.13.62-2.37.04-2.59-1.2-.05-.26,0-.5.05-.75.26-1.34.51-2.69.79-4.03.1-.47-.01-.8-.37-1.13-1.07-.96-2.11-1.95-3.16-2.94-.5-.47-.64-1.06-.43-1.71.21-.64.66-1.04,1.33-1.15.34-.06.68-.09,1.02-.14,1.17-.14,2.35-.29,3.52-.43.32-.04.51-.21.64-.5.62-1.35,1.25-2.69,1.89-4.03.31-.65.85-.98,1.72-.98ZM11.49,17.46c0,.21.05.4.24.5.22.13.44.07.65-.05,1.27-.7,2.54-1.4,3.8-2.11.65-.37,1.28-.37,1.93,0,1.25.7,2.52,1.39,3.77,2.09.23.13.47.22.71.05.25-.18.21-.44.16-.69-.28-1.42-.55-2.84-.83-4.26-.14-.72.05-1.3.6-1.8,1.08-.99,2.14-1.99,3.21-2.98.2-.18.29-.39.2-.65-.08-.23-.28-.31-.51-.34-1.33-.16-2.67-.36-4-.48-1.01-.09-1.71-.51-2.06-1.49-.17-.45-.4-.88-.6-1.32-.37-.79-.74-1.58-1.11-2.38-.1-.22-.25-.4-.52-.4-.26,0-.41.18-.51.4-.03.06-.06.12-.09.19-.58,1.25-1.17,2.5-1.74,3.76-.32.7-.84,1.09-1.61,1.18-1.44.16-2.87.36-4.31.53-.25.03-.46.1-.54.35-.09.27.04.48.24.67,1.07.99,2.14,1.98,3.21,2.98.51.48.71,1.05.57,1.75-.13.6-.23,1.2-.35,1.79-.17.9-.35,1.81-.52,2.71Z"/>
      <path class="cls-1" d="M0,9.94c0-.66.34-1.15,1-1.38,1.02-.35,2.05-.7,3.07-1.03.31-.1.46-.28.53-.6.22-1.01.48-2.01.71-3.02.14-.62.48-1.05,1.11-1.19.65-.14,1.17.08,1.56.63.24.35.51.68.76,1.03.23.33.2.69-.07.89-.28.21-.61.15-.87-.18-.26-.34-.51-.68-.76-1.02-.08-.11-.17-.23-.34-.19-.15.04-.2.17-.23.32-.25,1.05-.51,2.1-.75,3.15-.14.65-.5,1.06-1.13,1.26-.97.32-1.94.64-2.91.97-.19.06-.45.07-.48.33-.02.24.22.3.38.4.89.55,1.78,1.1,2.68,1.64.52.31.77.76.77,1.37,0,1.09.03,2.19.05,3.28,0,.15-.03.31.14.4.19.09.31-.05.42-.15.85-.72,1.69-1.45,2.55-2.17.38-.32.82-.45,1.32-.3.33.1.52.37.47.67-.05.31-.29.5-.65.48-.23-.01-.39.06-.56.2-.81.7-1.62,1.39-2.43,2.09-.48.42-1.02.53-1.6.28-.59-.26-.84-.76-.85-1.38-.02-1.09.03-2.19-.04-3.28-.02-.26-.11-.42-.33-.55-.92-.55-1.83-1.11-2.74-1.67C.29,10.91,0,10.51,0,9.94Z"/>
    </g>
  </g>
</svg>