<?xml version="1.0" encoding="UTF-8"?>
<svg id="Layer_2" data-name="Layer 2" xmlns="http://www.w3.org/2000/svg" viewBox="0 0 27.05 23.36">
  <defs>
    <style>
      .cls-1 {
        fill: #192754;
        stroke-width: 0px;
      }
    </style>
  </defs>
  <g id="Layer_1-2" data-name="Layer 1">
    <g>
      <path class="cls-1" d="M0,2.87c.36-1,.91-1.38,1.99-1.38.95,0,1.9,0,2.85,0,.21,0,.3-.07.37-.27.28-.91,1.11-1.41,1.9-1.15.55.18.9.57,1.06,1.12.07.25.19.31.43.3.69-.01,1.39-.01,2.08,0,.22,0,.32-.05.39-.28.21-.71.77-1.18,1.41-1.2.7-.03,1.31.42,1.54,1.16.08.25.19.33.44.32.7-.02,1.41-.01,2.11,0,.2,0,.29-.06.35-.26.21-.71.75-1.17,1.37-1.22.7-.05,1.35.39,1.58,1.14.08.27.21.34.48.34.96-.02,1.92,0,2.87,0,1.15,0,1.9.75,1.9,1.9,0,3.19,0,6.38,0,9.57,0,.22.06.39.22.56,1.59,1.67,2.12,3.64,1.41,5.83-.71,2.21-2.29,3.52-4.57,3.93-1.54.27-2.97-.1-4.24-1.01-.18-.13-.36-.19-.58-.19-5.09,0-10.18,0-15.27.01-1.02,0-1.73-.37-2.08-1.34V2.87ZM16.68,14.12c.08-.1.12-.14.15-.18,1.89-2.22,4.81-2.74,7.36-1.3.22.12.22.03.22-.15,0-1.92,0-3.85,0-5.77,0-.22-.06-.31-.3-.31-7.73,0-15.45,0-23.18,0-.24,0-.3.08-.3.3.01,1.03,0,2.06,0,3.09,0,3.46,0,6.93,0,10.39,0,.38.1.71.4.96.24.21.54.23.84.23,4.9,0,9.79,0,14.69,0,.04,0,.07,0,.11,0,.06,0,.13.02.17-.04.04-.07-.03-.11-.07-.16-.29-.36-.53-.74-.72-1.16-.07-.16-.17-.22-.35-.21-.56,0-1.13,0-1.69,0-.36,0-.48-.12-.48-.47,0-.73,0-1.46,0-2.19,0-.35.12-.47.48-.48.45,0,.9,0,1.34,0,.16,0,.24-.06.27-.21.06-.25.12-.5.2-.74.07-.19.02-.25-.18-.24-.54,0-1.09,0-1.63,0-.36,0-.48-.12-.48-.47,0-.73,0-1.46,0-2.19,0-.36.12-.47.48-.48.73,0,1.46,0,2.19,0,.36,0,.47.11.47.47,0,.41,0,.82,0,1.3ZM12.53,5.72c3.84,0,7.68,0,11.52,0,.36,0,.37,0,.37-.37,0-.66,0-1.32,0-1.98,0-.79-.4-1.19-1.18-1.19-1.27,0-2.55,0-3.82,0-.52,0-1.04,0-1.56,0-.08,0-.19-.04-.24.06-.04.09.04.17.08.24.15.25.38.39.66.42.22.03.38.14.36.37-.02.24-.2.3-.42.3-.56-.01-1.14-.44-1.34-1.06-.09-.28-.23-.34-.49-.33-1.26.01-2.51,0-3.77,0-.26,0-.53,0-.79,0-.15,0-.18.07-.12.2.15.29.38.48.71.52.22.03.37.13.37.36,0,.2-.17.31-.44.3-.58-.02-1.14-.46-1.35-1.13-.07-.21-.17-.27-.38-.27-.98,0-1.97,0-2.95,0-.54,0-1.09,0-1.63,0-.24,0-.27.05-.15.26.15.26.37.41.67.46.27.04.41.19.38.38-.05.25-.23.3-.46.29-.57-.03-1.12-.47-1.33-1.12-.07-.2-.15-.28-.37-.28-1.02.01-2.04,0-3.06,0-.71,0-1.14.44-1.15,1.16,0,.66,0,1.32,0,1.98q0,.4.41.4c3.82,0,7.65,0,11.47,0ZM21.29,12.53c-2.81,0-5.07,2.25-5.08,5.04-.01,2.72,2.14,5.11,5.09,5.1,2.94,0,5.05-2.36,5.06-5.07,0-2.79-2.27-5.06-5.06-5.06ZM15.99,13.89c0-.22,0-.44,0-.66,0-.15-.07-.22-.22-.22-.44,0-.88,0-1.32,0-.15,0-.21.06-.21.21,0,.45,0,.89,0,1.34,0,.15.06.22.22.22.43,0,.86,0,1.29,0,.17,0,.24-.07.24-.24,0-.22,0-.44,0-.66ZM14.24,18.26c0,.23,0,.46,0,.68,0,.14.05.21.2.21.36,0,.72,0,1.08,0,.14,0,.2-.06.16-.2-.13-.44-.14-.9-.17-1.35-.01-.15-.07-.22-.23-.22-.27,0-.54,0-.82,0-.18,0-.23.09-.23.24,0,.21,0,.42,0,.63ZM6.67,1.48s0,0,0,0c.23,0,.46,0,.69,0,.13,0,.17-.04.13-.18-.11-.33-.48-.63-.81-.63-.31,0-.68.29-.79.61-.05.13-.03.2.13.2.22,0,.44,0,.66,0ZM12.53,1.48c.23,0,.46,0,.68,0,.14,0,.16-.06.12-.18-.1-.33-.49-.63-.81-.62-.31,0-.71.33-.8.64-.03.11,0,.17.12.17.23,0,.46,0,.68,0ZM18.38,1.49c.21,0,.42,0,.63,0,.22.01.23-.09.15-.25-.16-.32-.41-.53-.77-.55-.3-.02-.64.26-.78.58-.06.15-.05.23.14.22.21,0,.42,0,.63,0Z"/>
      <path class="cls-1" d="M16.68,9.57c0,.37,0,.74,0,1.11,0,.32-.12.47-.43.47-.75.01-1.51,0-2.26,0-.31,0-.44-.15-.44-.47,0-.75,0-1.49,0-2.24,0-.31.12-.42.43-.43.75,0,1.51,0,2.26,0,.33,0,.43.11.44.45,0,.37,0,.74,0,1.11ZM14.24,9.56c0,.21,0,.42,0,.63,0,.19.06.27.26.27.41,0,.82,0,1.24,0,.18,0,.26-.06.25-.25,0-.43,0-.86,0-1.29,0-.16-.06-.24-.23-.24-.43,0-.86,0-1.29,0-.18,0-.23.08-.22.24,0,.21,0,.42,0,.63Z"/>
      <path class="cls-1" d="M3.25,9.56c0-.39,0-.77,0-1.16,0-.27.11-.38.39-.38.78,0,1.56,0,2.34,0,.26,0,.39.12.4.39,0,.78,0,1.56,0,2.34,0,.25-.15.4-.4.4-.78,0-1.56.01-2.34,0-.28,0-.38-.14-.38-.43,0-.39,0-.77,0-1.16ZM4.82,8.69c-.23,0-.46,0-.68,0-.15,0-.23.05-.22.21,0,.45,0,.89,0,1.34,0,.16.06.22.22.22.45,0,.89,0,1.34,0,.14,0,.21-.05.21-.2,0-.46,0-.91,0-1.37,0-.14-.06-.21-.2-.2-.22,0-.44,0-.66,0Z"/>
      <path class="cls-1" d="M11.52,9.58c0,.39,0,.77,0,1.16,0,.28-.11.41-.39.42-.77,0-1.54.01-2.32,0-.28,0-.41-.15-.42-.44,0-.75,0-1.51,0-2.26,0-.31.13-.43.44-.43.75,0,1.51,0,2.26,0,.33,0,.43.1.43.42,0,.38,0,.75,0,1.13ZM9.08,9.55c0,.22,0,.44,0,.66,0,.19.07.25.25.24.42,0,.84,0,1.27,0,.17,0,.26-.05.25-.24,0-.43,0-.86,0-1.29,0-.16-.04-.24-.22-.24-.44,0-.88,0-1.32,0-.17,0-.23.07-.23.24,0,.21,0,.42,0,.63Z"/>
      <path class="cls-1" d="M20.28,8.02c.38,0,.76,0,1.13,0,.29,0,.42.11.42.39,0,.77,0,1.55,0,2.32,0,.28-.14.42-.43.42-.76,0-1.51,0-2.27,0-.31,0-.43-.13-.43-.44,0-.76,0-1.51,0-2.27,0-.31.11-.41.41-.42.39,0,.77,0,1.16,0ZM20.25,10.45c.22,0,.44,0,.66,0,.17,0,.24-.06.24-.23,0-.44,0-.88,0-1.31,0-.15-.05-.23-.21-.22-.45,0-.89,0-1.34,0-.16,0-.22.06-.22.22,0,.45,0,.89,0,1.34,0,.16.07.22.22.21.22,0,.44,0,.66,0Z"/>
      <path class="cls-1" d="M3.25,13.92c0-.39,0-.77,0-1.16,0-.3.11-.41.42-.41.75,0,1.51,0,2.26,0,.31,0,.44.11.45.42.01.76,0,1.53,0,2.29,0,.29-.15.42-.43.42-.75,0-1.51,0-2.26,0-.32,0-.43-.12-.43-.46,0-.37,0-.74,0-1.11ZM3.92,13.89c0,.22,0,.44,0,.66,0,.19.07.25.25.24.43,0,.86,0,1.29,0,.17,0,.24-.06.23-.23,0-.44,0-.88,0-1.31,0-.17-.07-.23-.24-.23-.44,0-.88,0-1.31,0-.16,0-.22.06-.22.22,0,.22,0,.44,0,.66Z"/>
      <path class="cls-1" d="M11.52,13.93c0,.38,0,.75,0,1.13,0,.28-.12.41-.39.42-.77,0-1.54,0-2.32,0-.25,0-.41-.14-.41-.38-.01-.79-.01-1.58,0-2.37,0-.28.14-.38.43-.38.76,0,1.53,0,2.29,0,.29,0,.4.12.4.4,0,.39,0,.79,0,1.18ZM10.85,13.89c0-.22,0-.44,0-.66,0-.15-.04-.23-.21-.22-.45,0-.89,0-1.34,0-.16,0-.22.06-.22.22,0,.45,0,.89,0,1.34,0,.14.05.21.2.21.46,0,.91,0,1.37,0,.14,0,.21-.06.2-.21,0-.23,0-.46,0-.68Z"/>
      <path class="cls-1" d="M3.25,18.24c0-.39,0-.77,0-1.16,0-.27.12-.39.38-.4.78,0,1.56,0,2.34,0,.26,0,.4.15.4.4,0,.78.01,1.56,0,2.34,0,.28-.14.39-.42.39-.76,0-1.53,0-2.29,0-.3,0-.41-.11-.41-.42,0-.39,0-.77,0-1.16ZM3.92,18.24c0,.24,0,.47,0,.71,0,.13.05.2.18.19.46,0,.93,0,1.39,0,.13,0,.19-.06.19-.19,0-.46,0-.93,0-1.39,0-.14-.07-.19-.2-.19-.46,0-.91,0-1.37,0-.14,0-.21.06-.2.21,0,.22,0,.44,0,.66Z"/>
      <path class="cls-1" d="M11.52,18.26c0,.38,0,.76,0,1.13,0,.3-.11.42-.41.42-.76,0-1.53,0-2.29,0-.28,0-.41-.12-.42-.4-.01-.77-.01-1.55,0-2.32,0-.28.15-.41.44-.41.75,0,1.49,0,2.24,0,.33,0,.44.12.45.45,0,.38,0,.76,0,1.13ZM10.85,18.3c0-.24,0-.47,0-.71,0-.14-.06-.21-.2-.21-.46,0-.91,0-1.37,0-.15,0-.2.07-.2.21,0,.45,0,.89,0,1.34,0,.16.06.22.22.22.45,0,.89,0,1.34,0,.16,0,.22-.07.21-.22,0-.21,0-.42,0-.63Z"/>
      <path class="cls-1" d="M23.2,19.09c-.1,0-.19-.04-.27-.09-.58-.35-1.15-.7-1.73-1.05-.12-.07-.22-.17-.29-.3-.46-.86-.93-1.71-1.39-2.57-.02-.04-.04-.08-.06-.12-.1-.22-.05-.41.14-.49.21-.09.36,0,.46.19.21.38.41.75.62,1.13.25.46.5.92.75,1.39.07.13.16.22.29.3.52.31,1.04.63,1.55.94.13.08.25.17.26.34.01.18-.15.34-.33.34Z"/>
    </g>
  </g>
</svg>