<?xml version="1.0" encoding="UTF-8"?>
<svg id="Layer_2" data-name="Layer 2" xmlns="http://www.w3.org/2000/svg" viewBox="0 0 26.73 24.32">
  <defs>
    <style>
      .cls-1 {
        fill: #f2f2f2;
        stroke-width: 0px;
      }
    </style>
  </defs>
  <g id="Layer_1-2" data-name="Layer 1">
    <g>
      <path class="cls-1" d="M5.92,2.33c.61.02,1.26.11,1.88.32.2.07.31.03.45-.14C10.28-.12,14.19-.79,16.93,1.01c.52.34.98.75,1.32,1.27.18.28.35.33.67.26,2.23-.48,4.22,0,5.84,1.65,1.3,1.33,2,2.97,1.97,4.83-.04,2.41-1.25,4.18-3.34,5.35-.36.2-.75.38-1.15.47-.28.07-.38.2-.37.49.01,2.04,0,4.08,0,6.12,0,.11,0,.22,0,.33.03.44-.14.69-.57.88-2.01.86-4.1,1.4-6.28,1.58-3.11.26-6.1-.16-8.98-1.38q-1.08-.46-1.09-1.62c0-1.95,0-3.9,0-5.86,0-.28-.09-.39-.35-.48-1.55-.51-2.87-1.37-3.7-2.81-1.21-2.09-1.17-4.24-.15-6.37.79-1.65,2.06-2.8,3.87-3.25.4-.1.82-.15,1.28-.15ZM5.96,16.61c0,1.47,0,2.93,0,4.4,0,.36,0,.36.34.23,2.67-.99,5.42-1.44,8.27-1.26,2.04.12,4.02.54,5.93,1.26.34.13.34.12.34-.23,0-2.88,0-5.77,0-8.65,0-.12,0-.24.02-.36.05-.23.2-.38.45-.4.26-.01.44.1.51.36.03.12.04.25.04.38,0,.38,0,.75,0,1.13,0,.42.02.44.41.29,2.93-1.08,4.22-4.26,2.9-7.15-1.1-2.41-3.42-3.64-5.88-3.12-.26.05-.34.12-.25.41.37,1.11.41,2.23.11,3.36-.1.37-.34.52-.65.44-.27-.07-.4-.32-.34-.67.05-.28.12-.56.14-.85.15-1.51-.28-2.83-1.42-3.86-1.12-1.01-2.45-1.41-3.95-1.29-1.49.11-2.7.77-3.7,1.86-.15.17-.23.29,0,.47.21.17.23.42.07.64-.16.23-.38.27-.63.16-.08-.03-.16-.09-.23-.13-2.14-1.26-4.85-.71-6.32,1.29-.82,1.11-1.13,2.37-1.08,3.75.08,2.19,1.55,4.14,3.64,4.81.24.08.27,0,.26-.21,0-.53,0-1.07,0-1.61,0-.22.12-.38.33-.45.2-.07.39-.03.54.14.13.14.12.31.12.48,0,1.46,0,2.91,0,4.37ZM19.87,22.12c-4.32-1.54-8.63-1.55-12.94,0,4.31,1.56,8.63,1.55,12.94,0Z"/>
      <path class="cls-1" d="M13.24,10.32c-1.37-.02-2.78.17-4.17.49-.37.09-.64-.05-.71-.34-.07-.32.1-.56.49-.65,2.09-.5,4.19-.67,6.33-.44.84.09,1.66.23,2.48.42.44.1.65.34.57.64-.08.33-.36.45-.82.35-1.35-.32-2.72-.49-4.18-.48Z"/>
    </g>
  </g>
</svg>