<?xml version="1.0" encoding="UTF-8"?>
<svg id="Layer_2" data-name="Layer 2" xmlns="http://www.w3.org/2000/svg" viewBox="0 0 41.12 39.72">
  <defs>
    <style>
      .cls-1 {
        fill: #192754;
      }
    </style>
  </defs>
  <g id="Layer_1-2" data-name="Layer 1">
    <g>
      <path class="cls-1" d="M0,35.87c.83-3.05,1.07-6.43,1.9-9.45.33-1.21.88-1.9,2.07-2.34,1.55-.58,5.26-1.03,6.34-1.92.17-.14,1.19-1.23,1.22-1.34.27-.91-.32-.99-.83-1.47-1.35-1.27-2.34-2.91-2.45-4.8-1.52-.38-2.35-1.92-1.92-3.42.1-.34.53-.85.56-1.04.44-2.33-1.11-5.74,1.87-7.03.21-.09.76-.18.86-.27.07-.06.23-.74.33-.95.48-.97,1.6-1.66,2.67-1.74,4.75-.37,10.27.09,11.52,5.65.35,1.53,0,3.11.23,4.42.04.19.28.44.38.66.66,1.56-.18,3.31-1.82,3.72-.11,1.98-1.16,3.61-2.57,4.93-.16.15-.66.42-.71.58s-.04.68.03.83c.11.25,1,.97,1.2,1.28.29-.63,1.84-.64,2.12-1.01.04-.05.23-.57.23-.62-.01-.17-.59-1.03-.71-1.37-.19-.58-.18-.99.2-1.49.26-.34,1.31-1.39,1.64-1.64.58-.44.98-.44,1.63-.19.44.17,1.07.71,1.5.59.05-.01.44-.2.46-.22.1-.13.34-1.14.46-1.42.16-.35.34-.66.71-.82.47-.21,2.26-.21,2.82-.15.48.05.99.36,1.21.8.31.61.23,1.7,1.06,1.84.7.11,1.47-1.19,2.72-.64.35.15,1.98,1.77,2.14,2.11.15.31.18.72.11,1.06-.08.4-.81,1.34-.75,1.66.16.86,1,.76,1.67,1.06.51.23.89.54.95,1.14s.07,2,0,2.57c-.05.41-.38.84-.75,1.02-.31.15-1.51.43-1.64.56-.02.02-.24.56-.24.6-.02.25.69,1.25.77,1.61.06.28.04.68-.06.95-.11.32-1.52,1.75-1.85,2-.45.34-.79.44-1.35.3-.71-.17-1.47-1.1-2.2-.51-.2.16-.39,1.34-.63,1.72-.14.22-.66.69-.91.69h-1.32c.22,1.2.58,2.29.07,3.48-.47,1.09-1.5,1.77-2.68,1.89H2.93c-1.45-.15-2.55-1.17-2.93-2.57v-1.28ZM23.02,9.32v-2.37c0-2.3-2.26-4.73-4.41-5.29-1.26-.33-4.54-.32-5.9-.2-.79.07-1.54.62-1.7,1.43-.04.22,0,.44-.05.67-.18.74-.86.49-1.43.66-.62.18-1.35.96-1.35,1.62v3.49l1.01-.16c.23-1.36.76-3.7,2.48-3.78.67-.03,1.43.27,2.11.38,1.26.2,2.54.36,3.82.43,1.83.1,3.94-.37,4.58,2,.07.25.08,1.01.12,1.04.03.03.58-.02.72.08ZM11.61,6.77c-.45.14-.74,1.14-.85,1.55-.15.52-.25,1.66-.45,2.03-.32.58-.84.24-1.3.21-1.04-.05-1.73.98-1.31,1.93s1.41.58,1.74,1.07c.2.31.08.52.13.83,1.22,7.28,10.91,7.19,12.09.08.03-.2,0-.41.03-.61.12-.69.81-.52,1.31-.78.99-.51.84-2.08-.2-2.45-.63-.22-1.69.4-1.84-.57s.32-2.01-.96-2.48c-2.24-.03-4.47-.17-6.67-.54-.44-.08-1.31-.39-1.69-.28ZM32,15.18h-2.31c-.33,1.3-.52,2.3-2.01,2.61-.92.19-2.19-.84-2.41-.73-.1.05-1.5,1.42-1.5,1.53.55,1.2,1.14,1.61.53,2.96-.29.63-.38.72-1.01.99-.17.08-.95.2-.55.35l3.81.95c.31-3.83,5.15-5.49,7.62-2.44,2.62,3.23-.54,7.93-4.49,6.78l.9,4.68c.1.27,1.14.09,1.42.13.24-.86.31-1.79,1.16-2.25.47-.26,1.04-.47,1.58-.35.5.11,1,.62,1.44.73.15.04.15.04.28-.04.1-.06,1.45-1.38,1.46-1.49-.35-.89-1.03-1.43-.74-2.44.47-1.62,1.25-1.39,2.61-1.98v-2.18c-1.32-.4-2.16-.42-2.59-1.87-.33-1.1.4-1.57.71-2.55l-1.54-1.51c-.82.28-1.43.95-2.36.75-1.47-.31-1.74-1.29-2-2.61ZM18.29,20.71c-1.75.65-3.62.65-5.37,0-.41,4.44,5.79,4.46,5.37,0ZM29.38,26.63c.29.36,1.64.41,2.09.32,3.58-.73,2.75-6.46-1.31-5.72-1.18.21-2.6,1.91-2.23,3.12.02.08.86.79,1.06,1.18.14.26.31,1,.39,1.1ZM2.77,38.36h3.65c-.34-3.63-.85-7.25-1.27-10.87.07-.92.65-1.41,1.54-1.49h17.73c.9,0,1.57.59,1.64,1.49l-1.28,10.87h3.65c.67,0,1.58-1.19,1.49-1.88-.74-3.11-1.08-6.45-1.87-9.52-.21-.82-.38-1.26-1.22-1.59-1.76-.7-4.05-.87-5.82-1.56-.7-.27-1.06-.78-1.6-1.24-.05.47-.35.96-.64,1.32-2.07,2.57-6.01,1.77-7.02-1.32-.12.15-.22.31-.36.44-1.46,1.4-5.01,1.59-6.96,2.34-.64.25-1,.63-1.2,1.29-.9,3.09-1.12,6.71-1.94,9.85-.01.79.68,1.74,1.47,1.88ZM24.58,27.37H6.62s-.13.13-.12.19l1.28,10.8h15.59s1.32-10.72,1.32-10.72c.03-.09-.03-.24-.12-.27Z"/>
      <path class="cls-1" d="M15.6,30.79c2.81,0,2.72,4.22,0,4.21s-2.81-4.21,0-4.21ZM15.54,32.12c-.94.12-.89,1.5.06,1.51,1.08.01.92-1.64-.06-1.51Z"/>
    </g>
  </g>
</svg>