<?xml version="1.0" encoding="UTF-8"?>
<svg id="Layer_2" data-name="Layer 2" xmlns="http://www.w3.org/2000/svg" viewBox="0 0 39.97 37.31">
  <defs>
    <style>
      .cls-1 {
        fill: #fff;
      }
    </style>
  </defs>
  <g id="Layer_1-2" data-name="Layer 1">
    <g>
      <g>
        <path class="cls-1" d="M27.44,31.04c0-3.48,2.79-6.26,6.26-6.26,3.48,0,6.25,2.79,6.27,6.26.02,3.47-2.87,6.3-6.29,6.27-3.46-.03-6.24-2.8-6.24-6.27ZM33.25,26.5s.01,0,.02,0c0-.03,0-.07,0-.1,0-.77,0-.76-.76-.6-2.53.54-4.39,2.82-4.17,5.66.1,1.26.57,2.35,1.44,3.26,1.25,1.32,2.81,1.86,4.61,1.66.96-.11,1.82-.48,2.59-1.07.17-.13.17-.21.01-.36-.27-.25-.53-.5-.77-.77-.14-.15-.23-.14-.39-.03-.77.54-1.64.74-2.57.64-1.73-.19-3.14-1.61-3.32-3.33-.19-1.8.91-3.48,2.62-4.03.23-.07.55-.01.66-.23.1-.2.02-.47.02-.72ZM30.81,31.04c0,1.57,1.31,2.9,2.89,2.88,1.6-.02,2.88-1.22,2.88-2.87,0-1.63-1.24-2.9-2.89-2.89-1.64,0-2.84,1.27-2.88,2.88ZM38.26,30.61c.17,0,.35-.01.52,0,.25.02.3-.09.26-.31-.11-.72-.34-1.4-.72-2.02-.9-1.45-2.2-2.3-3.88-2.58-.22-.04-.32.02-.31.27.02.36,0,.73,0,1.09,0,.16.05.23.21.27,1.68.36,2.71,1.38,3.07,3.07.03.14.09.21.24.21.2,0,.4,0,.6,0ZM38.25,31.48c-.2,0-.4,0-.6,0-.14,0-.21.05-.23.19-.09.58-.31,1.11-.66,1.59-.07.1-.06.17.02.25.3.3.6.6.9.9.09.09.15.09.23-.01.63-.79,1-1.69,1.13-2.69.02-.15-.03-.23-.2-.22-.2,0-.4,0-.6,0Z"/>
        <path class="cls-1" d="M26.85,13.96c3.36,0,6.71,0,10.07,0,1.11,0,1.8.68,1.8,1.8,0,3.08,0,6.16,0,9.24,0,.37-.15.55-.44.55-.23,0-.4-.15-.43-.37-.01-.09,0-.19,0-.29,0-3,0-6,0-9,0-.76-.3-1.06-1.06-1.06-6.64,0-13.28,0-19.93,0-.74,0-1.04.3-1.04,1.04,0,4.56,0,9.12,0,13.68,0,.76.3,1.05,1.06,1.05,3.03,0,6.05,0,9.08,0,.1,0,.19,0,.29,0,.24.02.4.2.39.43,0,.23-.16.4-.4.43-.07,0-.14,0-.21,0-3.1,0-6.19,0-9.29,0-1.1,0-1.79-.69-1.79-1.78,0-4.66,0-9.31,0-13.97,0-1.07.7-1.77,1.78-1.77,3.37,0,6.75,0,10.12,0Z"/>
        <path class="cls-1" d="M30.84,17.04c.68,0,1.16.65.94,1.29-.05.14-.03.22.06.32.27.3.54.61.81.92.07.09.15.12.26.09.12-.04.26-.04.38,0,.13.04.22,0,.3-.1.27-.32.54-.63.82-.93.1-.11.06-.21.03-.32-.12-.41,0-.77.32-1.04.32-.27.69-.31,1.07-.13.39.18.58.51.57.94-.01.6-.56,1.04-1.18.94-.13-.02-.21,0-.3.1-.27.32-.54.63-.82.94-.07.08-.08.15-.05.25.15.44.02.88-.34,1.14-.35.26-.81.26-1.16.01-.37-.26-.51-.69-.36-1.16.03-.11.02-.18-.05-.26-.27-.3-.54-.61-.8-.92-.09-.1-.17-.16-.31-.12-.1.03-.22.03-.32,0-.18-.05-.28.02-.38.15-.25.3-.5.59-.76.87-.08.09-.1.17-.05.29.19.55-.11,1.11-.66,1.27-.53.16-1.09-.15-1.24-.7-.15-.53.18-1.09.73-1.23.15-.04.3-.04.44,0,.12.03.19-.01.26-.1.28-.32.56-.65.85-.96.07-.08.06-.15.03-.24-.24-.66.24-1.33.94-1.33ZM31.14,18.03c0-.15-.15-.3-.3-.3-.15,0-.3.15-.3.3,0,.15.15.3.3.3.15,0,.3-.15.3-.3ZM35.71,18.03c0-.15-.15-.3-.3-.3-.15,0-.3.15-.3.3,0,.15.15.3.3.3.15,0,.3-.15.3-.3ZM28.86,20.65c0-.15-.14-.3-.29-.31-.15,0-.3.14-.31.29,0,.15.14.3.29.31.15,0,.3-.14.31-.29ZM33.42,20.65c0-.15-.14-.3-.3-.31-.15,0-.3.14-.31.3,0,.15.14.3.3.31.15,0,.3-.14.31-.3Z"/>
        <path class="cls-1" d="M21.24,24.86c0-1.26,0-2.52,0-3.78,0-.5.18-.68.67-.68.63,0,1.27,0,1.9,0,.43,0,.63.19.63.62,0,2.58,0,5.17,0,7.75,0,.42-.2.61-.63.61-.63,0-1.27,0-1.9,0-.47,0-.66-.18-.66-.65,0-1.29,0-2.58,0-3.87ZM22.34,24.9c0,.93,0,1.86,0,2.79,0,.67-.08.58.59.61.34.02.42-.1.42-.43-.01-1.91,0-3.81,0-5.72,0-.74.11-.63-.67-.66-.27,0-.34.09-.33.34.01,1.02,0,2.04,0,3.06Z"/>
        <path class="cls-1" d="M17.04,25.92c0-.9,0-1.79,0-2.69,0-.54.17-.71.7-.72.62,0,1.25,0,1.87,0,.43,0,.63.19.63.62,0,1.88,0,3.76,0,5.65,0,.42-.2.61-.63.62-.65,0-1.29,0-1.94,0-.44,0-.63-.2-.63-.65,0-.94,0-1.88,0-2.82ZM19.14,25.95c0-.57,0-1.14,0-1.71,0-.72.1-.62-.66-.64-.28,0-.36.09-.35.36.01,1.22,0,2.43,0,3.65,0,.78-.14.67.7.69.23,0,.31-.08.3-.31-.01-.68,0-1.36,0-2.04Z"/>
        <path class="cls-1" d="M28.65,26.74c0,.67,0,1.33,0,2,0,.47-.19.65-.66.65-.62,0-1.25,0-1.87,0-.48,0-.67-.18-.67-.65,0-1.33,0-2.67,0-4,0-.47.19-.65.66-.65.62,0,1.25,0,1.87,0,.49,0,.67.18.67.68,0,.66,0,1.31,0,1.97ZM27.55,26.77c0-.31,0-.61,0-.92-.01-.76.12-.65-.69-.67-.25,0-.32.09-.32.33.01.7,0,1.4,0,2.1.01.77-.16.67.74.69.2,0,.27-.08.27-.27,0-.42,0-.83,0-1.25Z"/>
      </g>
      <g>
        <path class="cls-1" d="M12.61,24.51v5.7h-3.04V1.47l13.17,5.49v6.28c.37-.08.75-.12,1.13-.12v-6.8c0-.12-.31-.38-.45-.4C18.74,4.21,14.12,1.78,9.44.14c-.33-.12-.56-.25-.87.01-.04.04-.21.26-.21.29v10.3H2.87s-.39.29-.39.32v19.15H.4c-.37,0-.75,1.09.21,1.21h13.92s0-1.21,0-1.21h-.79v-4.88h.79v-1.1c-.5,0-.99,0-1.46-.03-.11-.06-.46.29-.46.32ZM8.36,30.21H3.62V11.95h4.74v18.27Z"/>
        <path class="cls-1" d="M12.94,9.48l6.22-.02c.69.07.68,1.07,0,1.14h-6.16c-.53-.19-.54-.87-.06-1.12Z"/>
      </g>
    </g>
  </g>
</svg>