<?xml version="1.0" encoding="UTF-8"?>
<svg id="Layer_2" data-name="Layer 2" xmlns="http://www.w3.org/2000/svg" viewBox="0 0 39.92 30.42">
  <defs>
    <style>
      .cls-1 {
        fill: #192754;
      }
    </style>
  </defs>
  <g id="Layer_1-2" data-name="Layer 1">
    <g>
      <path class="cls-1" d="M0,5.7c.21-.43.38-.83.78-1.13.13-.1.71-.43.82-.43h2.46V1.99C4.05,1.04,5.17,0,6.12,0h31.74c1.07.09,1.88.77,2.06,1.83v16.53c-.07.83-1.1,1.83-1.91,1.83h-1.6v5.58c0,.4-.74.58-1.1.47-.63-.19-1.92-1.58-2.6-1.92l-.24-.08H12.75s-8.02,6.02-8.02,6.02c-.31.21-.7.18-.98-.06-.03-.03-.24-.29-.24-.31v-5.65h-1.83s-.49-.18-.56-.22c-.58-.29-.91-.83-1.12-1.42V5.7ZM34.86,23.86v-4.8c0-.05.17-.26.24-.31.64-.51,2.71.11,3.12-.39.08-.09.11-.22.14-.33l.02-15.66c0-.27-.09-.54-.32-.7H6.01c-.2.15-.33.36-.32.62l.04,15.88c.1.25.28.36.55.39,1.71.2,13.03-.17,14.78.02.92.19.78,1.54-.14,1.61-1.66-.23-14.14.42-15.59-.21-.6-.26-1.27-1.1-1.27-1.77V5.7h-1.99c-.26,0-.51.41-.51.66v15.75c.02.09.1.32.15.38.3.36,2.39-.1,3.01.29.07.05.35.37.35.43v4.72c.15.01.26-.12.38-.2.91-.62,6.48-5.1,6.91-5.1h18.05l-3.17-2.4c-2.74-.21-5.78.23-8.49-.01-1.28-.11-1.18-1.5-.22-1.63h9.18s.36.2.36.2l6.79,5.1Z"/>
      <path class="cls-1" d="M29.54,4.16c4.59-.55,6.83,4.96,4.48,8.44.46.66,2.3,1.7,1.51,2.62-.85.98-2.04-.95-2.66-1.4-2.71,2.07-6.19.44-7.14-2.62-.87-2.81.64-6.66,3.8-7.04ZM32.9,11.39c1.37-2.51-.58-6.69-3.76-5.44-3.31,1.3-2.41,7.67,1.52,7.13.23-.03,1.14-.25.92-.57-.44-.63-1.93-1.36-1.33-2.26.83-1.23,1.9.95,2.65,1.13Z"/>
      <path class="cls-1" d="M21.98,12.1h-3.76c-.26.09-.95,2.53-1.37,2.92-.6.55-1.42.07-1.33-.7,1.17-3.04,2.54-6.01,3.75-9.04.3-.67,1.13-.81,1.52-.13l3.84,9.19c.07.51-.33.94-.85.91s-.59-.3-.78-.68c-.38-.77-.68-1.66-1.01-2.46ZM21.21,10.45l-1.09-2.81-1.25,2.81h2.34Z"/>
      <path class="cls-1" d="M10.21,6.32v2.5h4.48c.45,0,.78,1.06.19,1.44-.07.05-.45.2-.5.2h-4.17v4.41c0,.65-1.46,1.01-1.63-.16.18-2.91-.26-6.17,0-9.04.05-.61.27-.9.9-.97,1.56-.17,3.45.12,5.05.02.62.11.9.84.51,1.34-.06.07-.37.28-.42.28h-4.41Z"/>
    </g>
  </g>
</svg>