<?xml version="1.0" encoding="UTF-8"?>
<svg id="Layer_2" data-name="Layer 2" xmlns="http://www.w3.org/2000/svg" viewBox="0 0 38.82 35.56">
  <defs>
    <style>
      .cls-1 {
        fill: #fff;
      }
    </style>
  </defs>
  <g id="Layer_1-2" data-name="Layer 1">
    <g>
      <path class="cls-1" d="M0,2.73C.43,1.2,1.61.12,3.21,0h30.41c1.74.16,3.08,1.46,3.21,3.21v13.15c.97.52,1.72,1.47,1.89,2.58-.23,3.57.31,7.52,0,11.04-.15,1.77-1.66,2.95-3.36,3.06-3.56.23-7.38-.18-10.97,0l-4.27,2.46c-.31.19-.99-.22-.99-.53v-1.93h-1.47c-1.25,0-3.06-1.65-3.06-2.91v-10.1h-4.88l-4.25,2.48c-.47.14-1-.32-1-.78v-1.7h-1.47c-.18,0-.95-.27-1.15-.36-.92-.45-1.56-1.39-1.84-2.36V2.73ZM35.24,16.03V2.99c0-.55-1.09-1.5-1.7-1.4H3.21c-1.02.14-1.61.85-1.7,1.86l.02,13.29c.33,2.35,2.36,1.47,3.86,1.74.2.04.66.36.66.55v1.32l3.38-1.87h5.26c.35-.86.9-1.66,1.74-2.07.19-.09.9-.36,1.07-.36h17.73ZM20.72,33.35c1.14-.59,2.2-1.37,3.37-1.88l11.61-.04c1.06-.23,1.45-1.03,1.51-2.04.21-3.22-.16-6.66,0-9.91-.09-1.01-.67-1.73-1.7-1.86h-17.84c-.76.17-1.31.72-1.47,1.48v10.94c.6,2.03,2.49,1.15,3.87,1.43.33.07.66.45.66.78v1.1Z"/>
      <path class="cls-1" d="M21.21,9.35c-.48-.1-1.51-.04-1.88-.28s-.65-1.28-.89-1.7c-.1-.08-.72,1.51-.92,1.66-.38.29-1.43.23-1.91.32-.03.14.05.14.12.2.28.25,1.14.96,1.21,1.27.08.38-.36,1.74-.27,1.86.46-.14,1.3-.86,1.74-.85.31,0,1.66.93,1.73.85-.03-.58-.43-1.43-.25-1.99.12-.38,1.11-.92,1.31-1.34Z"/>
      <path class="cls-1" d="M31.27,9.35c-.49-.1-1.49-.03-1.88-.28s-.67-1.27-.89-1.7c-.11-.08-.69,1.35-.76,1.47-.37.55-1.46.4-2.07.52,0,.21.25.29.39.42.18.18.86.81.92.99.13.42-.36,1.78-.25,1.92.47-.15,1.28-.86,1.74-.85.31,0,1.66.93,1.73.85-.04-.48-.41-1.38-.31-1.83.12-.57,1.08-.99,1.37-1.5Z"/>
      <path class="cls-1" d="M11.15,9.35c-.52-.11-1.5-.02-1.91-.32-.4-.29-.57-1.25-.89-1.66-.11,0-.62,1.46-.89,1.66-.38.29-1.43.23-1.91.32-.05.17.04.12.09.16.29.25,1.18.99,1.24,1.31.11.55-.27,1.29-.27,1.86.07.07,1.39-.86,1.74-.85.33,0,1.67.92,1.73.85-.02-.54-.4-1.43-.27-1.93.1-.38,1.12-.97,1.33-1.4Z"/>
      <path class="cls-1" d="M21.68,25.81l9.81-.02c1.06.11,1,1.54-.08,1.59h-9.53c-.93-.08-1.14-1.29-.21-1.57Z"/>
      <path class="cls-1" d="M32.04,23.27c-.16.17-.46.23-.69.26-2.99.28-6.42-.22-9.46,0-.99-.07-1.13-1.46-.08-1.59h9.76c.64.07.9.89.46,1.34Z"/>
    </g>
  </g>
</svg>