<?xml version="1.0" encoding="UTF-8"?>
<svg id="Layer_2" data-name="Layer 2" xmlns="http://www.w3.org/2000/svg" viewBox="0 0 39.62 35.6">
  <defs>
    <style>
      .cls-1 {
        fill: #192754;
      }
    </style>
  </defs>
  <g id="Layer_1-2" data-name="Layer 1">
    <g>
      <path class="cls-1" d="M0,30.09c.39-1.56,1.35-2.83,2.13-4.18C6.62,18.08,11.14,10.28,15.65,2.47,16.56.9,17.9.03,19.71,0c1.86-.03,3.26.82,4.2,2.42.97,1.67,1.93,3.35,2.9,5.02,3.81,6.59,7.62,13.19,11.42,19.78.47.81,1.01,1.59,1.25,2.52.75,2.92-1.46,5.84-4.47,5.85-10.14.01-20.28,0-30.42,0-2.06,0-3.91-1.45-4.45-3.44-.04-.15-.09-.3-.13-.44,0-.54,0-1.08,0-1.62ZM19.77,33.17c5.01,0,10.02,0,15.04,0,1.1,0,1.88-.5,2.24-1.45.34-.86.07-1.62-.37-2.38-2.19-3.76-4.36-7.54-6.54-11.31-2.75-4.76-5.53-9.51-8.23-14.3-1.01-1.78-3.29-1.67-4.24,0-4.14,7.26-8.34,14.49-12.53,21.73-.82,1.42-1.64,2.83-2.45,4.25-.44.78-.46,1.58,0,2.35.47.8,1.2,1.11,2.11,1.11,4.99,0,9.97,0,14.96,0Z"/>
      <path class="cls-1" d="M20.98,17.4c0,1.79,0,3.58,0,5.37,0,.35-.1.48-.46.46-.49-.03-.98-.03-1.47,0-.36.02-.46-.11-.46-.46.01-2.1,0-4.2,0-6.3,0-1.48,0-2.96,0-4.44,0-.35.1-.48.46-.46.5.03,1,.02,1.51,0,.32-.01.42.1.42.42-.01,1.8,0,3.61,0,5.41Z"/>
      <path class="cls-1" d="M19.83,25.5c.87,0,1.54.7,1.54,1.59,0,.89-.7,1.57-1.61,1.56-.87,0-1.54-.7-1.54-1.59,0-.89.7-1.57,1.61-1.56Z"/>
    </g>
  </g>
</svg>