<?xml version="1.0" encoding="UTF-8"?>
<svg id="Layer_2" data-name="Layer 2" xmlns="http://www.w3.org/2000/svg" viewBox="0 0 39.88 36.15">
  <defs>
    <style>
      .cls-1 {
        fill: #fff;
      }
    </style>
  </defs>
  <g id="Layer_1-2" data-name="Layer 1">
    <g>
      <g>
        <path class="cls-1" d="M22.19,31.75H1.11c-.65.07-.52-1.67-.18-1.78h20.55c-.07-.25-.14-.49-.19-.74h-7.64v-12.8s-.13-.37-.16-.43c-.2-.37-.47-.43-.86-.46-2.11-.16-4.41.12-6.54,0-.4,0-.83.52-.83.89v12.8h-2.25V12.7c.33-.03.71.04,1.03,0,.65-.08,1.59-.59,2.05-1.06l.66-.86c1.31,2.54,4.98,2.56,6.28,0l.69.89c1.43,1.37,3.59,1.37,5.03,0l.69-.9c1.1,2.13,3.98,2.59,5.69.86.24-.24.38-.6.56-.82.13-.17.3.32.4.45.45.57,1.6,1.42,2.35,1.42h1.02v4.31c.24-.02.48-.03.73-.04v-4.54c1.37-.43,2.35-1.9,2.25-3.34l-2.22-5.71c-.06-1.34.26-3.11-1.51-3.38H3.82c-1.83.19-1.53,2.02-1.58,3.38L.02,9.03c-.13,1.47.84,2.96,2.24,3.4v16.8H.91c-.28,0-.77.4-.85.67-.08.26-.08,1.57-.01,1.84.07.28.44.61.73.66l21.77-.02c-.13-.21-.25-.42-.36-.64ZM5.97,16.44s.09-.1.07-.17h6.81c-.02.06.07.14.07.17v12.8h-6.94v-12.8ZM7.1,9.53h5.56c-.44,3.25-5.11,3.26-5.56,0ZM12.72,8.8h-5.56l1.19-5.09h4.76l-.4,5.09ZM13.44,9.53h5.56c-.44,3.25-5.11,3.26-5.56,0ZM13.44,8.8l.4-5.09h4.76l.4,5.09h-5.56ZM19.33,3.71h4.76l1.19,5.09h-5.56l-.4-5.09ZM19.79,9.53h5.56c-.44,3.25-5.11,3.26-5.56,0ZM26.14,9.53h5.56c-.44,3.25-5.11,3.26-5.56,0ZM31.56,8.8h-5.56l-1.19-5.09h4.76l1.98,5.09ZM3,1.49c0-.38.69-.9,1.09-.83h24.21c.42-.09,1.15.42,1.15.83v1.49H3v-1.49ZM2.86,3.71h4.76l-1.19,5.09H.88l1.98-5.09ZM.75,9.53h5.56c-.44,3.25-5.11,3.26-5.56,0Z"/>
        <path class="cls-1" d="M21.18,24.87h-4.46s-.1-.09-.1-.1v-8.4s.09-.1.1-.1h9.69v1.51c.25-.11.51-.21.78-.3,0-.28,0-.57.01-.84-.05-.6-.29-1.07-.96-1.09l-9.64.02c-.43.17-.67.4-.71.88-.25,2.62.19,5.61,0,8.27,0,.48.44.87.89.89,1.39-.09,2.84-.05,4.3,0,.03-.25.06-.49.1-.74Z"/>
        <path class="cls-1" d="M11.73,21.2c.07-.26.66-.18.66,0v3.11c0,.25-.66.25-.66,0v-3.11Z"/>
      </g>
      <g>
        <path class="cls-1" d="M30.2,23.42c.4-.09.73.11.83.5l.03,3.51,2.25,2.17c.35.62-.29,1.3-.91.91-.41-.26-1.24-1.12-1.63-1.5-.35-.34-.71-.68-1-1.06l-.02-4.04c.03-.19.26-.45.45-.49Z"/>
        <path class="cls-1" d="M30.82,36.15c-4.99,0-9.05-4.06-9.05-9.05s4.06-9.05,9.05-9.05,9.05,4.06,9.05,9.05-4.06,9.05-9.05,9.05ZM30.82,19.05c-4.44,0-8.05,3.61-8.05,8.05s3.61,8.05,8.05,8.05,8.05-3.61,8.05-8.05-3.61-8.05-8.05-8.05Z"/>
      </g>
    </g>
  </g>
</svg>