<?xml version="1.0" encoding="UTF-8"?>
<svg id="Layer_2" data-name="Layer 2" xmlns="http://www.w3.org/2000/svg" viewBox="0 0 39.36 33.72">
  <defs>
    <style>
      .cls-1 {
        fill: #192754;
      }
    </style>
  </defs>
  <g id="Layer_1-2" data-name="Layer 1">
    <g>
      <path class="cls-1" d="M38.86,33.64c-7.2,0-14.39,0-21.59,0-.16,0-.2-.04-.2-.2,0-1.4,0-2.8,0-4.2.15-.34.4-.52.78-.5.11,0,.2-.01.19-.16-.09-.92-.17-1.84-.25-2.76,0-.1-.05-.16-.15-.18-.28-.06-.45-.24-.57-.49,0-.14,0-.29,0-.43.27-.98.55-1.95.82-2.93.15-.54.36-.7.91-.7,1.26,0,2.52,0,3.78,0,.18,0,.26-.06.27-.25.01-.29.05-.58.07-.87.12-1.63.23-3.26.35-4.89,0-.09.02-.19-.08-.25-.23-.13-.24-.33-.18-.56.21-.81.4-1.62.61-2.42.12-.46.16-.5.63-.5,4.49,0,8.98,0,13.48,0,.07,0,.15,0,.22,0,.22.01.35.13.37.35.02.21.03.42.04.63.03,1.17.06,2.35.08,3.52.04,1.88.09,3.75.13,5.63.04,1.56.07,3.13.1,4.69,0,.05,0,.1,0,.15.1.78.2,1.55.29,2.33.01.1.04.18.12.24.21.17.28.39.28.65,0,1.09-.01,2.19,0,3.28,0,.39-.15.65-.5.81ZM31.73,28.76c1.07,0,2.15,0,3.22,0q.57,0,.65-.57s0-.04.01-.06c.16-1.13.27-2.26.33-3.39.04-.87.09-1.74.14-2.6.07-1.16.14-2.33.21-3.49.04-.62.08-1.24.12-1.86.03-.56.06-1.11.1-1.67,0-.15-.04-.23-.21-.23-1.35,0-2.7,0-4.04,0-.14,0-.2.05-.2.19,0,.17,0,.33,0,.5-.02.25-.23.4-.47.33-.06-.02-.13-.04-.18-.08-.27-.19-.53-.19-.8,0-.19.13-.4.14-.59,0-.28-.2-.53-.16-.82,0-.39.22-.64.05-.64-.4,0-1.02,0-2.04,0-3.07,0-.19-.05-.27-.26-.27-1.24,0-2.48,0-3.72,0-.18,0-.26.06-.3.23-.12.51-.25,1.03-.38,1.54-.07.27-.06.28.22.28,1.2,0,2.39,0,3.59,0,.08,0,.16,0,.24,0,.19.04.29.16.29.35,0,.19-.1.31-.29.35-.08.02-.16.01-.24.01-1.13,0-2.26,0-3.39,0-.21,0-.29.09-.29.28-.01.27-.03.55-.05.82-.05.69-.1,1.39-.15,2.08-.07.92-.14,1.85-.2,2.77-.02.27,0,.28.28.28,1.12,0,2.25,0,3.37,0,.43,0,.67.17.78.58.29,1.01.57,2.02.84,3.04.12.45-.08.8-.52.92-.14.04-.18.11-.19.25-.07.87-.15,1.73-.23,2.6-.02.27-.03.27.24.27,1.18,0,2.36,0,3.54,0ZM28.19,32.93c.88,0,1.77,0,2.65,0,2.5,0,5,0,7.5,0,.28,0,.29,0,.29-.27,0-.98,0-1.96,0-2.93,0-.18-.06-.24-.24-.24-2.5,0-5,0-7.5,0-.19,0-.24.08-.23.25,0,.38,0,.77,0,1.15,0,.37-.29.68-.65.68-1.2,0-2.39,0-3.59,0-.36,0-.64-.3-.66-.66,0-.25,0-.49,0-.74,0-.23.15-.37.37-.37.21,0,.35.15.36.38,0,.15,0,.3,0,.46,0,.13.04.2.19.2,1.02,0,2.04,0,3.06,0,.14,0,.2-.06.19-.2,0-.29,0-.58,0-.87,0-.29,0-.29-.29-.29-3.85,0-7.71,0-11.56,0-.28,0-.28,0-.28.28,0,.93,0,1.87,0,2.8q0,.36.35.36c3.35,0,6.7,0,10.04,0ZM22.98,24.93c1.64,0,3.27,0,4.91,0,.27,0,.28-.02.21-.27-.24-.86-.48-1.71-.71-2.57-.05-.19-.14-.25-.33-.25-2.71,0-5.42,0-8.13,0-.2,0-.28.07-.33.25-.23.85-.47,1.7-.71,2.55-.08.28-.07.3.22.3,1.62,0,3.24,0,4.87,0ZM22.99,28.76c1.3,0,2.59,0,3.89,0,.19,0,.27-.06.28-.25.08-.89.17-1.77.26-2.66.02-.15-.04-.19-.18-.19-.77,0-1.54,0-2.3,0-.15,0-.21.07-.2.21,0,.16,0,.32,0,.48-.01.41-.3.7-.71.7-.7,0-1.41,0-2.11,0-.4,0-.69-.3-.7-.71,0-.15,0-.3,0-.46,0-.17-.07-.23-.23-.23-.75,0-1.51,0-2.26,0-.16,0-.21.05-.2.22.09.83.16,1.67.23,2.51.03.37.03.37.41.37,1.27,0,2.54,0,3.8,0ZM37.63,14.64c-.07.07-.1.14-.16.16-.22.08-.23.26-.24.44-.06,1.06-.12,2.11-.18,3.17-.05.85-.09,1.71-.14,2.56-.07,1.13-.14,2.27-.2,3.4-.04.64-.06,1.29-.13,1.93-.07.72-.17,1.44-.26,2.16-.03.27,0,.31.26.31.43,0,.85,0,1.28,0,.35,0,.35-.02.31-.38-.1-.88-.26-1.75-.28-2.63-.04-1.79-.09-3.58-.13-5.37-.04-1.65-.07-3.3-.1-4.95,0-.25-.03-.51-.04-.79ZM34.77,12.09c-.82,0-1.64,0-2.45,0-.2,0-.27.07-.26.27.01.51,0,1.03,0,1.54,0,.19.06.25.25.25,1.48,0,2.95,0,4.43,0,.17,0,.25-.06.29-.22.13-.53.26-1.05.39-1.58.06-.24.05-.26-.21-.26-.81,0-1.62,0-2.43,0ZM29.27,13.52c0,.41,0,.81,0,1.22,0,.09,0,.2.14.14.2-.08.38-.03.53.08.25.17.48.16.72,0,.14-.09.3-.16.47-.09.15.06.19,0,.19-.14,0-.8,0-1.61,0-2.41,0-.17-.07-.23-.23-.23-.53,0-1.06,0-1.58,0-.18,0-.25.06-.24.24,0,.4,0,.8,0,1.19ZM22.97,26.32c.21,0,.42,0,.63,0,.43,0,.42,0,.42-.42,0-.18-.06-.25-.24-.24-.46,0-.92,0-1.39,0-.45,0-.45,0-.43.45,0,.15.06.21.21.21.27,0,.53,0,.8,0Z"/>
      <g>
        <path class="cls-1" d="M31.35,3.51c-.06-1.39.27-3.23-1.57-3.51H3.96c-1.9.2-1.59,2.1-1.64,3.51L.02,9.38c-.13,1.52.87,3.08,2.33,3.53v17.43H.95c-.29,0-.79.42-.88.7-.08.27-.09,1.63-.01,1.91.08.29.46.63.76.68l15.76.1c0-.22,0-.42,0-.67l-15.42-.11c-.68.07-.54-1.74-.19-1.84h15.53c-.02-.26-.03-.51-.03-.77h-2.31v-13.28s-.13-.39-.17-.45c-.2-.38-.49-.45-.89-.48-2.19-.16-4.58.12-6.79,0-.41,0-.86.54-.86.92v13.28h-2.33V13.18c.34-.03.73.04,1.06,0,.68-.08,1.65-.61,2.13-1.1l.68-.9c1.36,2.64,5.17,2.66,6.52,0l.72.93c1.49,1.42,3.73,1.42,5.22,0l.72-.93c.61,1.18,1.45,1.79,2.65,1.89.08-.24.16-.44.23-.69-1.25-.08-2.29-.91-2.51-2.51h5.77c-.05.39-.18.64-.33.94.18-.02,1.28,0,1.45,0-.14-.28-.24-.57-.29-.93h5.76c-.05.38-.14.65-.29.94.1-.01.61.01.83,0,.19-.46.25-.89.22-1.39l-2.31-5.93ZM6.2,17.06s.09-.1.07-.17h7.07c-.02.07.07.15.07.17v13.28h-7.21v-13.28ZM3.11,1.55c0-.4.71-.93,1.13-.86h25.12c.44-.09,1.2.44,1.2.86v1.54H3.11v-1.54ZM.78,9.89h5.77c-.46,3.37-5.3,3.38-5.77,0ZM6.68,9.13H.91L2.97,3.85h4.94l-1.24,5.28ZM7.36,9.89h5.76c-.46,3.37-5.3,3.38-5.76,0ZM13.2,9.13h-5.76l1.24-5.28h4.94l-.41,5.28ZM13.95,9.89h5.77c-.46,3.37-5.3,3.38-5.77,0ZM13.95,9.13l.41-5.28h4.94l.41,5.28h-5.77ZM20.47,9.13l-.41-5.28h4.94l1.24,5.28h-5.77ZM26.99,9.13l-1.24-5.28h4.94l2.06,5.28h-5.76Z"/>
        <path class="cls-1" d="M12.17,22c.08-.27.69-.18.69,0v3.23c0,.26-.69.26-.69,0v-3.23Z"/>
      </g>
    </g>
  </g>
</svg>