<?xml version="1.0" encoding="UTF-8"?>
<svg id="Layer_2" data-name="Layer 2" xmlns="http://www.w3.org/2000/svg" viewBox="0 0 39.36 39.87">
  <defs>
    <style>
      .cls-1 {
        fill: #fff;
      }
    </style>
  </defs>
  <g id="Layer_1-2" data-name="Layer 1">
    <g>
      <g>
        <path class="cls-1" d="M39.36,29.55c0-.26-.07-.48-.28-.65-.08-.06-.11-.15-.12-.24-.09-.78-.19-1.55-.29-2.33,0-.05,0-.1,0-.15-.03-1.56-.06-3.13-.1-4.69-.04-1.88-.09-3.75-.13-5.63-.03-1.17-.05-2.35-.08-3.52,0-.21-.02-.42-.04-.63-.02-.22-.15-.34-.37-.35-.07,0-.14,0-.22,0-4.49,0-8.98,0-13.48,0-.47,0-.52.04-.63.5-.2.81-.4,1.62-.61,2.42-.06.23-.05.43.18.56.1.06.09.16.08.25-.12,1.63-.23,3.26-.35,4.89-.02.29-.06.58-.07.87,0,.19-.08.25-.27.25-1.26,0-2.52,0-3.78,0-.56,0-.76.16-.91.7-.27.98-.55,1.95-.82,2.93v.43c.11.25.29.43.57.49.1.02.15.08.15.18.08.92.17,1.84.25,2.76.01.15-.08.17-.19.16-.38-.02-.63.15-.78.5,0,1.4,0,2.8,0,4.2,0,.16.04.2.2.2,1.4,0,2.81,0,4.21,0-.14-.23-.27-.47-.38-.72h-2.96q-.35,0-.35-.36c0-.93,0-1.87,0-2.8,0-.27,0-.28.28-.28.72,0,1.44,0,2.17,0-.01-.24-.02-.49-.02-.73h-1.03c-.38,0-.37,0-.41-.37-.07-.84-.15-1.67-.23-2.51-.02-.17.04-.22.2-.22.68,0,1.35,0,2.03,0,.09-.25.19-.49.3-.73-.99,0-1.97,0-2.96,0-.29,0-.3-.01-.22-.3.24-.85.48-1.7.71-2.55.05-.19.13-.25.33-.25,1.56,0,3.11,0,4.67,0,.38-.28.79-.52,1.24-.73-.31,0-.63,0-.94,0-.28,0-.3-.01-.28-.28.06-.92.13-1.85.2-2.77.05-.69.1-1.39.15-2.08.02-.27.04-.55.05-.82,0-.19.08-.28.29-.28,1.13,0,2.26,0,3.39,0,.08,0,.16,0,.24-.01.19-.04.29-.16.29-.35,0-.19-.1-.31-.29-.35-.08-.02-.16,0-.24,0-1.2,0-2.39,0-3.59,0-.28,0-.29-.01-.22-.28.13-.51.26-1.02.38-1.54.04-.17.12-.23.3-.23,1.24,0,2.48,0,3.72,0,.21,0,.26.08.26.27,0,1.02,0,2.04,0,3.07,0,.45.25.62.64.4.29-.16.54-.2.82,0,.19.14.4.13.59,0,.27-.19.53-.19.8,0,.05.04.12.06.18.08.25.07.46-.08.47-.33.01-.17,0-.33,0-.5,0-.14.06-.19.2-.19,1.35,0,2.7,0,4.04,0,.17,0,.22.08.21.23-.03.56-.06,1.11-.1,1.67-.04.62-.08,1.24-.12,1.86-.07,1.16-.14,2.33-.21,3.49-.05.87-.1,1.73-.14,2.6,0,.1-.02.2-.02.3.27.6.46,1.23.59,1.87.02-.2.05-.4.07-.61.06-.64.09-1.29.13-1.93.07-1.13.14-2.27.2-3.4.05-.85.1-1.71.14-2.56.06-1.06.12-2.11.18-3.17.01-.18.03-.36.24-.44.05-.02.09-.09.16-.16.02.28.04.53.04.79.04,1.65.07,3.3.1,4.95.04,1.79.09,3.58.13,5.37.02.89.17,1.76.28,2.63.04.35.03.38-.31.38-.38,0-.77,0-1.15,0,0,.24,0,.49-.02.73.57,0,1.13,0,1.7,0,.18,0,.24.06.24.24,0,.98,0,1.96,0,2.93,0,.26-.01.27-.29.27-.84,0-1.67,0-2.51,0-.12.24-.24.48-.38.71,1.14,0,2.28,0,3.42,0,.35-.16.5-.42.5-.81-.01-1.09,0-2.19,0-3.28ZM31.33,14.73c0,.15-.04.2-.19.14-.17-.07-.33,0-.47.09-.24.16-.47.17-.72,0-.16-.11-.34-.16-.53-.08-.14.06-.14-.05-.14-.14,0-.41,0-.81,0-1.22,0-.4,0-.8,0-1.19,0-.18.06-.24.24-.24.53,0,1.06,0,1.58,0,.17,0,.23.05.23.23,0,.8,0,1.61,0,2.41ZM37.41,12.35c-.13.53-.27,1.05-.39,1.58-.04.16-.12.22-.29.22-1.48,0-2.95,0-4.43,0-.19,0-.25-.07-.25-.25,0-.51.01-1.03,0-1.54,0-.2.06-.27.26-.27.82,0,1.64,0,2.45,0s1.62,0,2.43,0c.26,0,.27.02.21.26Z"/>
        <g>
          <path class="cls-1" d="M31.35,3.51c-.06-1.39.27-3.23-1.57-3.51H3.96c-1.9.2-1.59,2.1-1.64,3.51L.02,9.38c-.13,1.52.87,3.08,2.33,3.53v17.43H.95c-.29,0-.79.42-.88.7-.08.27-.09,1.63-.01,1.91.08.29.46.63.76.68l15.76.1c0-.22,0-.42,0-.67l-15.42-.11c-.68.07-.54-1.74-.19-1.84h15.53c-.02-.26-.03-.51-.03-.77h-2.31v-13.28s-.13-.39-.17-.45c-.2-.38-.49-.45-.89-.48-2.19-.16-4.58.12-6.79,0-.41,0-.86.54-.86.92v13.28h-2.33V13.18c.34-.03.73.04,1.06,0,.68-.08,1.65-.61,2.13-1.1l.68-.9c1.36,2.64,5.17,2.66,6.52,0l.72.93c1.49,1.42,3.73,1.42,5.22,0l.72-.93c.61,1.18,1.45,1.79,2.65,1.89.08-.24.16-.44.23-.69-1.25-.08-2.29-.91-2.51-2.51h5.77c-.05.39-.18.64-.33.94.18-.02,1.28,0,1.45,0-.14-.28-.24-.57-.29-.93h5.76c-.05.38-.14.65-.29.94.1-.01.61.01.83,0,.19-.46.25-.89.22-1.39l-2.31-5.93ZM6.2,17.06s.09-.1.07-.17h7.07c-.02.07.07.15.07.17v13.28h-7.21v-13.28ZM3.11,1.55c0-.4.71-.93,1.13-.86h25.12c.44-.09,1.2.44,1.2.86v1.54H3.11v-1.54ZM.78,9.89h5.77c-.46,3.37-5.3,3.38-5.77,0ZM6.68,9.13H.91L2.97,3.85h4.94l-1.24,5.28ZM7.36,9.89h5.76c-.46,3.37-5.3,3.38-5.76,0ZM13.2,9.13h-5.76l1.24-5.28h4.94l-.41,5.28ZM13.95,9.89h5.77c-.46,3.37-5.3,3.38-5.77,0ZM13.95,9.13l.41-5.28h4.94l.41,5.28h-5.77ZM20.47,9.13l-.41-5.28h4.94l1.24,5.28h-5.77ZM26.99,9.13l-1.24-5.28h4.94l2.06,5.28h-5.76Z"/>
          <path class="cls-1" d="M12.17,22c.08-.27.69-.18.69,0v3.23c0,.26-.69.26-.69,0v-3.23Z"/>
        </g>
      </g>
      <path class="cls-1" d="M38.85,39.87h-.4l-5.1-4.93c-2.51,2.04-6.13,2.29-8.93.66-1.87-1.09-3.26-2.92-3.72-5.05l-.16-.95c.02-.45-.03-.94,0-1.39.25-3.42,3.07-6.32,6.39-6.94,6.9-1.27,12.07,6.34,7.9,12.14-.07.1-.55.65-.54.7l4.88,4.82c.22.39.07.75-.31.95ZM28.1,22.37c-4.85.23-7.93,5.44-5.48,9.74,2.53,4.46,9.13,4.42,11.63-.05,2.54-4.54-1.05-9.93-6.14-9.69Z"/>
    </g>
  </g>
</svg>