<?xml version="1.0" encoding="UTF-8"?>
<svg id="Layer_2" data-name="Layer 2" xmlns="http://www.w3.org/2000/svg" viewBox="0 0 40.04 31.81">
  <defs>
    <style>
      .cls-1 {
        fill: #fff;
      }
    </style>
  </defs>
  <g id="Layer_1-2" data-name="Layer 1">
    <g>
      <g>
        <path class="cls-1" d="M32.72,30.58h-2.54v-6.52c-.3.03-.62.05-.94.05-.1,0-.19-.01-.28-.01v6.49h-4.8v-8.04c-.42-.31-.8-.66-1.15-1.04v9.08h-3.08v-5.63s-.18-.32-.22-.36c-.12-.1-.24-.1-.39-.11-1.94-.18-4.13.14-6.1,0-.12-.06-.46.3-.46.33v5.77h-3.08V1.49l13.33,5.55v2.15c.34-.38.72-.73,1.15-1.05v-1.75c0-.12-.32-.38-.45-.41C18.97,4.26,14.29,1.8,9.56.14c-.34-.12-.56-.25-.88.01-.05.04-.21.26-.21.29v10.43H2.91s-.39.29-.39.32v19.39H.4c-.38,0-.76,1.1.21,1.22h31.83c.53,0,.84-.4.62-.92-.04-.09-.27-.3-.34-.3ZM8.46,30.58H3.66V12.09h4.8v18.49ZM18.71,30.58h-4.8v-4.95h4.8v4.95Z"/>
        <path class="cls-1" d="M19.76,14.94c-.08.09-.25.16-.37.17-1.92-.17-4.22.22-6.1,0-.79-.09-.78-1.12.22-1.22,1.78-.18,3.85.13,5.66,0,.57,0,1.01.59.59,1.05Z"/>
        <path class="cls-1" d="M19.76,19.31c-.08.09-.25.16-.37.17-1.92-.17-4.22.22-6.1,0-.83-.1-.67-1.21.14-1.22,1.82.15,3.95-.2,5.73,0,.57.06,1.03.56.59,1.05Z"/>
        <path class="cls-1" d="M13.1,9.6l6.29-.02c.7.07.69,1.08,0,1.15h-6.23c-.53-.2-.55-.88-.06-1.13Z"/>
      </g>
      <path class="cls-1" d="M39.62,26.51h-.41l-5.2-5.03c-2.56,2.08-6.25,2.33-9.1.68-1.91-1.11-3.32-2.98-3.79-5.15l-.17-.97c.02-.46-.03-.96,0-1.42.25-3.49,3.13-6.44,6.51-7.07,7.03-1.3,12.3,6.46,8.05,12.37-.08.11-.56.66-.55.71l4.97,4.91c.22.4.07.76-.31.97ZM28.66,8.68c-4.94.23-8.08,5.54-5.59,9.93s9.3,4.51,11.85-.05c2.58-4.63-1.07-10.12-6.26-9.87Z"/>
    </g>
  </g>
</svg>